<svg id="graphic" xmlns="http://www.w3.org/2000/svg" width="754.162" height="544.781" viewBox="0 0 754.162 544.781">
  <path id="Path_137" data-name="Path 137" d="M1007.072,696.284H255.09a1.09,1.09,0,1,1,0-2.18h751.982a1.09,1.09,0,1,1,0,2.18Z" transform="translate(-254 -155.682)" fill="#141414"/>
  <path id="Path_138" data-name="Path 138" d="M913.759,521.7H471.288a7.084,7.084,0,1,0,0,14.168h12.533V705.339a7.084,7.084,0,0,0,14.168,0l.108-169.469H885.969V705.339a7.084,7.084,0,0,0,14.168,0V539.606l2.061-3.735h11.562a7.084,7.084,0,0,0,0-14.168Z" transform="translate(-235.117 -171.169)" fill="#141414"/>
  <path id="Path_139" data-name="Path 139" d="M707.648,532.8H573.619a9.8,9.8,0,0,1-9.789-9.789V449.221a9.8,9.8,0,0,1,9.789-9.789H707.648a9.8,9.8,0,0,1,9.788,9.789v73.791a9.8,9.8,0,0,1-9.789,9.789Z" transform="translate(-226.168 -178.559)" fill="#3f3d56"/>
  <path id="Path_140" data-name="Path 140" d="M707.027,446.345H573a2.261,2.261,0,0,0-2.256,2.256v73.792A2.261,2.261,0,0,0,573,524.649H707.027a2.261,2.261,0,0,0,2.256-2.256V448.6A2.261,2.261,0,0,0,707.027,446.345Z" transform="translate(-225.547 -177.938)" fill="#fff"/>
  <path id="Path_141" data-name="Path 141" d="M647.027,494.366s-16.045-3.7-24.87,3.081,11.231,22.183,11.231,22.183Z" transform="translate(-221.13 -173.715)" fill="#2f2e41"/>
  <circle id="Ellipse_30" data-name="Ellipse 30" cx="15.135" cy="15.135" r="15.135" transform="translate(400.117 283.396)" fill="#a0616a"/>
  <path id="Path_142" data-name="Path 142" d="M624.984,454.93a10.787,10.787,0,0,1,9.946-5.292,21.144,21.144,0,0,1,6.011,1.683l9.894,3.859c2.56,1,5.364,2.222,6.475,4.735,1.031,2.333.262,5.027-.517,7.456l-3.7,11.545a35.142,35.142,0,0,0-2.1-7.626,11.808,11.808,0,0,0-5.127-5.846c-2.57-1.318-5.6-1.291-8.484-1.152-4.086.2-8.528.716-11.432,3.6a11.874,11.874,0,0,0-3.013,5.884,35.412,35.412,0,0,0-.632,6.661,55.23,55.23,0,0,1-4.217-9.041,22.369,22.369,0,0,1-1.567-7.318,10.292,10.292,0,0,1,2.359-6.961,6.752,6.752,0,0,1,6.79-2.137Z" transform="translate(-221.435 -177.644)" fill="#2f2e41"/>
  <path id="Path_143" data-name="Path 143" d="M674,507.565a2.694,2.694,0,0,0-2.256-1.951.931.931,0,0,0-.109-.065l-22.594-12.662a2.874,2.874,0,0,0-3.845.99l-6.179,10-9.307-9.307-.148-.148a2.873,2.873,0,0,0-3.68-.322l-18.568,13c-.033,0-.065.011-.1.011a3.959,3.959,0,0,0-3.3,3.694l-.479,9.689h74.152Z" transform="translate(-222.611 -173.79)" fill="#46a16e"/>
  <path id="Path_144" data-name="Path 144" d="M719.439,516.938H705.133a1.506,1.506,0,0,0-1.506-1.506h-4.518a1.506,1.506,0,0,0-1.506,1.506h-4.518a1.506,1.506,0,0,0-1.506-1.506h-4.518a1.506,1.506,0,0,0-1.506,1.506h-4.518a1.506,1.506,0,0,0-1.506-1.506h-4.518a1.506,1.506,0,0,0-1.506,1.506H668.99a1.506,1.506,0,0,0-1.506-1.506h-4.518a1.506,1.506,0,0,0-1.506,1.506h-4.518a1.506,1.506,0,0,0-1.506-1.506h-4.518a1.506,1.506,0,0,0-1.506,1.506H644.9a1.506,1.506,0,0,0-1.506-1.506h-4.518a1.506,1.506,0,0,0-1.506,1.506h-4.518a1.506,1.506,0,0,0-1.506-1.506h-4.518a1.506,1.506,0,0,0-1.506,1.506H620.8a1.506,1.506,0,0,0-1.506-1.506h-4.518a1.506,1.506,0,0,0-1.506,1.506h-4.518a1.506,1.506,0,0,0-1.506-1.506h-4.518a1.506,1.506,0,0,0-1.506,1.506H596.7a1.506,1.506,0,0,0-1.506-1.506h-4.518a1.506,1.506,0,0,0-1.506,1.506h-4.518a1.506,1.506,0,0,0-1.506-1.506h-4.518a1.506,1.506,0,0,0-1.506,1.506H562.821a4.518,4.518,0,0,0,0,9.036H719.439a4.518,4.518,0,1,0,0-9.036Z" transform="translate(-226.665 -171.732)" fill="#3f3d56"/>
  <path id="Path_145" data-name="Path 145" d="M548.554,492.741v30H473.4a15.008,15.008,0,1,1,0-30Z" transform="translate(-235.687 -173.771)" fill="#141414"/>
  <path id="Path_146" data-name="Path 146" d="M550.533,522.565a1.154,1.154,0,0,1-1.154,1.154H472.191a15.807,15.807,0,0,1,0-31.614h77.188a1.154,1.154,0,0,1,0,2.308H472.191a13.5,13.5,0,1,0,0,27h77.188A1.154,1.154,0,0,1,550.533,522.565Z" transform="translate(-235.82 -173.828)"/>
  <path id="Path_147" data-name="Path 147" d="M547.755,499.13H466.99a.231.231,0,1,1,0-.461h80.765a.231.231,0,0,1,0,.461Z" transform="translate(-234.888 -173.238)" fill="#ccc"/>
  <path id="Path_148" data-name="Path 148" d="M547.755,504.212H466.99a.231.231,0,1,1,0-.461h80.765a.231.231,0,0,1,0,.461Z" transform="translate(-234.888 -172.781)" fill="#ccc"/>
  <path id="Path_149" data-name="Path 149" d="M547.755,509.293H466.99a.231.231,0,0,1,0-.462h80.765a.231.231,0,0,1,0,.462Z" transform="translate(-234.888 -172.325)" fill="#ccc"/>
  <path id="Path_150" data-name="Path 150" d="M547.755,514.375H466.99a.231.231,0,1,1,0-.461h80.765a.231.231,0,0,1,0,.461Z" transform="translate(-234.888 -171.869)" fill="#ccc"/>
  <path id="Path_151" data-name="Path 151" d="M535.554,463.741v30H460.4a15.008,15.008,0,1,1,0-30Z" transform="translate(-236.854 -176.376)" fill="#141414"/>
  <path id="Path_152" data-name="Path 152" d="M537.533,493.565a1.154,1.154,0,0,1-1.154,1.154H459.191a15.807,15.807,0,1,1,0-31.614H536.38a1.154,1.154,0,1,1,0,2.308H459.191a13.5,13.5,0,0,0,0,27H536.38A1.154,1.154,0,0,1,537.533,493.565Z" transform="translate(-236.988 -176.433)" fill="#3f3d56"/>
  <path id="Path_153" data-name="Path 153" d="M534.755,470.13H453.99a.231.231,0,0,1,0-.461h80.765a.231.231,0,1,1,0,.461Z" transform="translate(-236.056 -175.843)" fill="#ccc"/>
  <path id="Path_154" data-name="Path 154" d="M534.755,475.212H453.99a.231.231,0,1,1,0-.461h80.765a.231.231,0,1,1,0,.461Z" transform="translate(-236.056 -175.386)" fill="#ccc"/>
  <path id="Path_155" data-name="Path 155" d="M534.755,480.293H453.99a.231.231,0,0,1,0-.461h80.765a.231.231,0,1,1,0,.461Z" transform="translate(-236.056 -174.93)" fill="#ccc"/>
  <path id="Path_156" data-name="Path 156" d="M534.755,485.375H453.99a.231.231,0,0,1,0-.461h80.765a.231.231,0,1,1,0,.462Z" transform="translate(-236.056 -174.474)" fill="#ccc"/>
  <path id="Path_157" data-name="Path 157" d="M617.2,620.62V594.464a4.359,4.359,0,0,0-4.359-4.359H513.662a4.359,4.359,0,0,0-4.359,4.359V620.62Z" transform="translate(-231.066 -165.024)"/>
  <rect id="Rectangle_68" data-name="Rectangle 68" width="107.893" height="33.785" transform="translate(278.237 465.404)"/>
  <path id="Path_158" data-name="Path 158" d="M509.3,667.1v26.156a4.359,4.359,0,0,0,4.359,4.359h99.174a4.359,4.359,0,0,0,4.359-4.359V667.1Z" transform="translate(-231.066 -158.107)"/>
  <circle id="Ellipse_31" data-name="Ellipse 31" cx="3.269" cy="3.269" r="3.269" transform="translate(328.369 438.158)" fill="#fff"/>
  <circle id="Ellipse_32" data-name="Ellipse 32" cx="3.269" cy="3.269" r="3.269" transform="translate(328.369 481.752)" fill="#fff"/>
  <circle id="Ellipse_33" data-name="Ellipse 33" cx="3.269" cy="3.269" r="3.269" transform="translate(328.544 524.422)" fill="#fff"/>
  <path id="Path_159" data-name="Path 159" d="M604.554,562.741v30H529.4a15.008,15.008,0,1,1,0-30Z" transform="translate(-230.656 -167.483)" fill="#141414"/>
  <path id="Path_160" data-name="Path 160" d="M606.533,592.565a1.154,1.154,0,0,1-1.154,1.154H528.191a15.807,15.807,0,1,1,0-31.614h77.188a1.154,1.154,0,1,1,0,2.307H528.191a13.5,13.5,0,1,0,0,27h77.188A1.154,1.154,0,0,1,606.533,592.565Z" transform="translate(-230.789 -167.54)" fill="#3f3d56"/>
  <path id="Path_161" data-name="Path 161" d="M603.755,569.13H522.99a.231.231,0,1,1,0-.461h80.765a.231.231,0,0,1,0,.461Z" transform="translate(-229.857 -166.95)" fill="#ccc"/>
  <path id="Path_162" data-name="Path 162" d="M603.755,574.212H522.99a.231.231,0,1,1,0-.461h80.765a.231.231,0,1,1,0,.461Z" transform="translate(-229.857 -166.493)" fill="#ccc"/>
  <path id="Path_163" data-name="Path 163" d="M603.755,579.294H522.99a.231.231,0,1,1,0-.462h80.765a.231.231,0,0,1,0,.462Z" transform="translate(-229.857 -166.037)" fill="#ccc"/>
  <path id="Path_164" data-name="Path 164" d="M603.755,584.375H522.99a.231.231,0,1,1,0-.461h80.765a.231.231,0,0,1,0,.461Z" transform="translate(-229.857 -165.58)" fill="#ccc"/>
  <path id="Path_165" data-name="Path 165" d="M504.11,399.524V208.259a8.206,8.206,0,0,1,8.2-8.2H663.5a8.206,8.206,0,0,1,8.2,8.2V399.524a8.206,8.206,0,0,1-8.2,8.2H512.307A8.206,8.206,0,0,1,504.11,399.524Zm8.2-197.641a6.383,6.383,0,0,0-6.376,6.376V399.524a6.383,6.383,0,0,0,6.376,6.376H663.5a6.383,6.383,0,0,0,6.375-6.376V208.259a6.383,6.383,0,0,0-6.375-6.376Z" transform="translate(-231.533 -200.062)" fill="#e6e6e6"/>
  <path id="Path_166" data-name="Path 166" d="M588.776,284.234V244.961a4.1,4.1,0,0,1,4.1-4.1h33.28a4.1,4.1,0,0,1,4.1,4.1v39.273a4.1,4.1,0,0,1-4.1,4.1h-33.28A4.1,4.1,0,0,1,588.776,284.234Z" transform="translate(-223.927 -196.396)" fill="#46a16e"/>
  <path id="Path_167" data-name="Path 167" d="M529.44,300.948V261.676a4.1,4.1,0,0,1,4.1-4.1h33.28a4.1,4.1,0,0,1,4.1,4.1v39.273a4.1,4.1,0,0,1-4.1,4.1h-33.28a4.1,4.1,0,0,1-4.1-4.1Z" transform="translate(-229.257 -194.895)" fill="#ccc"/>
  <path id="Path_168" data-name="Path 168" d="M577.076,351.927V312.654a4.1,4.1,0,0,1,4.1-4.1h33.28a4.1,4.1,0,0,1,4.1,4.1v39.273a4.1,4.1,0,0,1-4.1,4.1h-33.28a4.1,4.1,0,0,1-4.1-4.1Z" transform="translate(-224.978 -190.316)" fill="#fff"/>
  <path id="Path_169" data-name="Path 169" d="M763.254,513.1H729.012a2.116,2.116,0,0,0-.937.218l-8.643,4.327a1.575,1.575,0,0,0,0,2.9l8.643,4.327a2.114,2.114,0,0,0,.937.218h34.242a1.8,1.8,0,0,0,1.9-1.667v-8.653A1.8,1.8,0,0,0,763.254,513.1Z" transform="translate(-212.277 -171.941)" fill="#3f3d56"/>
  <path id="Path_170" data-name="Path 170" d="M762.022,514.772v8.653a1.8,1.8,0,0,1-1.9,1.667H753.3V513.1h6.822A1.8,1.8,0,0,1,762.022,514.772Z" transform="translate(-209.148 -171.941)" fill="#141414"/>
  <path id="Path_171" data-name="Path 171" d="M759.923,453.785a11.991,11.991,0,0,1,16.228,7.536,11.554,11.554,0,0,1,.349,1.564l47.885,23.745,11.082-7.344,13.788,15.874L832.334,508.9a12.15,12.15,0,0,1-14.5.559l-48.584-33.6a11.474,11.474,0,0,1-1.106.4,11.992,11.992,0,0,1-15.269-9.33,11.693,11.693,0,0,1-.177-1.46A12.027,12.027,0,0,1,759.923,453.785Z" transform="translate(-209.203 -177.358)" fill="#ffb8b8"/>
  <path id="Path_172" data-name="Path 172" d="M860.049,587.853H807.726c0,1.5-53.925,2.725-53.925,2.725a14.017,14.017,0,0,0-2.3,2.18,13.526,13.526,0,0,0-3.161,8.719v2.18a13.628,13.628,0,0,0,13.623,13.623h98.085a13.635,13.635,0,0,0,13.623-13.623v-2.18a13.642,13.642,0,0,0-13.623-13.623Z" transform="translate(-209.594 -165.226)" fill="#3f3d56"/>
  <rect id="Rectangle_69" data-name="Rectangle 69" width="14.168" height="91.546" transform="translate(607.708 543.057) rotate(180)" fill="#3f3d56"/>
  <path id="Path_173" data-name="Path 173" d="M761.618,699.027c0,1.531,21.469.592,47.953.592s47.952.939,47.952-.592-21.469-13.67-47.952-13.67S761.618,697.5,761.618,699.027Z" transform="translate(-208.401 -156.468)" fill="#3f3d56"/>
  <path id="Path_174" data-name="Path 174" d="M520.978,490.849h-13.36L501.261,456.2H520.98Z" transform="translate(45.028 40.98)" fill="#ffb8b8"/>
  <path id="Path_175" data-name="Path 175" d="M780.031,701.366H736.949v-.545a16.768,16.768,0,0,1,16.769-16.769h26.313Z" transform="translate(-210.617 -156.585)" fill="#2f2e41"/>
  <path id="Path_176" data-name="Path 176" d="M757.366,678.5,730.73,618.766a21.89,21.89,0,0,1,9.611-28.1l57.776-30.981,26.364-2.243,24.319-2.21.175.3c.224.379,5.453,9.411,1.919,19.314-2.681,7.512-9.655,13.379-20.727,17.439-25.845,9.476-55.7,17.576-67.337,20.617a3.761,3.761,0,0,0-2.41,1.918,3.812,3.812,0,0,0-.214,3.05l24.746,55.6a4.9,4.9,0,0,1-4.152,6.571l-18.491,1.346q-.235.023-.469.022a4.9,4.9,0,0,1-4.475-2.907Z" transform="translate(-211.344 -168.157)" fill="#2f2e41"/>
  <path id="Path_177" data-name="Path 177" d="M526.978,490.849h-13.36L507.261,456.2H526.98Z" transform="translate(45.567 40.98)" fill="#ffb8b8"/>
  <path id="Path_178" data-name="Path 178" d="M786.031,701.366H742.949v-.545a16.768,16.768,0,0,1,16.769-16.768h26.314Z" transform="translate(-210.078 -156.585)" fill="#2f2e41"/>
  <path id="Path_179" data-name="Path 179" d="M764.366,681.5,737.73,621.766a21.89,21.89,0,0,1,9.611-28.1l57.776-30.981,26.364-2.242,24.319-2.211.175.3c.224.379,5.453,9.41,1.919,19.313-2.681,7.512-9.655,13.379-20.727,17.439-25.845,9.476-55.7,17.576-67.337,20.618a3.761,3.761,0,0,0-2.41,1.918,3.813,3.813,0,0,0-.214,3.05l24.746,55.6a4.9,4.9,0,0,1-4.152,6.571l-18.491,1.346q-.235.022-.469.022A4.9,4.9,0,0,1,764.366,681.5Z" transform="translate(-210.715 -167.887)" fill="#2f2e41"/>
  <path id="Path_180" data-name="Path 180" d="M752.018,510.145a182.551,182.551,0,0,1-26.238-48.968,4.689,4.689,0,0,1,2.214-5.645l38.3-20.523a4.628,4.628,0,0,1,4.06-.165,4.707,4.707,0,0,1,2.682,3.143A111.521,111.521,0,0,0,797.5,483.641a4.707,4.707,0,0,1,1.132,3.974,4.628,4.628,0,0,1-2.386,3.289l-38.3,20.523A4.689,4.689,0,0,1,752.018,510.145Z" transform="translate(-211.643 -179.006)" fill="#ccc"/>
  <path id="Path_181" data-name="Path 181" d="M754.362,507.911a1.415,1.415,0,0,0,1.768.365l38.3-20.524a1.358,1.358,0,0,0,.711-.978,1.437,1.437,0,0,0-.354-1.229,114.8,114.8,0,0,1-25.182-47,1.437,1.437,0,0,0-.826-.975,1.359,1.359,0,0,0-1.21.05l-38.3,20.523a1.415,1.415,0,0,0-.675,1.675,179.278,179.278,0,0,0,25.769,48.091Z" transform="translate(-211.374 -178.737)" fill="#fff"/>
  <path id="Path_182" data-name="Path 182" d="M869.728,500.963l-30,11.4-7.324-20.343a12.172,12.172,0,0,1,5.451-14.712h0a12.171,12.171,0,0,1,15.544,3.035Z" transform="translate(-202.107 -175.299)" fill="#6c63ff"/>
  <path id="Path_183" data-name="Path 183" d="M796.91,581.609a5.448,5.448,0,0,1-2.271-3.868c-3.842-35.866-1.166-63.934,8.18-85.807a27.236,27.236,0,0,1,18.055-15.453l24.248-1.224.126.061a28.341,28.341,0,0,1,15.5,30.067c-7.8,20.558-14.33,41.962-9.349,59.228a5.582,5.582,0,0,1-.527,4.341,5.323,5.323,0,0,1-3.4,2.516l-46.185,10.987A5.41,5.41,0,0,1,796.91,581.609Z" transform="translate(-205.587 -175.341)" fill="#141414"/>
  <circle id="Ellipse_34" data-name="Ellipse 34" cx="26.767" cy="26.767" r="26.767" transform="translate(604.676 237.324)" fill="#ffb8b8"/>
  <path id="Path_184" data-name="Path 184" d="M767.384,462.45l-20.861,9.208a3.273,3.273,0,0,1-4.311-1.671l-.516-1.169a3.273,3.273,0,0,1,1.671-4.311l20.861-9.209a3.273,3.273,0,0,1,4.311,1.671l.516,1.169A3.273,3.273,0,0,1,767.384,462.45Z" transform="translate(-210.216 -177.159)" fill="#ccc"/>
  <path id="Path_185" data-name="Path 185" d="M774.384,475.45l-20.861,9.209a3.273,3.273,0,0,1-4.311-1.671l-.516-1.169a3.273,3.273,0,0,1,1.671-4.311l20.861-9.209a3.273,3.273,0,0,1,4.311,1.671l.516,1.169A3.273,3.273,0,0,1,774.384,475.45Z" transform="translate(-209.587 -175.991)" fill="#ccc"/>
  <path id="Path_186" data-name="Path 186" d="M792.146,530.562l-46.508-36.69a11.492,11.492,0,0,1-1.129.333,12.018,12.018,0,0,1-9.61-1.843,11.893,11.893,0,0,1-5.042-8.428,11.99,11.99,0,0,1,23.579-4.142,11.57,11.57,0,0,1,.249,1.583l46.3,26.709,11.521-6.633,12.763,16.709-17.889,12.75A11.925,11.925,0,0,1,792.146,530.562Z" transform="translate(-211.261 -175.764)" fill="#ffb8b8"/>
  <path id="Path_187" data-name="Path 187" d="M823.873,522.377l-26.536-18.045,12.471-17.663a12.171,12.171,0,0,1,15.18-3.967h0a12.172,12.172,0,0,1,6.424,14.476Z" transform="translate(-205.192 -174.779)" fill="#141414"/>
  <path id="Path_188" data-name="Path 188" d="M826.693,441.449c-6.88,4.709-15.913,9.549-22.94,4.534-4.614-3.292-6.068-9.389-4.2-14.74,3.365-9.622,12.609-13.858,21.448-17.1,11.492-4.221,24-7.579,35.868-4.556s22.348,14.509,20.206,26.562c-1.722,9.693-10.865,17.759-9.568,27.518,1.306,9.822,12.352,14.992,22.1,16.747s20.664,2.319,27.672,9.324c8.94,8.935,6.708,24.906-1.7,34.34s-21.107,13.71-33.407,16.617c-16.3,3.852-33.926,5.876-49.4-.516s-27.525-23.6-23.041-39.735c1.894-6.816,6.356-12.576,10.668-18.183s8.678-11.471,10.323-18.352c1.371-5.733.356-12.39-3.446-16.69a4.836,4.836,0,0,1-.648-5.652Z" transform="translate(-205.064 -181.345)" fill="#2f2e41"/>
  <path id="Path_189" data-name="Path 189" d="M369.218,567.309a42.572,42.572,0,0,1-41.11-7.242c-14.4-12.085-18.913-32-22.587-50.432L294.657,455.1,317.4,470.767c16.358,11.263,33.084,22.888,44.411,39.2s16.27,38.586,7.17,56.239" transform="translate(-250.348 -177.151)" fill="#46a16e"/>
  <path id="Path_190" data-name="Path 190" d="M363.974,627.619c2.3-16.77,4.669-33.755,3.055-50.7-1.434-15.053-6.027-29.756-15.376-41.811a69.555,69.555,0,0,0-17.845-16.17c-1.784-1.126-3.427,1.7-1.65,2.823a66.121,66.121,0,0,1,26.155,31.557c5.694,14.483,6.609,30.271,5.627,45.657-.593,9.3-1.851,18.547-3.118,27.779a1.694,1.694,0,0,0,1.142,2.011,1.645,1.645,0,0,0,2.011-1.142Z" transform="translate(-247.048 -171.441)" fill="#f2f2f2"/>
  <path id="Path_191" data-name="Path 191" d="M348.665,594.207A31.339,31.339,0,0,1,321.359,608.3c-13.822-.656-25.346-10.3-35.719-19.462l-30.682-27.09,20.307-.972c14.6-.7,29.583-1.351,43.492,3.153s26.737,15.341,29.28,29.738" transform="translate(-253.914 -167.704)" fill="#46a16e"/>
  <path id="Path_192" data-name="Path 192" d="M372.86,631.655c-11.081-19.607-23.934-41.4-46.9-48.363a52.331,52.331,0,0,0-19.727-2.037c-2.094.181-1.571,3.409.519,3.229a48.621,48.621,0,0,1,31.481,8.329c8.877,6.042,15.788,14.442,21.638,23.35,3.583,5.456,6.793,11.144,10,16.824,1.026,1.815,4.024.5,2.987-1.332Z" transform="translate(-249.428 -165.837)" fill="#f2f2f2"/>
  <path id="Path_193" data-name="Path 193" d="M387.817,648.994a23.73,23.73,0,0,0-14.541-19.875V617.783H354.264v11.693a23.717,23.717,0,0,0-13.75,19.518l-4.471,51.967h56.244Z" transform="translate(-246.63 -162.538)"/>
</svg>
