<svg xmlns="http://www.w3.org/2000/svg" width="430.31" height="346.689" viewBox="0 0 430.31 346.689">
  <g id="Group_90" data-name="Group 90" transform="translate(0 0)">
    <ellipse id="Ellipse_75" data-name="Ellipse 75" cx="212.6" cy="16.609" rx="212.6" ry="16.609" transform="translate(5.111 313.47)" fill="#3f3d56"/>
    <path id="Path_489" data-name="Path 489" d="M767.931,583.594l1.993,14.613-13.948,1.328,1.993-17.933Z" transform="translate(-369.628 -284.369)" fill="#a0616a"/>
    <path id="Path_490" data-name="Path 490" d="M816.428,303.812s1.328,17.934,1.328,18.6-9.3,46.495-9.3,46.495-13.284,25.24,0,24.576,9.3-23.911,9.3-23.911L831.7,331.045l-5.978-27.232Z" transform="translate(-483.882 -205.178)" fill="#a0616a"/>
    <path id="Path_491" data-name="Path 491" d="M691.685,583.594l-1.993,14.613,13.948,1.328L701.648,581.6Z" transform="translate(-337.22 -284.369)" fill="#a0616a"/>
    <path id="Path_492" data-name="Path 492" d="M838.673,425.4l-3.321,4.649s-1.993,19.926,0,26.568,5.978,37.2,5.978,39.188.664,3.321,0,3.985-2.657.664-1.328,1.993,1.328,5.314,1.328,5.314v3.321l8.635,49.151s-5.314,5.978-1.328,5.978,18.6,0,17.934-6.642l-1.328-.664s-1.993-43.838-1.328-45.83,0-5.978,0-5.978-1.328-1.993,0-2.657,1.328-5.978,1.328-5.978l5.978-40.517s5.314,27.232,8.635,29.889,2.657,9.3,2.657,9.3l2.657,58.45s-2.657,6.642,0,7.97,13.948,5.978,14.613-.664,3.985-64.428,3.985-67.084-.664-3.985,0-5.978-.664-1.993,0-1.993-1.328-1.993-1.328-3.321V451.308s.664-6.642,1.328-7.97-.664-2.657,0-4.649-1.328-8.635-1.328-8.635l-29.889-7.97Z" transform="translate(-499.486 -263.005)" fill="#2f2e41"/>
    <path id="Path_493" data-name="Path 493" d="M870.131,716.529s3.321-3.321-1.328-3.321a21.62,21.62,0,0,0-8.635,1.993l-3.321,11.956s-13.617,10.959,1.66,9.631,12.952-.332,12.952-.332,4.649-1.328,5.314-2.657-1.328-20.59-1.328-20.59S873.452,718.521,870.131,716.529Z" transform="translate(-507.696 -405.349)" fill="#2f2e41"/>
    <path id="Path_494" data-name="Path 494" d="M935.74,716.529s-3.321-3.321,1.328-3.321A21.62,21.62,0,0,1,945.7,715.2l3.321,11.956s13.616,10.959-1.66,9.631-14.945-.332-14.945-.332-4.649-1.328-5.314-2.657,3.321-20.59,3.321-20.59S932.419,718.521,935.74,716.529Z" transform="translate(-544.744 -405.349)" fill="#2f2e41"/>
    <circle id="Ellipse_76" data-name="Ellipse 76" cx="17.269" cy="17.269" r="17.269" transform="translate(330.553 11.624)" fill="#a0616a"/>
    <path id="Path_495" data-name="Path 495" d="M847.9,185.686s2.657,13.284,2.657,15.277,11.292,7.97,11.292,7.97l12.62-15.941s-7.97-11.292-7.97-13.948Z" transform="translate(-506.052 -144.173)" fill="#a0616a"/>
    <path id="Path_496" data-name="Path 496" d="M842.609,212.528s-5.789-1.541-7.544-4.091c0,0-18.36,18.04-18.36,21.361l14.613,25.9s0,9.3,1.328,9.963,0,0,0,2.657-3.985,19.926-2.657,22.583,2.657.664,1.328,4.649-4.649,25.24-4.649,25.24,11.956-3.985,29.225,2.657,37.86-2.657,37.86-2.657-5.314-11.956-3.985-15.941-3.321-11.291-3.321-11.291l-3.321-61.107s4.649-27.232,1.328-28.561l-6.642-2.657-21.27-2.614S851.244,211.864,842.609,212.528Z" transform="translate(-490.801 -153.746)" fill="#d0cde1"/>
    <path id="Path_497" data-name="Path 497" d="M821.935,250.526l-6.642,4.649s-3.321,9.963,0,14.613,4.649,11.292,4.649,11.292l13.284-1.328Z" transform="translate(-489.389 -179.124)" fill="#d0cde1"/>
    <path id="Path_498" data-name="Path 498" d="M828.239,121.454l-3-1.2s6.263-6.9,14.978-6.3l-2.451-2.7s5.991-2.4,11.438,3.9c2.863,3.31,6.176,7.2,8.241,11.583h3.208l-1.339,2.948L864,132.637l-4.81-.53a16.312,16.312,0,0,1-.455,7.635l.129,2.33s-5.575-8.626-5.575-9.826v3s-3-2.7-3-4.5l-1.634,2.1-.817-3.3-10.076,3.3,1.634-2.7-6.263.9,2.451-3.3s-7.08,3.9-7.353,7.2-3.812,7.5-3.812,7.5l-1.634-3S820.342,125.951,828.239,121.454Z" transform="translate(-493.602 -110.812)" fill="#2f2e41"/>
    <rect id="Rectangle_107" data-name="Rectangle 107" width="263.942" height="185.411" transform="translate(74.701 144.544)" fill="#f2f2f2"/>
    <rect id="Rectangle_108" data-name="Rectangle 108" width="66.273" height="115.69" transform="translate(96.919 215.286)" fill="#3f3d56"/>
    <rect id="Rectangle_109" data-name="Rectangle 109" width="17.852" height="16.642" transform="translate(109.178 222.227)" fill="#f2f2f2"/>
    <rect id="Rectangle_110" data-name="Rectangle 110" width="17.852" height="16.642" transform="translate(133.082 222.227)" fill="#f2f2f2"/>
    <rect id="Rectangle_111" data-name="Rectangle 111" width="17.852" height="17.247" transform="translate(109.178 244.92)" fill="#f2f2f2"/>
    <rect id="Rectangle_112" data-name="Rectangle 112" width="17.852" height="17.247" transform="translate(133.082 244.92)" fill="#f2f2f2"/>
    <circle id="Ellipse_77" data-name="Ellipse 77" cx="4.214" cy="4.214" r="4.214" transform="translate(150.551 276.706)" fill="#46a16e"/>
    <rect id="Rectangle_113" data-name="Rectangle 113" width="131.013" height="109.944" transform="translate(185.411 204.304)" fill="#3f3d56"/>
    <path id="Path_499" data-name="Path 499" d="M411.3,266.017H92.2l21.276-44.483,4.762-9.96,6.229-13.025,4.762-9.96,5.52-11.538H386.163l3.26,11.538,2.815,9.96,3.682,13.025,2.815,9.96Z" transform="translate(-45.08 -86.568)" fill="#3f3d56"/>
    <rect id="Rectangle_114" data-name="Rectangle 114" width="4.597" height="28.348" transform="translate(190.008 249.89)" fill="#46a16e"/>
    <rect id="Rectangle_115" data-name="Rectangle 115" width="4.597" height="3.448" transform="translate(190.008 254.105)" fill="#f2f2f2"/>
    <rect id="Rectangle_116" data-name="Rectangle 116" width="4.597" height="3.448" transform="translate(190.008 270.577)" fill="#f2f2f2"/>
    <rect id="Rectangle_117" data-name="Rectangle 117" width="11.109" height="28.348" transform="translate(196.903 249.89)" fill="#46a16e"/>
    <rect id="Rectangle_118" data-name="Rectangle 118" width="11.109" height="3.448" transform="translate(196.903 254.105)" fill="#f2f2f2"/>
    <rect id="Rectangle_119" data-name="Rectangle 119" width="11.109" height="3.448" transform="translate(196.903 270.577)" fill="#f2f2f2"/>
    <rect id="Rectangle_120" data-name="Rectangle 120" width="4.597" height="28.348" transform="translate(210.694 249.89)" fill="#46a16e"/>
    <rect id="Rectangle_121" data-name="Rectangle 121" width="4.597" height="3.448" transform="translate(210.694 254.105)" fill="#f2f2f2"/>
    <rect id="Rectangle_122" data-name="Rectangle 122" width="4.597" height="3.448" transform="translate(210.694 270.577)" fill="#f2f2f2"/>
    <rect id="Rectangle_123" data-name="Rectangle 123" width="4.597" height="28.348" transform="translate(217.59 249.89)" fill="#46a16e"/>
    <rect id="Rectangle_124" data-name="Rectangle 124" width="4.597" height="3.448" transform="translate(217.59 254.105)" fill="#f2f2f2"/>
    <rect id="Rectangle_125" data-name="Rectangle 125" width="4.597" height="3.448" transform="translate(217.59 270.577)" fill="#f2f2f2"/>
    <rect id="Rectangle_126" data-name="Rectangle 126" width="4.597" height="28.348" transform="translate(222.317 251.612) rotate(-20.654)" fill="#46a16e"/>
    <rect id="Rectangle_127" data-name="Rectangle 127" width="4.597" height="3.448" transform="translate(223.804 255.555) rotate(-20.654)" fill="#f2f2f2"/>
    <rect id="Rectangle_128" data-name="Rectangle 128" width="4.597" height="3.448" transform="translate(229.614 270.969) rotate(-20.654)" fill="#f2f2f2"/>
    <rect id="Rectangle_129" data-name="Rectangle 129" width="11.109" height="28.348" transform="translate(301.101 249.89)" fill="#46a16e"/>
    <rect id="Rectangle_130" data-name="Rectangle 130" width="11.109" height="3.448" transform="translate(301.101 254.105)" fill="#f2f2f2"/>
    <rect id="Rectangle_131" data-name="Rectangle 131" width="11.109" height="3.448" transform="translate(301.101 270.577)" fill="#f2f2f2"/>
    <rect id="Rectangle_132" data-name="Rectangle 132" width="4.597" height="28.348" transform="translate(293.823 249.89)" fill="#46a16e"/>
    <rect id="Rectangle_133" data-name="Rectangle 133" width="4.597" height="3.448" transform="translate(293.823 254.105)" fill="#f2f2f2"/>
    <rect id="Rectangle_134" data-name="Rectangle 134" width="4.597" height="3.448" transform="translate(293.823 270.577)" fill="#f2f2f2"/>
    <rect id="Rectangle_135" data-name="Rectangle 135" width="4.597" height="28.348" transform="translate(286.927 249.89)" fill="#46a16e"/>
    <rect id="Rectangle_136" data-name="Rectangle 136" width="4.597" height="3.448" transform="translate(286.927 254.105)" fill="#f2f2f2"/>
    <rect id="Rectangle_137" data-name="Rectangle 137" width="4.597" height="3.448" transform="translate(286.927 270.577)" fill="#f2f2f2"/>
    <rect id="Rectangle_138" data-name="Rectangle 138" width="28.348" height="4.597" transform="translate(272.501 276.517) rotate(-69.346)" fill="#46a16e"/>
    <rect id="Rectangle_139" data-name="Rectangle 139" width="3.448" height="4.597" transform="translate(279.798 257.16) rotate(-69.346)" fill="#f2f2f2"/>
    <rect id="Rectangle_140" data-name="Rectangle 140" width="3.448" height="4.597" transform="translate(273.987 272.574) rotate(-69.346)" fill="#f2f2f2"/>
    <rect id="Rectangle_141" data-name="Rectangle 141" width="131.013" height="2.682" transform="translate(185.411 278.239)" fill="#f2f2f2"/>
    <rect id="Rectangle_142" data-name="Rectangle 142" width="24.134" height="28.348" transform="translate(242.49 249.89)" fill="#46a16e"/>
    <rect id="Rectangle_143" data-name="Rectangle 143" width="12.259" height="5.363" transform="translate(248.428 256.02)" fill="#f2f2f2"/>
    <rect id="Rectangle_144" data-name="Rectangle 144" width="2.298" height="24.517" transform="translate(249.769 204.304)" fill="#f2f2f2"/>
    <circle id="Ellipse_78" data-name="Ellipse 78" cx="3.831" cy="3.831" r="3.831" transform="translate(247.087 224.99)" fill="#f2f2f2"/>
    <path id="Path_500" data-name="Path 500" d="M423.11,209.588H155.337l4.762-9.96h260.2Z" transform="translate(-75.951 -97.606)" fill="#46a16e"/>
    <path id="Path_501" data-name="Path 501" d="M419.092,254.563H133.831l4.762-9.96H416.276Z" transform="translate(-65.436 -119.597)" fill="#46a16e"/>
    <path id="Path_502" data-name="Path 502" d="M863.422,262.223s-3.846,9.891-3.043,19.676a10.37,10.37,0,0,0,1.714,4.9h0L814.972,309.17s-21.291,2.2-15.978,11.5,24.576-4.649,24.576-4.649,50.48-7.306,54.465-14.613,6.642-37.86,6.642-37.86Z" transform="translate(-481.725 -184.843)" fill="#a0616a"/>
    <path id="Path_503" data-name="Path 503" d="M925.328,208.937h9.963s7.306,1.328,9.3,14.613,3.985,16.605,1.993,16.605-25.9-.664-25.9-1.328S925.328,208.937,925.328,208.937Z" transform="translate(-541.638 -158.789)" fill="#d0cde1"/>
    <circle id="Ellipse_79" data-name="Ellipse 79" cx="51.106" cy="51.106" r="51.106" transform="translate(0 146.355)" fill="#46a16e"/>
    <circle id="Ellipse_80" data-name="Ellipse 80" cx="43.951" cy="43.951" r="43.951" transform="translate(7.155 153.51)" opacity="0.1"/>
    <path id="Path_504" data-name="Path 504" d="M266.718,498.187v-6.4a14.853,14.853,0,0,1-8.53-2.787l1.338-4.243a13.635,13.635,0,0,0,8.028,2.723c3.959,0,6.635-2.6,6.635-6.207,0-3.484-2.174-5.637-6.3-7.537-5.687-2.533-9.2-5.447-9.2-10.957a9.958,9.958,0,0,1,8.419-10.2v-6.4h3.457v6.144a13.564,13.564,0,0,1,7.248,2.217l-1.394,4.18a12.32,12.32,0,0,0-7.025-2.154c-4.293,0-5.91,2.913-5.91,5.447,0,3.293,2.063,4.94,6.913,7.22,5.742,2.66,8.642,5.954,8.642,11.59a10.6,10.6,0,0,1-8.809,10.767v6.587Z" transform="translate(-217.718 -274.791)" fill="#f2f2f2"/>
  </g>
</svg>
