<svg xmlns="http://www.w3.org/2000/svg" width="403.341" height="262.715" viewBox="0 0 403.341 262.715">
  <g id="Group_80" data-name="Group 80" transform="translate(-0.006 0.023)">
    <path id="Path_200" data-name="Path 200" d="M110.23,325.559,108,324.173c-.213-.131-.422-.273-.634-.408a21.218,21.218,0,0,0,2.144-41.34l.11,8.744-4.8-9.51h-.067a21.214,21.214,0,0,0-22.182,20.2c-.021.4,0,.8,0,1.205a25.377,25.377,0,0,1-4.193-6.192c-2.031-4.533-2.07-9.673-1.91-15.915.319-12.374.854-24.84,1.549-37.267a21.214,21.214,0,0,0,18.843-20.076c.028-.649.018-1.29,0-1.925a3.026,3.026,0,0,0-.025-.475c-.043-.617-.1-1.226-.195-1.829a1.614,1.614,0,0,0-.053-.291c-.085-.51-.191-1.014-.312-1.514-.046-.184-.092-.354-.142-.556-.149-.539-.312-1.063-.5-1.6-.064-.174-.138-.354-.206-.518-.149-.386-.312-.769-.486-1.145-.092-.2-.181-.4-.276-.592-.028-.05-.046-.1-.074-.152h0a21.2,21.2,0,0,0-24.925-10.754l.142,11.378-4.75-9.4a21.115,21.115,0,0,0-10.12,22.884H54.91c.032.152.078.294.113.447.067.28.138.556.216.833.1.354.213.709.33,1.063.089.259.174.521.273.78.145.376.308.741.471,1.106.1.213.181.432.284.642q.4.826.879,1.606c.11.184.234.354.354.535.227.354.454.709.709,1.039.152.209.315.408.475.613.234.294.471.585.709.865.174.2.354.393.535.588.262.273.528.539.8.8.181.174.354.354.556.518.312.276.638.542.968.8.167.128.33.266.5.393q.755.532,1.556,1.063c.1.064.209.113.308.174.45.262.9.51,1.372.741.2.1.408.184.613.276.383.174.769.354,1.166.489.23.089.464.17.709.252.39.131.787.252,1.187.354.234.064.471.131.709.188.432.1.876.188,1.322.266l.085.018q-.436,7.862-.78,15.734A21.2,21.2,0,0,0,41.891,250.1l3.75,10.279-7.724-7.444a21.147,21.147,0,0,0-6.855,14.65,20.711,20.711,0,0,0,.539,5.845,21.21,21.21,0,0,0,39.011,5.781c0,.532-.035,1.063-.05,1.6-.142,5.508-.319,12.363,2.428,18.485,1.861,4.147,4.852,7.514,7.8,10.534,1.925,1.967,3.92,3.867,5.965,5.707a21.229,21.229,0,0,0,7.663,6.38c3.36,2.591,6.841,5.026,10.439,7.273l2.247,1.4c2.02,1.251,4.09,2.538,6.118,3.874-.354-.035-.709-.074-1.063-.092a21.228,21.228,0,0,0-20.891,13.824l13.257,10.786L89.941,355.6A21.228,21.228,0,0,0,120.36,374.7q-.489.617-.985,1.226-.978,1.216-1.932,2.417c-8.627,10.924-11.027,21.3-6.756,29.207l5.2-2.807c-4.158-7.7,2.095-17.549,6.192-22.738q.936-1.187,1.9-2.375c5.519-6.866,11.764-14.621,11.612-24.149C135.357,341.133,121.409,332.5,110.23,325.559Z" transform="translate(-31.03 -158.176)" fill="#f2f2f2"/>
    <path id="Path_201" data-name="Path 201" d="M787.283,203.56l2.229-1.386c.213-.131.422-.273.634-.408a21.218,21.218,0,0,1-2.127-41.34l-.11,8.744,4.8-9.51h.06a21.214,21.214,0,0,1,22.182,20.2c.021.4,0,.8,0,1.205a25.375,25.375,0,0,0,4.193-6.192c2.031-4.533,2.07-9.673,1.911-15.915-.319-12.374-.854-24.84-1.549-37.267a21.214,21.214,0,0,1-18.843-20.076c-.028-.649-.018-1.29,0-1.925a3.029,3.029,0,0,1,.025-.475c.043-.617.1-1.226.195-1.829a1.616,1.616,0,0,1,.053-.291c.085-.51.191-1.014.312-1.514.046-.184.092-.354.142-.556.149-.539.312-1.063.5-1.6.064-.174.138-.354.206-.518.149-.386.312-.769.486-1.145.092-.2.181-.4.28-.592.025-.05.042-.1.071-.152h0A21.2,21.2,0,0,1,827.85,80.267l-.142,11.378,4.75-9.4a21.115,21.115,0,0,1,10.123,22.887h.021c-.032.152-.078.294-.113.447-.067.28-.138.556-.216.833-.1.354-.213.709-.33,1.063-.089.259-.174.521-.273.78-.145.376-.308.741-.471,1.106-.1.213-.181.432-.284.642q-.4.826-.879,1.606c-.11.184-.234.354-.354.535-.227.354-.454.709-.709,1.039-.152.209-.315.408-.475.613-.234.294-.471.585-.709.865-.174.2-.354.393-.535.588-.259.273-.528.539-.8.8-.181.174-.354.354-.556.518-.312.276-.638.542-.968.8-.167.128-.33.266-.5.393-.5.354-1.021.709-1.556,1.046-.1.064-.209.113-.308.174-.45.262-.9.51-1.372.741-.2.1-.408.184-.613.276-.383.174-.769.354-1.166.489-.23.089-.464.17-.709.252-.39.131-.787.252-1.187.354-.234.064-.471.131-.709.188-.432.1-.875.188-1.322.266H825.4q.436,7.865.78,15.734a21.2,21.2,0,0,1,29.444-9.216l-3.75,10.279,7.716-7.408a21.147,21.147,0,0,1,6.855,14.65,20.715,20.715,0,0,1-.539,5.845,21.21,21.21,0,0,1-39.011,5.781c0,.532.039,1.063.05,1.6.142,5.508.319,12.363-2.428,18.485-1.861,4.147-4.853,7.514-7.8,10.534-1.925,1.967-3.92,3.867-5.965,5.707a21.228,21.228,0,0,1-7.663,6.38c-3.36,2.591-6.841,5.026-10.439,7.273l-2.247,1.4c-2.02,1.251-4.09,2.538-6.118,3.874.354-.035.709-.074,1.063-.092a21.228,21.228,0,0,1,20.892,13.824l-13.257,10.786,14.582-3.381A21.228,21.228,0,0,1,777.145,252.7q.489.617.985,1.226.978,1.216,1.932,2.417c8.627,10.924,11.027,21.3,6.756,29.207l-5.2-2.807c4.158-7.7-2.095-17.549-6.192-22.738q-.936-1.187-1.9-2.375c-5.512-6.848-11.757-14.611-11.6-24.131C762.155,219.134,776.089,210.5,787.283,203.56Z" transform="translate(-502.851 -79.42)" fill="#f2f2f2"/>
    <ellipse id="Ellipse_35" data-name="Ellipse 35" cx="175.518" cy="11.697" rx="175.518" ry="11.697" transform="translate(52.311 239.298)" fill="#f2f2f2"/>
    <path id="Path_202" data-name="Path 202" d="M544.35,656.07l-63.16-.808.184-1.62,3.055-26.722H539.9l4.08,26.722.312,2.024Z" transform="translate(-310.626 -404.721)" fill="#2f2e41"/>
    <path id="Path_203" data-name="Path 203" d="M544.29,704.334H512.768l-31.578-.4.184-1.62h62.6Z" transform="translate(-310.626 -453.388)" opacity="0.1"/>
    <rect id="Rectangle_76" data-name="Rectangle 76" width="83.811" height="2.024" transform="translate(160.036 249.326)" fill="#3f3d56"/>
    <path id="Path_204" data-name="Path 204" d="M499.194,243.886a5.271,5.271,0,0,0-5.246-5.3H259.9a5.271,5.271,0,0,0-5.246,5.3V385.759H499.194Z" transform="translate(-175.383 -182.186)" fill="#3f3d56"/>
    <path id="Path_205" data-name="Path 205" d="M254.65,649.8v16.617a5.246,5.246,0,0,0,5.246,5.246H493.949a5.246,5.246,0,0,0,5.246-5.246V649.8Z" transform="translate(-175.383 -447.641)" fill="#3f3d56"/>
    <rect id="Rectangle_77" data-name="Rectangle 77" width="225.514" height="127.536" transform="translate(89.387 65.311)" fill="#2f2e41"/>
    <path id="Path_206" data-name="Path 206" d="M593.066,673.8a5.459,5.459,0,0,0,4.3-2.088h0a5.409,5.409,0,0,0,.425-.627l-3-.493,3.243.025a5.5,5.5,0,0,0,.106-4.331l-4.353,2.258,4.012-2.949a5.466,5.466,0,1,0-9.028,6.118h0A5.459,5.459,0,0,0,593.066,673.8Z" transform="translate(-390.325 -456.081)" fill="#46a16e"/>
    <path id="Path_207" data-name="Path 207" d="M587.42,632.06l25.2,25.3-3.867-25.3Z" transform="translate(-379.203 -408.039)" opacity="0.1"/>
    <path id="Path_208" data-name="Path 208" d="M766.412,738.266l6.788-3.97a16.431,16.431,0,0,0-3.47-4.151l-12.8,3.98,10.027-5.9a16.3,16.3,0,0,0-24.138,14.3c0,9.007,7.3,9.319,16.3,9.319s16.3-.312,16.3-9.319a16.272,16.272,0,0,0-1.4-6.614Z" transform="translate(-490.52 -496.976)" fill="#57b894"/>
    <path id="Path_209" data-name="Path 209" d="M768.116,766.019a12.835,12.835,0,0,0-2.407-1.889,11.222,11.222,0,0,0-3.959-1.932,29.082,29.082,0,0,0-3.9-.11,9.091,9.091,0,0,1-5.958-2.733,18.636,18.636,0,0,0-2.772-2.868,6.083,6.083,0,0,0-4.147-.762,11.151,11.151,0,0,0-1.23.255,16.233,16.233,0,0,0-.964,5.529c0,9.007,7.3,9.319,16.3,9.319,4.37,0,8.34-.074,11.268-1.18l-.489-.915a12.788,12.788,0,0,0-1.747-2.715Z" transform="translate(-490.494 -515.974)" opacity="0.1"/>
    <rect id="Rectangle_78" data-name="Rectangle 78" width="7.497" height="2.276" transform="translate(99.403 114.513)" fill="#46a16e" opacity="0.3"/>
    <rect id="Rectangle_79" data-name="Rectangle 79" width="7.497" height="2.276" transform="translate(299.439 114.58)" fill="#46a16e" opacity="0.3"/>
    <rect id="Rectangle_80" data-name="Rectangle 80" width="7.497" height="2.276" transform="translate(99.471 130.509)" fill="#46a16e" opacity="0.3"/>
    <rect id="Rectangle_81" data-name="Rectangle 81" width="7.497" height="2.276" transform="translate(99.538 146.506)" fill="#46a16e" opacity="0.3"/>
    <rect id="Rectangle_82" data-name="Rectangle 82" width="7.497" height="2.276" transform="translate(99.605 162.499)" fill="#46a16e" opacity="0.3"/>
    <g id="Group_75" data-name="Group 75" transform="translate(106.9 115.608)" opacity="0.2">
      <rect id="Rectangle_83" data-name="Rectangle 83" width="2.127" height="0.089" fill="#f2f2f2"/>
      <path id="Path_210" data-name="Path 210" d="M530.2,405.709H526.02v-.089H530.2Zm-8.362,0h-4.179v-.089h4.179Zm-8.362,0h-4.183v-.089h4.183Zm-8.362,0h-4.182v-.089h4.182Zm-8.362,0h-4.183v-.089h4.183Zm-8.365,0h-4.179v-.089h4.179Zm-8.362,0h-4.183v-.089h4.183Zm-8.362,0h-4.182v-.089h4.183Zm-8.362,0h-4.183v-.089H463.3Zm-8.365,0h-4.179v-.089h4.179Zm-8.362,0h-4.182v-.089h4.182Zm-8.362,0h-4.183v-.089h4.183Zm-8.362,0h-4.183v-.089h4.183Zm-8.365,0H417.31v-.089h4.179Zm-8.362,0h-4.179v-.089h4.179Zm-8.362,0H400.6v-.089h4.183Zm-8.362,0h-4.183v-.089H396.4Zm-8.365,0H383.86v-.089h4.179Zm-8.362,0H375.5v-.089h4.186Zm-8.362,0h-4.183v-.089h4.183Zm-8.362,0h-4.182v-.089h4.183Zm-8.365,0H350.41v-.089h4.179Z" transform="translate(-344.101 -405.62)" fill="#f2f2f2"/>
      <rect id="Rectangle_84" data-name="Rectangle 84" width="2.127" height="0.089" transform="translate(190.281)" fill="#f2f2f2"/>
      <rect id="Rectangle_85" data-name="Rectangle 85" width="2.127" height="0.089" fill="#f2f2f2"/>
      <path id="Path_211" data-name="Path 211" d="M530.2,405.709H526.02v-.089H530.2Zm-8.362,0h-4.179v-.089h4.179Zm-8.362,0h-4.183v-.089h4.183Zm-8.362,0h-4.182v-.089h4.182Zm-8.362,0h-4.183v-.089h4.183Zm-8.365,0h-4.179v-.089h4.179Zm-8.362,0h-4.183v-.089h4.183Zm-8.362,0h-4.182v-.089h4.183Zm-8.362,0h-4.183v-.089H463.3Zm-8.365,0h-4.179v-.089h4.179Zm-8.362,0h-4.182v-.089h4.182Zm-8.362,0h-4.183v-.089h4.183Zm-8.362,0h-4.183v-.089h4.183Zm-8.365,0H417.31v-.089h4.179Zm-8.362,0h-4.179v-.089h4.179Zm-8.362,0H400.6v-.089h4.183Zm-8.362,0h-4.183v-.089H396.4Zm-8.365,0H383.86v-.089h4.179Zm-8.362,0H375.5v-.089h4.186Zm-8.362,0h-4.183v-.089h4.183Zm-8.362,0h-4.182v-.089h4.183Zm-8.365,0H350.41v-.089h4.179Z" transform="translate(-344.101 -405.62)" fill="#f2f2f2"/>
      <rect id="Rectangle_86" data-name="Rectangle 86" width="2.127" height="0.089" transform="translate(190.281)" fill="#f2f2f2"/>
    </g>
    <rect id="Rectangle_87" data-name="Rectangle 87" width="7.497" height="2.276" transform="translate(99.403 98.562)" fill="#46a16e" opacity="0.3"/>
    <rect id="Rectangle_88" data-name="Rectangle 88" width="7.497" height="2.276" transform="translate(299.439 98.63)" fill="#46a16e" opacity="0.3"/>
    <g id="Group_76" data-name="Group 76" transform="translate(106.9 99.658)" opacity="0.2">
      <rect id="Rectangle_89" data-name="Rectangle 89" width="2.127" height="0.089" fill="#f2f2f2"/>
      <path id="Path_212" data-name="Path 212" d="M530.2,360.709H526.02v-.089H530.2Zm-8.362,0h-4.179v-.089h4.179Zm-8.362,0h-4.183v-.089h4.183Zm-8.362,0h-4.182v-.089h4.182Zm-8.362,0h-4.183v-.089h4.183Zm-8.365,0h-4.179v-.089h4.179Zm-8.362,0h-4.183v-.089h4.183Zm-8.362,0h-4.182v-.089h4.183Zm-8.362,0h-4.183v-.089H463.3Zm-8.365,0h-4.179v-.089h4.179Zm-8.362,0h-4.182v-.089h4.182Zm-8.362,0h-4.183v-.089h4.183Zm-8.362,0h-4.183v-.089h4.183Zm-8.365,0H417.31v-.089h4.179Zm-8.362,0h-4.179v-.089h4.179Zm-8.362,0H400.6v-.089h4.183Zm-8.362,0h-4.183v-.089H396.4Zm-8.365,0H383.86v-.089h4.179Zm-8.362,0H375.5v-.089h4.186Zm-8.362,0h-4.183v-.089h4.183Zm-8.362,0h-4.182v-.089h4.183Zm-8.365,0H350.41v-.089h4.179Z" transform="translate(-344.101 -360.62)" fill="#f2f2f2"/>
      <rect id="Rectangle_90" data-name="Rectangle 90" width="2.127" height="0.089" transform="translate(190.281)" fill="#f2f2f2"/>
    </g>
    <rect id="Rectangle_91" data-name="Rectangle 91" width="7.497" height="2.276" transform="translate(299.439 130.509)" fill="#46a16e" opacity="0.3"/>
    <g id="Group_77" data-name="Group 77" transform="translate(106.9 131.534)" opacity="0.2">
      <rect id="Rectangle_92" data-name="Rectangle 92" width="2.127" height="0.089" transform="translate(0 0.004)" fill="#f2f2f2"/>
      <path id="Path_213" data-name="Path 213" d="M530.2,450.639H526.02v-.089H530.2Zm-8.362,0h-4.179v-.089h4.179Zm-8.362,0h-4.183v-.089h4.183Zm-8.362,0h-4.182v-.089h4.182Zm-8.362,0h-4.183v-.089h4.183Zm-8.365,0h-4.179v-.089h4.179Zm-8.362,0h-4.183v-.089h4.183Zm-8.362,0h-4.182v-.089h4.183Zm-8.362,0h-4.183v-.089H463.3Zm-8.365,0h-4.179v-.089h4.179Zm-8.362,0h-4.182v-.089h4.182Zm-8.362,0h-4.183v-.089h4.183Zm-8.362,0h-4.183v-.089h4.183Zm-8.365,0H417.31v-.089h4.179Zm-8.362,0h-4.179v-.089h4.179Zm-8.362,0H400.6v-.089h4.183Zm-8.362,0h-4.183v-.089H396.4Zm-8.365,0H383.86v-.089h4.179Zm-8.362,0H375.5v-.089h4.186Zm-8.362,0h-4.183v-.089h4.183Zm-8.362,0h-4.182v-.089h4.183Zm-8.365,0H350.41v-.089h4.179Z" transform="translate(-344.101 -450.55)" fill="#f2f2f2"/>
      <rect id="Rectangle_93" data-name="Rectangle 93" width="2.127" height="0.089" transform="translate(190.281 0.004)" fill="#f2f2f2"/>
      <rect id="Rectangle_94" data-name="Rectangle 94" width="2.127" height="0.089" transform="translate(0 0.004)" fill="#f2f2f2"/>
      <path id="Path_214" data-name="Path 214" d="M530.2,450.639H526.02v-.089H530.2Zm-8.362,0h-4.179v-.089h4.179Zm-8.362,0h-4.183v-.089h4.183Zm-8.362,0h-4.182v-.089h4.182Zm-8.362,0h-4.183v-.089h4.183Zm-8.365,0h-4.179v-.089h4.179Zm-8.362,0h-4.183v-.089h4.183Zm-8.362,0h-4.182v-.089h4.183Zm-8.362,0h-4.183v-.089H463.3Zm-8.365,0h-4.179v-.089h4.179Zm-8.362,0h-4.182v-.089h4.182Zm-8.362,0h-4.183v-.089h4.183Zm-8.362,0h-4.183v-.089h4.183Zm-8.365,0H417.31v-.089h4.179Zm-8.362,0h-4.179v-.089h4.179Zm-8.362,0H400.6v-.089h4.183Zm-8.362,0h-4.183v-.089H396.4Zm-8.365,0H383.86v-.089h4.179Zm-8.362,0H375.5v-.089h4.186Zm-8.362,0h-4.183v-.089h4.183Zm-8.362,0h-4.182v-.089h4.183Zm-8.365,0H350.41v-.089h4.179Z" transform="translate(-344.101 -450.55)" fill="#f2f2f2"/>
      <rect id="Rectangle_95" data-name="Rectangle 95" width="2.127" height="0.089" transform="translate(190.281 0.004)" fill="#f2f2f2"/>
    </g>
    <rect id="Rectangle_96" data-name="Rectangle 96" width="7.497" height="2.276" transform="translate(299.439 146.438)" fill="#46a16e" opacity="0.3"/>
    <g id="Group_78" data-name="Group 78" transform="translate(106.9 147.463)" opacity="0.2">
      <rect id="Rectangle_97" data-name="Rectangle 97" width="2.127" height="0.089" fill="#f2f2f2"/>
      <path id="Path_215" data-name="Path 215" d="M530.2,495.579H526.02v-.089H530.2Zm-8.362,0h-4.179v-.089h4.179Zm-8.362,0h-4.183v-.089h4.183Zm-8.362,0h-4.182v-.089h4.182Zm-8.362,0h-4.183v-.089h4.183Zm-8.365,0h-4.179v-.089h4.179Zm-8.362,0h-4.183v-.089h4.183Zm-8.362,0h-4.182v-.089h4.183Zm-8.362,0h-4.183v-.089H463.3Zm-8.365,0h-4.179v-.089h4.179Zm-8.362,0h-4.182v-.089h4.182Zm-8.362,0h-4.183v-.089h4.183Zm-8.362,0h-4.183v-.089h4.183Zm-8.365,0H417.31v-.089h4.179Zm-8.362,0h-4.179v-.089h4.179Zm-8.362,0H400.6v-.089h4.183Zm-8.362,0h-4.183v-.089H396.4Zm-8.365,0H383.86v-.089h4.179Zm-8.362,0H375.5v-.089h4.186Zm-8.362,0h-4.183v-.089h4.183Zm-8.362,0h-4.182v-.089h4.183Zm-8.365,0H350.41v-.089h4.179Z" transform="translate(-344.101 -495.49)" fill="#f2f2f2"/>
      <rect id="Rectangle_98" data-name="Rectangle 98" width="2.127" height="0.089" transform="translate(190.281)" fill="#f2f2f2"/>
      <rect id="Rectangle_99" data-name="Rectangle 99" width="2.127" height="0.089" fill="#f2f2f2"/>
      <path id="Path_216" data-name="Path 216" d="M530.2,495.579H526.02v-.089H530.2Zm-8.362,0h-4.179v-.089h4.179Zm-8.362,0h-4.183v-.089h4.183Zm-8.362,0h-4.182v-.089h4.182Zm-8.362,0h-4.183v-.089h4.183Zm-8.365,0h-4.179v-.089h4.179Zm-8.362,0h-4.183v-.089h4.183Zm-8.362,0h-4.182v-.089h4.183Zm-8.362,0h-4.183v-.089H463.3Zm-8.365,0h-4.179v-.089h4.179Zm-8.362,0h-4.182v-.089h4.182Zm-8.362,0h-4.183v-.089h4.183Zm-8.362,0h-4.183v-.089h4.183Zm-8.365,0H417.31v-.089h4.179Zm-8.362,0h-4.179v-.089h4.179Zm-8.362,0H400.6v-.089h4.183Zm-8.362,0h-4.183v-.089H396.4Zm-8.365,0H383.86v-.089h4.179Zm-8.362,0H375.5v-.089h4.186Zm-8.362,0h-4.183v-.089h4.183Zm-8.362,0h-4.182v-.089h4.183Zm-8.365,0H350.41v-.089h4.179Z" transform="translate(-344.101 -495.49)" fill="#f2f2f2"/>
      <rect id="Rectangle_100" data-name="Rectangle 100" width="2.127" height="0.089" transform="translate(190.281)" fill="#f2f2f2"/>
    </g>
    <rect id="Rectangle_101" data-name="Rectangle 101" width="7.497" height="2.276" transform="translate(299.439 162.364)" fill="#46a16e" opacity="0.3"/>
    <g id="Group_79" data-name="Group 79" transform="translate(106.9 163.392)" opacity="0.2">
      <rect id="Rectangle_102" data-name="Rectangle 102" width="2.127" height="0.089" fill="#f2f2f2"/>
      <path id="Path_217" data-name="Path 217" d="M530.2,540.519H526.02v-.089H530.2Zm-8.362,0h-4.179v-.089h4.179Zm-8.362,0h-4.183v-.089h4.183Zm-8.362,0h-4.182v-.089h4.182Zm-8.362,0h-4.183v-.089h4.183Zm-8.365,0h-4.179v-.089h4.179Zm-8.362,0h-4.183v-.089h4.183Zm-8.362,0h-4.182v-.089h4.183Zm-8.362,0h-4.183v-.089H463.3Zm-8.365,0h-4.179v-.089h4.179Zm-8.362,0h-4.182v-.089h4.182Zm-8.362,0h-4.183v-.089h4.183Zm-8.362,0h-4.183v-.089h4.183Zm-8.365,0H417.31v-.089h4.179Zm-8.362,0h-4.179v-.089h4.179Zm-8.362,0H400.6v-.089h4.183Zm-8.362,0h-4.183v-.089H396.4Zm-8.365,0H383.86v-.089h4.179Zm-8.362,0H375.5v-.089h4.186Zm-8.362,0h-4.183v-.089h4.183Zm-8.362,0h-4.182v-.089h4.183Zm-8.365,0H350.41v-.089h4.179Z" transform="translate(-344.101 -540.43)" fill="#f2f2f2"/>
      <rect id="Rectangle_103" data-name="Rectangle 103" width="2.127" height="0.089" transform="translate(190.281)" fill="#f2f2f2"/>
      <rect id="Rectangle_104" data-name="Rectangle 104" width="2.127" height="0.089" fill="#f2f2f2"/>
      <path id="Path_218" data-name="Path 218" d="M530.2,540.519H526.02v-.089H530.2Zm-8.362,0h-4.179v-.089h4.179Zm-8.362,0h-4.183v-.089h4.183Zm-8.362,0h-4.182v-.089h4.182Zm-8.362,0h-4.183v-.089h4.183Zm-8.365,0h-4.179v-.089h4.179Zm-8.362,0h-4.183v-.089h4.183Zm-8.362,0h-4.182v-.089h4.183Zm-8.362,0h-4.183v-.089H463.3Zm-8.365,0h-4.179v-.089h4.179Zm-8.362,0h-4.182v-.089h4.182Zm-8.362,0h-4.183v-.089h4.183Zm-8.362,0h-4.183v-.089h4.183Zm-8.365,0H417.31v-.089h4.179Zm-8.362,0h-4.179v-.089h4.179Zm-8.362,0H400.6v-.089h4.183Zm-8.362,0h-4.183v-.089H396.4Zm-8.365,0H383.86v-.089h4.179Zm-8.362,0H375.5v-.089h4.186Zm-8.362,0h-4.183v-.089h4.183Zm-8.362,0h-4.182v-.089h4.183Zm-8.365,0H350.41v-.089h4.179Z" transform="translate(-344.101 -540.43)" fill="#f2f2f2"/>
      <rect id="Rectangle_105" data-name="Rectangle 105" width="2.127" height="0.089" transform="translate(190.281)" fill="#f2f2f2"/>
    </g>
    <line id="Line_1" data-name="Line 1" y2="63.869" transform="translate(131.34 99.768)" fill="none" stroke="#f2f2f2" stroke-miterlimit="10" stroke-width="0.1"/>
    <line id="Line_2" data-name="Line 2" y2="63.869" transform="translate(157.215 99.768)" fill="none" stroke="#f2f2f2" stroke-miterlimit="10" stroke-width="0.1"/>
    <line id="Line_3" data-name="Line 3" y2="63.869" transform="translate(183.09 99.768)" fill="none" stroke="#f2f2f2" stroke-miterlimit="10" stroke-width="0.1"/>
    <line id="Line_4" data-name="Line 4" y2="63.869" transform="translate(208.965 99.768)" fill="none" stroke="#f2f2f2" stroke-miterlimit="10" stroke-width="0.1"/>
    <line id="Line_5" data-name="Line 5" y2="63.869" transform="translate(234.84 99.768)" fill="none" stroke="#f2f2f2" stroke-miterlimit="10" stroke-width="0.1"/>
    <line id="Line_6" data-name="Line 6" y2="63.869" transform="translate(260.715 99.768)" fill="none" stroke="#f2f2f2" stroke-miterlimit="10" stroke-width="0.1"/>
    <line id="Line_7" data-name="Line 7" y2="63.869" transform="translate(286.59 99.768)" fill="none" stroke="#f2f2f2" stroke-miterlimit="10" stroke-width="0.1"/>
    <path id="Path_219" data-name="Path 219" d="M523.384,348.3l-2.96,3.084a.907.907,0,0,0-.149.216l-1.836,3.782a.836.836,0,0,1-.819.471l-.588-.046a.837.837,0,0,1-.744-.6l-.567-1.964a.84.84,0,0,0-1.6-.039L513.165,356a.84.84,0,0,1-.8.571h-3.64a.844.844,0,0,1-.83-.709l-1.028-6.433a.84.84,0,0,0-1.581-.248l-5.271,10.4a.84.84,0,0,1-1.233.308l-3.133-2.212a.847.847,0,0,0-1.124.135l-1.187,1.372a.8.8,0,0,0-.092.131L490.08,364.8a.833.833,0,0,1-.812.415l-1.932-.191a.846.846,0,0,0-.4.057l-1.73.691a.84.84,0,0,1-1.063-.443l-.379-.868a.844.844,0,0,0-.808-.5l-1.978.092a.829.829,0,0,0-.627.33l-.56.73a.84.84,0,0,1-1.46-.234l-.709-2a.84.84,0,0,0-1.3-.393L472.96,365l-3.722,3a.844.844,0,0,1-.915.092l-2.889-1.5a.847.847,0,0,0-.5-.085l-5.852.819a.844.844,0,0,0-.709.645l-1.038,4.512a.84.84,0,0,1-1.365.45h0a.844.844,0,0,0-1.3.262l-.8,1.6a.851.851,0,0,1-.613.454l-1.811.3a.843.843,0,0,0-.326.131l-2.853,1.9a.833.833,0,0,1-.464.142h-1.336a.84.84,0,0,1-.773-.507l-.354-.847a.84.84,0,0,0-1.127-.422l-3.1,1.45a.844.844,0,0,1-.79-.039l-1.418-.854a.847.847,0,0,0-.432-.12h-3.13a.84.84,0,0,0-.464.142l-3.123,2.074a.84.84,0,0,1-.822.06l-1.418-.67a.84.84,0,0,0-.989.209l-.673.769a.837.837,0,0,1-1.365-.142l-.2-.354a.84.84,0,0,0-1.163-.312l-2.456,1.457a.84.84,0,0,1-.836,0l-1.014-.564a.833.833,0,0,0-.755-.032l-.964.44a.847.847,0,0,1-1.152-.51l-.624-1.857a.833.833,0,0,0-.8-.585h-.907a.822.822,0,0,1-.408-.106l-3.484-1.91a.844.844,0,0,0-.907.067l-2.556,1.914a.833.833,0,0,1-.5.167h-3.215a.833.833,0,0,0-.464.142l-.6.4a.84.84,0,0,1-1.219-.323l-.145-.287a.837.837,0,0,0-.751-.468h-1.613a.84.84,0,0,0-.663.326l-1,1.28a.84.84,0,0,1-1.372-.067l-.284-.443a.837.837,0,0,0-1.141-.269l-.829.5a.844.844,0,0,1-.925-.039l-3.342-2.421a1.016,1.016,0,0,0-.191-.106l-2.612-1a.84.84,0,0,0-1.063.468l-1.818,4.431a.757.757,0,0,0-.053.195l-.588,3.991a.844.844,0,0,1-.22.45l-1.244,1.336a.847.847,0,0,1-1.024.16l-2.159-1.2a.84.84,0,0,0-1.205.461l-1.368,4a.806.806,0,0,0-.046.273v2.524a.84.84,0,0,1-.507.769l-2.194.971a.84.84,0,0,1-.762-.05l-1.652-.971a.84.84,0,0,0-.546-.106l-2.9.415a.837.837,0,0,1-.844-.411l-.489-.837a.833.833,0,0,0-.475-.376l-1.315-.411a.837.837,0,0,0-.876.237l-1.825,2.027a.851.851,0,0,1-.557.277l-2.694.227a.793.793,0,0,0-.354.106l-4.7,2.7a.844.844,0,0,1-.943-.074l-1.333-1.063a.85.85,0,0,0-.525-.184h-5.047a.833.833,0,0,1-.656-.315l-1.273-1.588a.84.84,0,0,0-1.28-.035l-1.531,1.7a.84.84,0,0,0-.216.56v21.14a.84.84,0,0,0,.84.84H524.044a.84.84,0,0,0,.84-.844l-.05-66.754a.844.844,0,0,0-1.45-.6Z" transform="translate(-231.197 -252.845)" fill="#46a16e" opacity="0.3"/>
    <path id="Path_220" data-name="Path 220" d="M523.234,425.685l-2.743,1.829a1.065,1.065,0,0,0-.252.238l-1.7,2.251a1.063,1.063,0,0,1-.879.411l-.557-.028a1.042,1.042,0,0,1-.9-.61l-.354-.755a1.035,1.035,0,0,0-1.861-.06l-.709,1.357a1.035,1.035,0,0,1-.918.549h-3.516a1.031,1.031,0,0,1-1.007-.787l-.844-3.378a1.039,1.039,0,0,0-1.822-.393l-5.069,6.409a1.031,1.031,0,0,1-1.241.3l-3.257-1.471a1.039,1.039,0,0,0-1.063.11l-1.166.861a.965.965,0,0,0-.152.142l-3.077,3.406a1.039,1.039,0,0,1-.837.354l-2.01-.128a1.121,1.121,0,0,0-.326.028l-1.811.464a1.035,1.035,0,0,1-1.117-.418l-.206-.3a1.038,1.038,0,0,0-.886-.45l-2.02.06a1,1,0,0,0-.634.241l-.5.415a1.039,1.039,0,0,1-1.577-.294l-.525-.95a1.039,1.039,0,0,0-1.358-.436l-3.4,1.634-3.761,1.942a1.031,1.031,0,0,1-.8.06l-3-.992a1.064,1.064,0,0,0-.418-.05l-5.8.493a1.064,1.064,0,0,0-.886.684l-.84,2.346a1.039,1.039,0,0,1-1.475.56l-.035-.018a1.031,1.031,0,0,0-1.315.269l-.659.844a1.063,1.063,0,0,1-.709.393l-1.815.195a1.065,1.065,0,0,0-.3.074l-2.875,1.23a1.085,1.085,0,0,1-.408.081h-1.382a1.038,1.038,0,0,1-.858-.454l-.2-.291a1.039,1.039,0,0,0-1.156-.408l-3.222.975a1.042,1.042,0,0,1-.673-.025l-1.5-.574a1.021,1.021,0,0,0-.354-.071H435.3a1,1,0,0,0-.4.085l-3.19,1.354a1.028,1.028,0,0,1-.709.039l-1.577-.471a1.042,1.042,0,0,0-.911.156l-.691.507a1.039,1.039,0,0,1-1.393-.152l-.1-.117a1.039,1.039,0,0,0-1.148-.287l-2.57.982a1.035,1.035,0,0,1-.709,0l-1.127-.4a1.063,1.063,0,0,0-.638-.018l-1.063.308a1.039,1.039,0,0,1-1.216-.532l-.4-.8a1.042,1.042,0,0,0-.929-.574h-.922a1.03,1.03,0,0,1-.354-.057l-3.576-1.255a1.028,1.028,0,0,0-.794.043l-2.612,1.255a1.063,1.063,0,0,1-.45.1h-3.3a1.084,1.084,0,0,0-.408.082l-.673.291a1.042,1.042,0,0,1-1.226-.315h0a1.035,1.035,0,0,0-.819-.4h-1.666a1.043,1.043,0,0,0-.659.234l-.968.794a1.032,1.032,0,0,1-1.393-.071l-.22-.22a1.039,1.039,0,0,0-1.109-.237l-.964.372a1.064,1.064,0,0,1-.812-.028l-3.392-1.574a.842.842,0,0,0-.188-.064l-2.662-.656a1.031,1.031,0,0,0-1.12.447l-1.673,2.609a1.063,1.063,0,0,0-.138.326l-.507,2.215a1.063,1.063,0,0,1-.425.624l-1.106.759a1.028,1.028,0,0,1-.932.12l-2.276-.808a1.038,1.038,0,0,0-1.272.51l-1.2,2.24a1.064,1.064,0,0,0-.12.489v1.01a1.042,1.042,0,0,1-.762,1l-1.992.553a1.021,1.021,0,0,1-.642-.028l-1.737-.656a1.021,1.021,0,0,0-.461-.064l-3,.273a1.028,1.028,0,0,1-.861-.333l-.354-.393a1.006,1.006,0,0,0-.564-.319l-1.365-.276a1.064,1.064,0,0,0-.808.174l-1.8,1.28a1.063,1.063,0,0,1-.546.191l-2.754.145a1.087,1.087,0,0,0-.3.064l-4.782,1.772a1.014,1.014,0,0,1-.829-.05l-1.382-.709a1.039,1.039,0,0,0-.471-.113h-5.14a1.039,1.039,0,0,1-.652-.23l-1.244-1a1.039,1.039,0,0,0-1.251-.035l-1.333.95a1.042,1.042,0,0,0-.436.847v9.964a1.039,1.039,0,0,0,1.039,1.039H523.858a1.039,1.039,0,0,0,1.039-1.039l-.05-38.908a1.039,1.039,0,0,0-1.613-.879Z" transform="translate(-231.21 -302.853)" fill="#46a16e" opacity="0.3"/>
    <circle id="Ellipse_36" data-name="Ellipse 36" cx="2.481" cy="2.481" r="2.481" transform="translate(290.277 120.088)" fill="#46a16e"/>
    <path id="Path_221" data-name="Path 221" d="M523.8,494.441l-3.371,1.124a.886.886,0,0,0-.184.089l-1.85,1.223a.787.787,0,0,1-.454.128l-1.152-.028a.787.787,0,0,1-.567-.259l-.709-.78a.791.791,0,0,0-1.127-.046l-1.194,1.12a.78.78,0,0,1-.539.216h-4.14a.783.783,0,0,1-.709-.44l-.946-1.889a.791.791,0,0,0-1.127-.316l-5.859,3.711a.8.8,0,0,1-.6.1l-4.012-.9a.769.769,0,0,0-.447.028l-1.464.542a.5.5,0,0,0-.11.05L490,499.907a.815.815,0,0,1-.408.1l-2.4-.078a.708.708,0,0,0-.124,0l-2.3.294a.8.8,0,0,1-.567-.145l-.468-.354a.78.78,0,0,0-.478-.152l-2.527.035a.751.751,0,0,0-.294.06l-1.134.479a.794.794,0,0,1-.836-.145l-.929-.822a.787.787,0,0,0-.709-.181l-3.878.936-3.988,1.031a.776.776,0,0,1-.326,0l-3.367-.56a1.258,1.258,0,0,0-.163,0l-6.228.28a.787.787,0,0,0-.606.33l-.939,1.294a.787.787,0,0,1-.851.3l-1-.277a.8.8,0,0,0-.634.1l-1,.642a.811.811,0,0,1-.383.121l-2.127.117a.71.71,0,0,0-.121,0l-3.07.656a.888.888,0,0,1-.167.018h-1.8a.783.783,0,0,1-.464-.152l-.468-.354a.776.776,0,0,0-.581-.145l-3.832.574a.837.837,0,0,1-.266,0l-1.8-.354a.71.71,0,0,0-.149,0h-3.456a.849.849,0,0,0-.163,0l-3.506.744a.761.761,0,0,1-.284,0l-2.088-.315a.811.811,0,0,0-.39.043l-1.34.489a.776.776,0,0,1-.663-.057l-.634-.354a.765.765,0,0,0-.535-.092l-3.19.606a.783.783,0,0,1-.287,0l-1.535-.273a.859.859,0,0,0-.252,0l-1.694.245a.78.78,0,0,1-.67-.22l-.56-.535a.808.808,0,0,0-.56-.23h-1.343a.83.83,0,0,1-.135,0l-3.92-.688a.763.763,0,0,0-.323,0l-2.963.709a.792.792,0,0,1-.184.021h-3.569a.818.818,0,0,0-.163,0L403,503.9a.808.808,0,0,1-.606-.071l-.333-.216a.794.794,0,0,0-.425-.124h-2.159a.784.784,0,0,0-.3.06l-1.51.617a.776.776,0,0,1-.652-.025l-.8-.4a.8.8,0,0,0-.5-.071l-1.581.3a.781.781,0,0,1-.326,0l-3.665-.851h-.081l-3.116-.386a.8.8,0,0,0-.581.163l-1.772,1.375a.772.772,0,0,0-.23.291l-.4.883a.8.8,0,0,1-.461.418l-1.361.464a.745.745,0,0,1-.393.032l-3.027-.539a.794.794,0,0,0-.677.2l-1.2,1.124a.787.787,0,0,0-.248.578h0a.787.787,0,0,1-.681.78l-2.272.315a.772.772,0,0,1-.255,0l-2.056-.39a.793.793,0,0,0-.184,0l-3.435.156a.812.812,0,0,1-.415-.1l-.6-.33a.752.752,0,0,0-.3-.1l-1.8-.181a.809.809,0,0,0-.354.043l-2.127.755a.808.808,0,0,1-.245.046l-3.023.082a.732.732,0,0,0-.124,0l-5.122.946a.829.829,0,0,1-.337,0l-1.744-.447a.922.922,0,0,0-.2-.025h-5.5a.751.751,0,0,1-.294-.057l-1.723-.688a.783.783,0,0,0-.56,0l-1.6.571a.783.783,0,0,0-.525.741v.354a.787.787,0,0,0,.787.79H524.086a.787.787,0,0,0,.787-.79l-.046-14.983a.79.79,0,0,0-1.031-.783Z" transform="translate(-231.197 -347.326)" fill="#46a16e" opacity="0.3"/>
    <circle id="Ellipse_37" data-name="Ellipse 37" cx="2.481" cy="2.481" r="2.481" transform="translate(153.812 136.748)" fill="#46a16e"/>
    <circle id="Ellipse_38" data-name="Ellipse 38" cx="2.481" cy="2.481" r="2.481" transform="translate(272.908 121.152)" fill="#46a16e"/>
    <circle id="Ellipse_39" data-name="Ellipse 39" cx="2.481" cy="2.481" r="2.481" transform="translate(211.233 137.811)" fill="#46a16e"/>
    <circle id="Ellipse_40" data-name="Ellipse 40" cx="2.481" cy="2.481" r="2.481" transform="translate(243.489 128.95)" fill="#46a16e"/>
    <path id="Path_222" data-name="Path 222" d="M525.847,426.536a1.039,1.039,0,0,0-1.613-.861l-2.743,1.829a1.062,1.062,0,0,0-.252.237l-1.7,2.251a1.063,1.063,0,0,1-.879.411l-.557-.028a1.042,1.042,0,0,1-.9-.61l-.354-.755a1.035,1.035,0,0,0-1.861-.06l-.709,1.358a1.035,1.035,0,0,1-.918.549h-3.516a1.031,1.031,0,0,1-1.007-.787l-.844-3.378a1.039,1.039,0,0,0-1.822-.393l-5.069,6.408a1.031,1.031,0,0,1-1.241.3l-3.257-1.471a1.039,1.039,0,0,0-1.063.11l-1.166.861a.964.964,0,0,0-.152.142l-3.077,3.406a1.038,1.038,0,0,1-.836.354l-2.01-.128a1.12,1.12,0,0,0-.326.028l-1.811.464a1.035,1.035,0,0,1-1.117-.418l-.206-.3a1.039,1.039,0,0,0-.886-.45l-2.02.06a1,1,0,0,0-.634.241l-.5.415a1.039,1.039,0,0,1-1.577-.294l-.525-.95a1.039,1.039,0,0,0-1.358-.436l-3.4,1.634-3.761,1.942a1.031,1.031,0,0,1-.8.06l-3-.992a1.063,1.063,0,0,0-.418-.05l-5.8.5a1.063,1.063,0,0,0-.886.684l-.84,2.346a1.039,1.039,0,0,1-1.475.56l-.035-.018a1.031,1.031,0,0,0-1.315.269l-.659.844a1.064,1.064,0,0,1-.709.393l-1.815.195a1.062,1.062,0,0,0-.3.074l-2.875,1.23a1.085,1.085,0,0,1-.408.082h-1.382a1.039,1.039,0,0,1-.858-.454l-.2-.291a1.038,1.038,0,0,0-1.155-.408l-3.222.975a1.042,1.042,0,0,1-.673-.025l-1.5-.574a1.021,1.021,0,0,0-.354-.071H436.3a1,1,0,0,0-.4.085l-3.19,1.354a1.028,1.028,0,0,1-.709.039l-1.577-.471a1.042,1.042,0,0,0-.911.156l-.691.507a1.039,1.039,0,0,1-1.393-.152l-.1-.117a1.039,1.039,0,0,0-1.148-.287l-2.57.982a1.035,1.035,0,0,1-.709,0l-1.127-.4a1.063,1.063,0,0,0-.638-.018l-1.063.308a1.039,1.039,0,0,1-1.216-.532l-.4-.8a1.042,1.042,0,0,0-.929-.574h-.922a1.028,1.028,0,0,1-.354-.057l-3.576-1.255a1.028,1.028,0,0,0-.794.043l-2.612,1.255a1.064,1.064,0,0,1-.45.1h-3.3a1.085,1.085,0,0,0-.408.082l-.673.291a1.042,1.042,0,0,1-1.226-.315h0a1.035,1.035,0,0,0-.819-.4h-1.666a1.042,1.042,0,0,0-.659.234l-.968.794a1.031,1.031,0,0,1-1.393-.071l-.22-.22a1.039,1.039,0,0,0-1.109-.238l-.964.372a1.063,1.063,0,0,1-.812-.028l-3.392-1.574a.836.836,0,0,0-.188-.064l-2.662-.656a1.032,1.032,0,0,0-1.12.447l-1.673,2.609a1.065,1.065,0,0,0-.138.326l-.507,2.215a1.064,1.064,0,0,1-.425.624l-1.106.759a1.028,1.028,0,0,1-.932.121l-2.276-.808a1.039,1.039,0,0,0-1.272.51l-1.2,2.24a1.064,1.064,0,0,0-.12.489v1.01a1.042,1.042,0,0,1-.762,1l-1.992.553a1.021,1.021,0,0,1-.642-.028l-1.737-.656a1.021,1.021,0,0,0-.461-.064l-3,.273a1.028,1.028,0,0,1-.861-.333l-.354-.393a1.006,1.006,0,0,0-.564-.319l-1.365-.276a1.063,1.063,0,0,0-.808.174l-1.8,1.28a1.063,1.063,0,0,1-.546.191l-2.754.145a1.087,1.087,0,0,0-.3.064l-4.782,1.772a1.014,1.014,0,0,1-.829-.05l-1.382-.709a1.039,1.039,0,0,0-.471-.113h-5.14a1.038,1.038,0,0,1-.652-.23l-1.244-1a1.039,1.039,0,0,0-1.251-.035l-1.333.95a1.042,1.042,0,0,0-.436.847" transform="translate(-231.855 -302.846)" fill="none" stroke="#46a16e" stroke-miterlimit="10" stroke-width="1"/>
    <rect id="Rectangle_106" data-name="Rectangle 106" width="207.355" height="0.035" transform="translate(99.581 178.201)" fill="#f2f2f2" opacity="0.2"/>
    <circle id="Ellipse_41" data-name="Ellipse 41" cx="1.772" cy="1.772" r="1.772" transform="translate(129.709 176.446)" fill="#46a16e" opacity="0.3"/>
    <circle id="Ellipse_42" data-name="Ellipse 42" cx="1.772" cy="1.772" r="1.772" transform="translate(155.584 176.446)" fill="#46a16e" opacity="0.3"/>
    <circle id="Ellipse_43" data-name="Ellipse 43" cx="1.772" cy="1.772" r="1.772" transform="translate(181.459 176.446)" fill="#46a16e" opacity="0.3"/>
    <circle id="Ellipse_44" data-name="Ellipse 44" cx="1.772" cy="1.772" r="1.772" transform="translate(207.335 176.446)" fill="#46a16e" opacity="0.3"/>
    <circle id="Ellipse_45" data-name="Ellipse 45" cx="1.772" cy="1.772" r="1.772" transform="translate(233.21 176.446)" fill="#46a16e" opacity="0.3"/>
    <circle id="Ellipse_46" data-name="Ellipse 46" cx="1.772" cy="1.772" r="1.772" transform="translate(259.085 176.446)" fill="#46a16e" opacity="0.3"/>
    <circle id="Ellipse_47" data-name="Ellipse 47" cx="1.772" cy="1.772" r="1.772" transform="translate(284.96 176.446)" fill="#46a16e" opacity="0.3"/>
    <path id="Path_223" data-name="Path 223" d="M253.719,696.749c-1.063-1.953.142-4.346,1.521-6.086s3.052-3.545,3.016-5.774c-.053-3.19-3.438-5.076-6.143-6.767a29.775,29.775,0,0,1-5.515-4.441,8.153,8.153,0,0,1-1.694-2.268,9.2,9.2,0,0,1-.51-4.03q.181-6.834.677-13.643" transform="translate(-168.753 -450.185)" fill="none" stroke="#3f3d56" stroke-miterlimit="10" stroke-width="4"/>
    <path id="Path_224" data-name="Path 224" d="M231.8,644.42a4.962,4.962,0,0,1,2.481-4.076l1.113,2.2-.035-2.665a5.04,5.04,0,0,1,1.641-.2,4.962,4.962,0,1,1-5.2,4.739Z" transform="translate(-160.63 -441.106)" fill="#57b894"/>
    <path id="Path_225" data-name="Path 225" d="M255.843,734.868a4.962,4.962,0,1,0-.241-4.005l3.109,2.527-3.42-.79a4.963,4.963,0,0,0,.553,2.269Z" transform="translate(-175.796 -497.884)" fill="#57b894"/>
    <path id="Path_226" data-name="Path 226" d="M255.17,702.688a4.962,4.962,0,0,0,1.577-9.758l.028,2.049-1.127-2.229h0a4.962,4.962,0,0,0-5.2,4.735,4.906,4.906,0,0,0,.213,1.7A4.962,4.962,0,0,0,255.17,702.688Z" transform="translate(-172.667 -475.363)" fill="#57b894"/>
    <path id="Path_227" data-name="Path 227" d="M221.074,680.061a4.962,4.962,0,1,0-2.2-9.312l.879,2.41-1.808-1.737a4.963,4.963,0,0,0-1.606,3.435,4.888,4.888,0,0,0,.124,1.372A4.98,4.98,0,0,0,221.074,680.061Z" transform="translate(-150.647 -460.771)" fill="#57b894"/>
    <path id="Path_228" data-name="Path 228" d="M232.684,650.706c1.148.124,2.265.482,3.417.553a3.726,3.726,0,0,0,3.148-1.1,15.758,15.758,0,0,0,.918-1.62,3.545,3.545,0,0,1,1.255-1.18,4.962,4.962,0,1,1-9.3,3.3Q232.4,650.674,232.684,650.706Z" transform="translate(-160.839 -446.066)" opacity="0.1"/>
    <path id="Path_229" data-name="Path 229" d="M221.331,685.219a4.962,4.962,0,0,0,4.732-7.089,3.675,3.675,0,0,0-1,1,16.667,16.667,0,0,1-.985,1.645,4.075,4.075,0,0,1-3.3,1.156c-1.2-.053-2.361-.4-3.545-.507-.167,0-.333-.025-.5-.028A4.98,4.98,0,0,0,221.331,685.219Z" transform="translate(-150.904 -465.93)" opacity="0.1"/>
    <path id="Path_230" data-name="Path 230" d="M255.549,708.018A4.962,4.962,0,0,0,260.32,701a4.07,4.07,0,0,0-1.063,1.01c-.386.546-.627,1.173-1.063,1.677a4.591,4.591,0,0,1-3.52,1.234c-1.269-.032-2.421-.326-3.644-.422A4.962,4.962,0,0,0,255.549,708.018Z" transform="translate(-173.046 -480.693)" opacity="0.1"/>
    <path id="Path_231" data-name="Path 231" d="M256.85,740.658a4.969,4.969,0,1,0,9.07-4.058,4.894,4.894,0,0,0-1.092.971,20.468,20.468,0,0,1-1.333,1.772,6.2,6.2,0,0,1-4.122,1.45A22.037,22.037,0,0,1,256.85,740.658Z" transform="translate(-176.803 -503.675)" opacity="0.1"/>
    <path id="Path_232" data-name="Path 232" d="M265.287,764.877s-3.927-.121-5.111-.964-6.026-1.847-6.331-.5-5.9,6.735-1.471,6.756,10.3-.691,11.484-1.418S265.287,764.877,265.287,764.877Z" transform="translate(-172.817 -520.56)" fill="#656380"/>
    <path id="Path_233" data-name="Path 233" d="M252.324,773.538c4.434.035,10.3-.688,11.481-1.418.9-.549,1.258-2.517,1.379-3.42h.131s-.248,3.165-1.418,3.9-7.05,1.446-11.484,1.418c-1.28,0-1.719-.464-1.694-1.138C250.885,773.276,251.37,773.531,252.324,773.538Z" transform="translate(-172.844 -524.397)" opacity="0.2"/>
    <path id="Path_247" data-name="Path 247" d="M1041.218,535.317c-.755-.089-.9,3.867-1.662,3.871-.216,0-.177-.833-.354-.709s.457,2.836.354,3.048c-.386.8.383-2.591,0-1.794-.507,1.042-.277,1.382-.539,2.513-.581,2.481-3.477,4.282-2.889,6.756a61.345,61.345,0,0,1,1.5,8.234,13.45,13.45,0,0,1,.046,2.669,15.73,15.73,0,0,1-1.974,5.437c-.78,1.51-1.574,3.013-2.208,4.587a1.866,1.866,0,0,0-.177,1.248c.262.8,1.319.883,2.127,1.113,1.655.471,3.07,2.127,4.75,1.74.751-2.283.663-4.689,1.319-7,.673-2.371,2.247-4.434,2.758-6.845a16.532,16.532,0,0,0,.255-3.02l.248-11.183a12.053,12.053,0,0,0-.067-1.992,12.273,12.273,0,0,0-.535-2l-1.3-3.9C1042.526,537.051,1042.285,535.445,1041.218,535.317Z" transform="translate(-678.019 -373.737)" opacity="0.1"/>
  </g>
</svg>
