<svg xmlns="http://www.w3.org/2000/svg" xmlns:xlink="http://www.w3.org/1999/xlink" width="452.408" height="341.865" viewBox="0 0 452.408 341.865">
  <defs>
    <linearGradient id="linear-gradient" x1="0.5" y1="1" x2="0.5" gradientUnits="objectBoundingBox">
      <stop offset="0" stop-color="gray" stop-opacity="0.251"/>
      <stop offset="0.54" stop-color="gray" stop-opacity="0.122"/>
      <stop offset="1" stop-color="gray" stop-opacity="0.102"/>
    </linearGradient>
    <linearGradient id="linear-gradient-2" x1="0.5" x2="0.5" y2="0" xlink:href="#linear-gradient"/>
    <linearGradient id="linear-gradient-3" x1="0.5" x2="0.5" y2="0" xlink:href="#linear-gradient"/>
    <linearGradient id="linear-gradient-4" x1="1.096" x2="1.096" y2="0" xlink:href="#linear-gradient"/>
    <linearGradient id="linear-gradient-5" x1="0.5" x2="0.5" y2="0" xlink:href="#linear-gradient"/>
  </defs>
  <g id="Group_89" data-name="Group 89" transform="translate(0.013 -0.004)">
    <path id="Path_248" data-name="Path 248" d="M43.44,426.65c7.158,27.9,22.312,52.009,46.263,63.7,49.794,24.293,162.024,11.763,245.8-2.617,43.344-7.44,81.416-27.955,109.088-56.865Z" transform="translate(-38.565 -264.997)" fill="#46a16e" opacity="0.1"/>
    <path id="Path_249" data-name="Path 249" d="M500.284,50.491H454.319a3.638,3.638,0,1,1,0-7.245h7.953a3.637,3.637,0,1,1,0-7.241H456.6a3.823,3.823,0,0,1-3.977-3.623,3.821,3.821,0,0,1,3.977-3.623h23.99a67.969,67.969,0,0,0-18.714-4.7c-65.418-7.663-88.776-2.6-97.028,2.617a96.276,96.276,0,0,1-33.622,13.437C290.864,47.7,215.381,56.838,146.965,37.186c-34-9.762-59.274,6.76-74.425,34.321H508.265a59.961,59.961,0,0,0-5.4-21.9A4.167,4.167,0,0,1,500.284,50.491Z" transform="translate(-56.093 -20.14)" fill="#46a16e" opacity="0.1"/>
    <path id="Path_250" data-name="Path 250" d="M32.134,280.23A168.581,168.581,0,0,0,33.92,328.9l403.571,13.457a172.245,172.245,0,0,0,28.039-38.97Zm159.606,34.719h-7.953a3.637,3.637,0,1,1,0,7.241H137.843a3.637,3.637,0,1,1,0-7.241H145.8a3.638,3.638,0,1,1,0-7.245h-5.682a3.637,3.637,0,1,1,0-7.241h45.965a3.637,3.637,0,1,1,0,7.241h5.663a3.638,3.638,0,1,1,0,7.245Z" transform="translate(-31.16 -176.802)" fill="#46a16e" opacity="0.1"/>
    <path id="Path_251" data-name="Path 251" d="M484.938,149.94l-440.6,9.77A147.986,147.986,0,0,0,33.78,201.194H477.216a158.662,158.662,0,0,0,6.4-26.44A114.533,114.533,0,0,0,484.938,149.94Zm-361.7,32.015h-7.953a3.638,3.638,0,1,1,0,7.245H69.326a3.638,3.638,0,1,1,0-7.245h7.953a3.637,3.637,0,1,1,0-7.241H71.6a3.638,3.638,0,1,1,0-7.245h45.965a3.638,3.638,0,1,1,0,7.245h5.678a3.637,3.637,0,1,1,0,7.241Z" transform="translate(-32.746 -98.322)" fill="#46a16e" opacity="0.1"/>
    <ellipse id="Ellipse_48" data-name="Ellipse 48" cx="29.915" cy="6.716" rx="29.915" ry="6.716" transform="translate(234.254 291.502)" fill="#46a16e" opacity="0.1"/>
    <ellipse id="Ellipse_49" data-name="Ellipse 49" cx="53.97" cy="4.43" rx="53.97" ry="4.43" transform="translate(279.714 315.119)" fill="#46a16e" opacity="0.1"/>
    <ellipse id="Ellipse_50" data-name="Ellipse 50" cx="53.97" cy="6.716" rx="53.97" ry="6.716" transform="translate(63.02 306.116)" fill="#46a16e" opacity="0.1"/>
    <ellipse id="Ellipse_51" data-name="Ellipse 51" cx="40.608" cy="6.716" rx="40.608" ry="6.716" transform="translate(158.668 272.495)" fill="#46a16e" opacity="0.1"/>
    <ellipse id="Ellipse_52" data-name="Ellipse 52" cx="32.508" cy="6.716" rx="32.508" ry="6.716" transform="translate(178.105 328.436)" fill="#46a16e" opacity="0.1"/>
    <path id="Path_252" data-name="Path 252" d="M489.918,211.352c-.859-5.782-6.112-19.274-6.112-19.274h0q-.137-.6-.31-1.193c-3.726-12.8-8.884-13.918-8.884-13.918l-18.475-3.977a1.432,1.432,0,0,1,.4.37,2.558,2.558,0,0,0-.29.044,7.237,7.237,0,0,1-1.618-3.5c-.036-.191-.068-.4-.091-.592a13,13,0,0,0-1.058-19.537c-.195-.151-.4-.3-.592-.437a2.945,2.945,0,0,0,.247-3.5c-1.455-3.022-4.621-4.935-7.874-5.869a13.348,13.348,0,0,0-7.643-.163,27.61,27.61,0,0,0-4,1.857c-2.454,1.225-5.169,2.2-7,4.211a2.055,2.055,0,0,0-.7,1.69,4.56,4.56,0,0,0,.7,1.229,3.708,3.708,0,0,1,.036,3.078,29.832,29.832,0,0,0-1.141,2.959,3.093,3.093,0,0,0,.616,2.97,13.085,13.085,0,0,0,1.153.8,6.048,6.048,0,0,1,1.1,1.237q1.1,1.471,2.187,2.955a30.438,30.438,0,0,1,2.74,4.163,20.291,20.291,0,0,0,1.694,3.181,4.717,4.717,0,0,0,.728.764l-.215-.084a3.313,3.313,0,0,0,2.43.99h.111a.668.668,0,0,0,.445-.183v.4c.044,1.42.036,2.931-.064,4.35l-.171-.087a1.491,1.491,0,0,0-1.591.167L419.66,190.089s-3.7,5.058-3.181,13.791L413.5,216.975s-3.726,11.11-.859,19.044,4.529,12.47,4.529,12.47,1.145,9.015,2.867,9.75,2.465,1.133,2.465,1.133l.342,2.155h0s.115.211.318.565c1.253,2.179,5.893,9.87,8.589,9.047a34.477,34.477,0,0,1,.437,6.319l2.668,17.914s1.861,4.871,1.746,7.424,2.171,6.191,2.171,6.191a11.83,11.83,0,0,0-1.145,8.331c1.09,4.772,2.465,26.754,2.465,26.754l1.988,5.329-.056,6.247a5.965,5.965,0,0,1-1.233,2.784c-1.288,1.4-1.193,3.018-4.3,4.931s-5.074,2.636-5.074,5.169a6.647,6.647,0,0,1-.1,1.054c-.286,1.861-.843,2.871,4.867,3.412a15.056,15.056,0,0,0,11.182-3.738s.986-1.789,5.631-2.513c0,0,1.591-.084,1.674-1.487.032-.485.024-1.412,0-2.434-.076-1.945-.262-4.215-.509-4.326-.31-.139-.851-2.1-1.038-2.8h1.292s1.193-9.015,0-14.852a24.1,24.1,0,0,1-.115-9.977l-.231-15.417s-1.591-1.7-.342-4.708,0-17.855,0-17.855.461-5.329,1.778-6.577.064-7.806,0-8.148l2.346,7.87s1.03,15.644,3.213,18.475l.628,7.086s4.47,6.522,3.611,10.033.919,16.212.919,16.212v12.983s-2.008,5.213.8,7.086l1.193-.048c-.4.37-.7.927-1.169,1.408-.537.553-.843,2.656-1.014,4.466-.143,1.531-.191,2.847-.191,2.847a4.688,4.688,0,0,0,3.44,2.04c2.247.131,9.651,5.762,9.651,5.762a87.576,87.576,0,0,0,9.206-.4l.111-.028a2.485,2.485,0,0,0,1.428-1.165,2.982,2.982,0,0,0,.342-2.143c-.235-1.117-1.121-2.342-3.086-3.384-4.887-2.577-5.615-4.991-5.615-4.991l-3.209-4.816h.457a20.6,20.6,0,0,1,3.209-10.828l-.227-25.223s1.432-8.673-1.03-13.381c0,0-.2-4.987,1.443-6.518s-2.191-17-2.191-17-.8-8.307-1.73-15.886h0c3.869,3.67,7.881-9.544,8.557-11.894h.1l-.044-.171c.028-.111.044-.167.044-.167h0s-.859-3.054-.231-2.434,2.179-1.7,2.179-1.7-.231-12.641,2.465-19.012S489.918,211.352,489.918,211.352ZM478.386,219.4l.02-.036c.4,7.718-.076,24.189-.076,24.189s-.533,2.112-1.1,4.6l-.4-15.648h0l-.4-14.741Zm-49.353-5.321s1.949,24.372,0,27.887a18.413,18.413,0,0,0-1.4,4.816c-.644-1.69-2.008-5.659-1.519-7.762.632-2.72-1.261-9.866-1.261-10.033a16.953,16.953,0,0,1,1.193-6.887c1.364-2.911.469-4.171.469-4.171S427.657,213.153,429.033,214.076Z" transform="translate(-260.296 -91.922)" fill="url(#linear-gradient)"/>
    <path id="Path_253" data-name="Path 253" d="M451.849,447.013c-1.7,7.464-8.45-3.821-9.989-6.529-.2-.354-.31-.561-.31-.561l.732-3.432,3.869-1.591a10.808,10.808,0,0,1,1.734,1.129A10.453,10.453,0,0,1,451.849,447.013Z" transform="translate(-278.365 -269.967)" fill="#d38884"/>
    <path id="Path_254" data-name="Path 254" d="M582.324,431.753a.521.521,0,0,1-.044.167.845.845,0,0,1-.052.179c-.664,2.33-4.6,15.449-8.4,11.806-4.159-3.977-2.139-13.17-2.139-13.17h.028l8.748-.895,1.734,1.781h0Z" transform="translate(-356.457 -266.919)" fill="#d38884"/>
    <path id="Path_255" data-name="Path 255" d="M505.392,497.842l.223,25.052a20.547,20.547,0,0,0-3.149,10.737l-11.309.445c-2.76-1.857-.8-7.031-.8-7.031v-12.9s-1.746-12.6-.9-16.093-3.543-9.941-3.543-9.941l-.62-7.035c-2.139-2.811-3.153-18.34-3.153-18.34l-2.294-7.842c.064.338,1.257,6.883,0,8.088s-1.746,6.525-1.746,6.525,1.237,14.745,0,17.723.334,4.672.334,4.672l.227,15.306a23.934,23.934,0,0,0,.111,9.9c1.181,5.794,0,14.745,0,14.745H466.641l.056-6.247-1.964-5.289s-1.352-21.831-2.422-26.559a11.866,11.866,0,0,1,1.121-8.271s-2.247-3.6-2.135-6.132-1.734-7.365-1.734-7.365l-2.617-17.779a34.539,34.539,0,0,0-1.3-10.128c-1.519-5.066-3.77-11.707-3.77-11.707l2.541.227,12.82,1.141s31.172-2.1,32.568-.354a5.85,5.85,0,0,1,.589,1.817c1.4,6.287,3.249,25.983,3.249,25.983s3.77,15.361,2.151,16.88-1.42,6.466-1.42,6.466C506.8,489.213,505.392,497.842,505.392,497.842Z" transform="translate(-284.587 -268.449)" fill="#444053"/>
    <path id="Path_256" data-name="Path 256" d="M485.222,688.378c-.087,1.4-1.642,1.479-1.642,1.479-4.557.716-5.527,2.489-5.527,2.489a14.637,14.637,0,0,1-10.971,3.714c-5.607-.541-5.062-1.539-4.772-3.388a7.006,7.006,0,0,0,.091-1.042c0-2.533,1.941-3.253,4.979-5.169s2.955-3.5,4.219-4.9,1.4-4.092,1.4-4.092c1.432-2.493,5.062.4,5.062.4.171.883,5.567.76,5.567.76s.716,2.871,1.086,3.038c.243.111.425,2.362.5,4.295C485.246,686.978,485.254,687.9,485.222,688.378Z" transform="translate(-290.769 -415.47)" fill="#b07473"/>
    <path id="Path_257" data-name="Path 257" d="M485.222,702.786c-.087,1.4-1.642,1.479-1.642,1.479-4.557.716-5.527,2.489-5.527,2.489a14.637,14.637,0,0,1-10.971,3.714c-5.607-.541-5.062-1.539-4.772-3.388,2.505.62,7.293,1.487,10.088-.032,3.885-2.108,6.673-3.579,6.673-3.579l6.14-3.09C485.246,701.386,485.254,702.3,485.222,702.786Z" transform="translate(-290.769 -429.878)" opacity="0.1"/>
    <path id="Path_258" data-name="Path 258" d="M571.15,698.329a2.426,2.426,0,0,1-1.4,1.157l-.107.028a84.356,84.356,0,0,1-9.035.4s-7.257-5.611-9.452-5.738a4.616,4.616,0,0,1-3.376-2.028s.044-1.3.183-2.823c.171-1.8.469-3.885,1-4.434.97-1.014,1.193-2.386,3.376-1.519,0,0,3.118-5.5,6.792-1.249l3.8,5.766s.716,2.386,5.531,4.975c1.925,1.034,2.784,2.251,3.026,3.36A2.963,2.963,0,0,1,571.15,698.329Z" transform="translate(-342.352 -417.909)" fill="#b07473"/>
    <path id="Path_259" data-name="Path 259" d="M571.15,711.677c-.43.362-.9.752-1.4,1.157l-.107.028a84.356,84.356,0,0,1-9.035.4s-7.257-5.611-9.452-5.738a4.616,4.616,0,0,1-3.376-2.028s.044-1.3.183-2.823c2.235.668,5.619,1.849,6.526,3.122,1.392,1.937,5.619,4.641,5.619,4.641s7.881-.76,11.381-.863A2.963,2.963,0,0,1,571.15,711.677Z" transform="translate(-342.352 -431.257)" opacity="0.1"/>
    <path id="Path_260" data-name="Path 260" d="M497.582,211.538,487.2,222.509s-12.578-.927-10.383-4.641c1.117-1.893,1.292-5.853,1.193-9.3-.091-3.32-.433-6.148-.433-6.148s17.64-8.78,16.3-.593a13.475,13.475,0,0,0-.048,4.672C494.588,210.639,497.582,211.538,497.582,211.538Z" transform="translate(-299.455 -127.476)" fill="#d38884"/>
    <path id="Path_261" data-name="Path 261" d="M495.408,201.831a13.477,13.477,0,0,0-.048,4.672,12.948,12.948,0,0,1-9.234,3.853c-2.386,0-4.967-1.96-6.9-3.094-.091-3.324-.111-4.839-.111-4.839S496.76,193.644,495.408,201.831Z" transform="translate(-300.995 -127.476)" opacity="0.1"/>
    <path id="Path_262" data-name="Path 262" d="M490.037,174.486a13,13,0,1,1-4.891-10.156A13,13,0,0,1,490.037,174.486Z" transform="translate(-291.91 -105.28)" fill="#d38884"/>
    <path id="Path_263" data-name="Path 263" d="M503.379,435.543c-3.237,7.7-24.058,7.862-24.058,7.862v-8.4l-1.261-.083c.545,2.406-.764,8.271-.764,8.271-16.455,2.322-20.467-7.054-20.467-7.054l.573-3.209,12.82,1.141s31.172-2.1,32.568-.354A5.849,5.849,0,0,1,503.379,435.543Z" transform="translate(-287.569 -268.78)" opacity="0.1"/>
    <path id="Path_264" data-name="Path 264" d="M479.321,318.7v-8.4l-1.261-.08c.545,2.386-.764,8.271-.764,8.271-12.383,1.746-17.719-3.13-19.6-5.651a7.7,7.7,0,0,1-.867-1.4l5.026-28.273,1.193-41.611,1.8-7.3.418-3.5v-.04h.044l1.28.549,7.663,3.312,8.7-6.573.127-.091.433-.33.72.577,1.789,1.436,5.738,37.057s9.941,28.532,11.8,40.048c.076.461.135.891.183,1.292C504.982,318.5,479.321,318.7,479.321,318.7Z" transform="translate(-287.569 -145.088)" fill="#46a16e"/>
    <circle id="Ellipse_53" data-name="Ellipse 53" cx="0.74" cy="0.74" r="0.74" transform="translate(186.878 89.566)" fill="#67647e"/>
    <circle id="Ellipse_54" data-name="Ellipse 54" cx="0.74" cy="0.74" r="0.74" transform="translate(187.219 96.318)" fill="#67647e"/>
    <circle id="Ellipse_55" data-name="Ellipse 55" cx="0.74" cy="0.74" r="0.74" transform="translate(187.959 107.25)" fill="#67647e"/>
    <circle id="Ellipse_56" data-name="Ellipse 56" cx="0.74" cy="0.74" r="0.74" transform="translate(189.18 119.024)" fill="#67647e"/>
    <circle id="Ellipse_57" data-name="Ellipse 57" cx="0.74" cy="0.74" r="0.74" transform="translate(189.92 130.079)" fill="#67647e"/>
    <circle id="Ellipse_58" data-name="Ellipse 58" cx="0.74" cy="0.74" r="0.74" transform="translate(190.659 141.853)" fill="#67647e"/>
    <circle id="Ellipse_59" data-name="Ellipse 59" cx="0.74" cy="0.74" r="0.74" transform="translate(190.365 153.501)" fill="#67647e"/>
    <path id="Path_265" data-name="Path 265" d="M465.755,291.85s-.827,10.828-2.346,13.978-2.2,11.985-2.2,11.985l-3.527-.4a7.7,7.7,0,0,1-.867-1.4l5.026-28.273,1.193-41.61,1.805-7.3.418-3.5.048-.02a1.424,1.424,0,0,1,1.257.02l.167.087q-.076.215-.143.441c-1.376,4.307-1.889,12.244-1.889,12.244s1.988,14.518,2.2,21.271S465.755,291.85,465.755,291.85Z" transform="translate(-287.563 -149.658)" opacity="0.1"/>
    <path id="Path_266" data-name="Path 266" d="M447.885,436.041a2.042,2.042,0,0,1-.135.262c-1.368,2.31-4.835,3.778-5.889,4.179-.2-.354-.31-.561-.31-.561l.732-3.432,3.869-1.591A10.809,10.809,0,0,1,447.885,436.041Z" transform="translate(-278.365 -269.967)" opacity="0.1"/>
    <path id="Path_267" data-name="Path 267" d="M421.73,298.81l-3.209,1.913-2.923,13s-3.658,11.027-.847,18.9,4.446,12.387,4.446,12.387,1.125,8.947,2.815,9.679,2.418,1.125,2.418,1.125l.338,2.139s4.581-1.555,6.2-4.295-1.193-9.544-1.193-9.544-2.418-5.8-1.8-8.5-1.241-9.79-1.241-9.941a16.85,16.85,0,0,1,1.193-6.84c1.36-2.9.453-4.136.453-4.136l-.847-8.271Z" transform="translate(-261.583 -187.993)" fill="#67647e"/>
    <path id="Path_268" data-name="Path 268" d="M542.913,309.845s-8.5,3.205-11.2.4-2.422-15.982-2.422-15.982-2.585-24.309-4.219-28.3-.8-32.806-.8-32.806-1.1-3.726-2.056-4.7a1.042,1.042,0,0,0-.2-.163l.33.072,1.153.247,1.789,1.436,5.738,37.057s9.941,28.532,11.8,40.048Z" transform="translate(-326.836 -145.516)" opacity="0.1"/>
    <path id="Path_269" data-name="Path 269" d="M583.055,432.079h-.1c-1.07.139-10.51,1.28-10.55-.684a5.752,5.752,0,0,1,.036-.68l8.748-.895,1.734,1.781h0c.032.115.056.215.08.294Z" transform="translate(-357.188 -266.907)" opacity="0.1"/>
    <path id="Path_270" data-name="Path 270" d="M574,266.07l6.2,3.237s5.169,13.385,6,19.123c0,0,3.829,15.373,1.193,21.7S584.971,329,584.971,329s-1.519,2.306-2.139,1.69.227,2.418.227,2.418-10.605,1.408-10.649-.676,2.434-12.041,2.434-12.041.676-23.688-.282-27.4S574,266.07,574,266.07Z" transform="translate(-357.187 -168.273)" fill="#67647e"/>
    <path id="Path_271" data-name="Path 271" d="M522.179,329.52s-3.491,8.55-4.617,9.114.227,2.811.227,2.811S524.147,332.558,522.179,329.52Z" transform="translate(-323.881 -206.492)" opacity="0.1"/>
    <path id="Path_272" data-name="Path 272" d="M516.36,254.093c.04-.163-4.163,4.124-5.289,4.772S515.179,258.825,516.36,254.093Z" transform="translate(-320.146 -161.056)" opacity="0.1"/>
    <path id="Path_273" data-name="Path 273" d="M486.63,327.82s-6.414,4.148-5.567,5.79S486.63,327.82,486.63,327.82Z" transform="translate(-302.119 -205.468)" opacity="0.1"/>
    <path id="Path_274" data-name="Path 274" d="M524.47,480.07a34.335,34.335,0,0,0,13.954,4.374Z" transform="translate(-328.311 -297.175)" opacity="0.1"/>
    <path id="Path_275" data-name="Path 275" d="M491.5,501.3s5.062,6.362,7.372,6.525S491.5,501.3,491.5,501.3Z" transform="translate(-308.452 -309.963)" opacity="0.1"/>
    <path id="Path_276" data-name="Path 276" d="M500.078,564c-.227.111-2.871,5.738-5.567,5.909S500.078,564,500.078,564Z" transform="translate(-309.94 -347.73)" opacity="0.1"/>
    <path id="Path_277" data-name="Path 277" d="M568.33,594.748s5.018-1.125,6.136,2.473C574.466,597.209,574.128,596.084,568.33,594.748Z" transform="translate(-354.73 -366.15)" opacity="0.1"/>
    <path id="Path_278" data-name="Path 278" d="M559.84,646.095s6.08-1.241,7.372.449S559.84,646.095,559.84,646.095Z" transform="translate(-349.616 -396.915)" opacity="0.1"/>
    <path id="Path_279" data-name="Path 279" d="M507.546,654c0,.056-6.187,1.241-5.965,2.028s6.6.676,6.828-.565a1.193,1.193,0,0,0-.863-1.463Z" transform="translate(-314.521 -401.941)" opacity="0.1"/>
    <path id="Path_280" data-name="Path 280" d="M554.75,666.878s10.168-1.241,9.544.9S554.75,666.878,554.75,666.878Z" transform="translate(-346.55 -409.482)" opacity="0.1"/>
    <path id="Path_281" data-name="Path 281" d="M420.89,352.44c.056.167,6.7,1.07,7.6,3.209,0,0-6.525-3.042-7.555-3.042" transform="translate(-265.92 -220.297)" opacity="0.1"/>
    <path id="Path_282" data-name="Path 282" d="M436.591,396.16s-5.515,1.746-5.122,4.374S430.909,399.317,436.591,396.16Z" transform="translate(-272.281 -246.632)" opacity="0.1"/>
    <path id="Path_283" data-name="Path 283" d="M437.92,426.337s2.008-2.756,3.921-2.251S437.92,426.337,437.92,426.337Z" transform="translate(-276.178 -263.416)" opacity="0.1"/>
    <path id="Path_284" data-name="Path 284" d="M485.175,164.326a3.129,3.129,0,0,1-.644.481c-1.591.927-2.028,2.354-2.784,4-.7,1.507-1.479,3.1-2.9,3.957-1.833,1.105-4.247.7-6.152,1.662a4.772,4.772,0,0,0-2.545,4.7,13.571,13.571,0,0,0,.541,2.155,15.368,15.368,0,0,1,.581,4.68.791.791,0,0,1,0,.139,13,13,0,1,1,13.918-21.78Z" transform="translate(-291.939 -105.277)" opacity="0.1"/>
    <path id="Path_285" data-name="Path 285" d="M475.006,148.991c-1.428-3-4.533-4.9-7.726-5.826a12.977,12.977,0,0,0-7.5-.159,27.524,27.524,0,0,0-3.925,1.841c-2.41,1.217-5.058,2.179-6.871,4.179a2.094,2.094,0,0,0-.688,1.678,4.684,4.684,0,0,0,.68,1.217,3.693,3.693,0,0,1,.036,3.058,28.048,28.048,0,0,0-1.121,2.939,3.092,3.092,0,0,0,.6,2.947,11.022,11.022,0,0,0,1.137.8,5.984,5.984,0,0,1,1.078,1.225l2.147,2.935a29.762,29.762,0,0,1,2.688,4.132A19.689,19.689,0,0,0,457.2,173.1a3.6,3.6,0,0,0,3.014,1.611.584.584,0,0,0,.477-.227.628.628,0,0,0,.06-.3,15.262,15.262,0,0,0-.569-4.664,13.456,13.456,0,0,1-.541-2.155,4.792,4.792,0,0,1,2.545-4.7c1.909-.962,4.323-.557,6.152-1.658a8.451,8.451,0,0,0,2.9-3.977c.767-1.646,1.193-3.074,2.784-4S475.8,150.569,475.006,148.991Z" transform="translate(-282.108 -93.854)" fill="#585268"/>
    <path id="Path_286" data-name="Path 286" d="M501.63,693.06s1.988,2.533,1.471,3.977S501.63,693.06,501.63,693.06Z" transform="translate(-314.554 -425.469)" opacity="0.1"/>
    <path id="Path_287" data-name="Path 287" d="M569.28,703.74s.441-3.4,2.211-3.428,1.857-.183,3.209.338,2.621,1.328,2.215,1.448-2.326-1.941-4.3-.887a14.206,14.206,0,0,0-3.336,2.529Z" transform="translate(-355.302 -429.81)" opacity="0.1"/>
    <path id="Path_288" data-name="Path 288" d="M478.855,243.608l5.567-3.9s-8.144-4.812-9.114-4.136-1.638,6.76-1.638,6.76Z" transform="translate(-297.712 -149.863)" opacity="0.1"/>
    <path id="Path_289" data-name="Path 289" d="M478.8,242.864l5.567-3.977s-8.144-4.812-9.114-4.136-1.638,7.094-1.638,7.094Z" transform="translate(-297.676 -149.369)" fill="#e1e7ef"/>
    <path id="Path_290" data-name="Path 290" d="M478.8,242.864l5.567-3.977s-8.144-4.812-9.114-4.136-1.638,7.094-1.638,7.094Z" transform="translate(-297.676 -149.369)" fill="#46a16e"/>
    <path id="Path_291" data-name="Path 291" d="M447.324,234.565l-.167-.084a1.443,1.443,0,0,0-1.563.163l-16.7,13.548s-3.631,5.022-3.126,13.687l9.85,13.954s1.125-4.724,2.473-3.825c0,0,1.913,24.2,0,27.685s-2.756,16.542-2.756,16.542l6.47.732s.676-8.836,2.2-11.985S446.346,291,446.346,291s1.368-15.731,1.141-22.483-2.2-21.271-2.2-21.271S445.845,238.74,447.324,234.565Z" transform="translate(-268.829 -149.15)" fill="#67647e"/>
    <path id="Path_292" data-name="Path 292" d="M511.379,236.8l-6.939-2.569s8.836-9.679,9.941-4.311Z" transform="translate(-316.246 -145.523)" opacity="0.1"/>
    <path id="Path_293" data-name="Path 293" d="M511.379,235.953l-6.939-2.569s8.836-9.679,9.941-4.311Z" transform="translate(-316.246 -145.011)" fill="#e1e7ef"/>
    <path id="Path_294" data-name="Path 294" d="M511.379,235.953l-6.939-2.569s8.836-9.679,9.941-4.311Z" transform="translate(-316.246 -145.011)" fill="#46a16e"/>
    <path id="Path_295" data-name="Path 295" d="M521.32,228.112a.4.4,0,0,1,.286.064Z" transform="translate(-326.414 -145.406)" opacity="0.1"/>
    <path id="Path_296" data-name="Path 296" d="M523,226.419l18.411,3.977s5.066,1.125,8.724,13.842-5.01,28.3-5.01,28.3l-1.913-1.626.958,37.137s-8.5,3.205-11.2.4-2.418-15.994-2.418-15.994-2.589-24.3-4.223-28.3-.8-32.8-.8-32.8S524.034,226.2,523,226.419Z" transform="translate(-327.426 -144.385)" fill="#67647e"/>
    <path id="Path_297" data-name="Path 297" d="M564.994,285.687c-.258.239-.561,11.476.565,20.03a109.151,109.151,0,0,0,3.181,15.417l-1.67-34.266S565.782,284.956,564.994,285.687Z" transform="translate(-352.575 -179.989)" opacity="0.1"/>
    <path id="Path_298" data-name="Path 298" d="M559.7,261.6c.449.282,2.422,4.951,1.519,6.863S559.7,261.6,559.7,261.6Z" transform="translate(-349.532 -165.58)" opacity="0.1"/>
    <path id="Path_299" data-name="Path 299" d="M489.973,152.369a10.164,10.164,0,0,0-4.048-4.239,9.627,9.627,0,0,1,3.034,3.579c.8,1.591.561,3.181-.986,4.052s-2.028,2.354-2.784,4a8.646,8.646,0,0,1-2.9,3.977c-1.829,1.105-4.243.7-6.152,1.658a4.8,4.8,0,0,0-2.545,4.708,13.518,13.518,0,0,0,.545,2.151,15.383,15.383,0,0,1,.581,4.68.628.628,0,0,1-.064.3.569.569,0,0,1-.473.227,2.74,2.74,0,0,1-1.388-.258,3.229,3.229,0,0,0,2.386.934.469.469,0,0,0,.533-.525,15.258,15.258,0,0,0-.577-4.68,13.062,13.062,0,0,1-.545-2.155,4.792,4.792,0,0,1,2.545-4.7c1.909-.962,4.322-.557,6.152-1.658a8.451,8.451,0,0,0,2.9-3.977c.767-1.646,1.193-3.074,2.784-4S490.768,153.948,489.973,152.369Z" transform="translate(-297.182 -97.232)" opacity="0.1"/>
    <path id="Path_300" data-name="Path 300" d="M683.455,216.154c-5.48-.107-10.315-3.977-13.055-8.7a8.748,8.748,0,0,1-1.32-3.726,4.3,4.3,0,0,1,.151-.891,9.241,9.241,0,0,0,.4-1.364,2.389,2.389,0,0,0,0-.557s0,0,0-.032a3.29,3.29,0,0,0-1.193-2.676c-.732-.688-1.65-1.193-2.414-1.877-2.354-2.068-3.07-5.384-3.114-8.542v-.167c.028-1.352.135-2.708.123-4.06a17.077,17.077,0,0,0-.1-2.3,7.6,7.6,0,0,0-2.458-5.082c-3.921-3.181-10.514.131-14.574-2.875-.986-.736-1.785-1.821-2.982-2.108a5.025,5.025,0,0,0-2.724.37c-2.99.986-6.327,2.283-7.5,5.169-.668,1.658-.481,3.551-1.094,5.229a26.121,26.121,0,0,1-1.71,3.157,4.943,4.943,0,0,0-.636,2.636,2.976,2.976,0,0,0,.195,1.4,3.578,3.578,0,0,0,.974,1.4,4.637,4.637,0,0,1-.581.93c-.763.934-1.937,1.591-2.732,2.521a5.957,5.957,0,0,0-.692,6.028c.724,2,2.032,3.829,2.935,5.782a3.1,3.1,0,0,1,.3,2.636,7.561,7.561,0,0,1-1.32,1.535,4.824,4.824,0,0,0-1.193,2.664c-8.951,2.044-8.959,9.237-8.959,9.237h0l-4.835,12.16s-.775,2.048-1.686,4.752l-5.722-1.026,3.977,6.657c-.752,2.712-1.284,5.225-1.109,6.49,0,0-1.778,8.351,1.384,9.81l6.975,3.138a4.133,4.133,0,0,0,.966.433l.282.127a.748.748,0,0,0,.652,0h.1a.939.939,0,0,0,.4-.06.8.8,0,0,0,.35-.378.121.121,0,0,1,0-.04l2.088-.6,1.77,2.1c.8.561,1.591,1.046,2.342,1.483l-2.74,27.207s-.441,36.186-1.778,44.434a23.1,23.1,0,0,0-.31,6.553l-.052.087c.33,2.326,1.193,2.784,1.193,2.784v-.032a.262.262,0,0,0,.052.032,23.424,23.424,0,0,1,1.432-3.07v.6c-.028,3.07-.123,7.369-.441,10.164-.541,4.772,1.384,20.5,1.384,20.5l.664,14.316a13.234,13.234,0,0,1-1.63,6.975c-1.591,2.859-3.623,6.883-3.77,8.669a1.787,1.787,0,0,0,0,.29h0l-3.412,4.1s-1.332,2.06,1.678,2.891c1.618.449,4.41,0,6.653-.529a4.446,4.446,0,0,0,3.448-4.326,15.309,15.309,0,0,1,2.815-5.4l.561,3.3,3.754.931.481-9.035a3.976,3.976,0,0,0,.259-1.591h0c.74-6.426-1.742-5.849-1.742-5.849a.346.346,0,0,1,.119.223l-.119-.219h0c-1.523-3.006-.8-7.953-.8-7.953s1.988-14.316,2.668-18.1c.489-2.672.286-11.421.123-16.3a5.833,5.833,0,0,0-.02-.592c5.822-.076,12.956-.27,17.962-.756v.589l-.923,33.82a18.566,18.566,0,0,1-1.3,6.291.344.344,0,0,1-.044.115,27.436,27.436,0,0,0-1.833,8.864l-.43,10.737v.3h0c-.748.286-1.929,1.117-1.96,3.527-.052,3.531,6.172,2.354,6.172,2.354,6.219,0,6.271-6.474,6.271-6.474s.195-5.937.493-9.91-.938-3.1-.938-3.1l-.1,11.3v-9.818l.1-1.435v-.04h0v-.306l.783-11.655s5.73-19.421,6.617-23.147c.632-2.648.37-10.625.163-15.035a3.5,3.5,0,0,0-.032-.585c1.777-.159,3.348-.175,3.977-.175h.29s-.294-31.192-1.038-42.947-1.925-22.511-4.887-25.748c-1.789-1.956-4.283-8-5.965-12.47a62.385,62.385,0,0,0,10.963,3.579c9.381,1.964,8.1-6.18,8.1-6.18l-.95-15.4h.064a78.522,78.522,0,0,0-1.034-12.041,35.427,35.427,0,0,0-2.418-8.748c1.018-.4,2.024-.823,3.01-1.261,2.549-1.125,5.42-2.72,5.786-5.468h-.123a3.544,3.544,0,0,0,.1-.6Zm-58.149,22.269h0c.02,1.591-.04,4.35-.135,7.4l-2.978-3.977L625.178,237ZM665.214,246.5Zm1.241,6.016-4.963-1.591a22.268,22.268,0,0,1,3.066-3.794l.429-.4-.155.032.239-.219.143-.032-.227.219.27-.056a8.464,8.464,0,0,0,1.69,3.4c1.781,1.945-.489,2.438-.489,2.438Z" transform="translate(-377.384 -111.079)" fill="url(#linear-gradient-2)"/>
    <path id="Path_301" data-name="Path 301" d="M643.482,715.66l-.581,11.007-3.7-.927-.779-4.577Z" transform="translate(-384.558 -431.073)" fill="#a27772"/>
    <path id="Path_302" data-name="Path 302" d="M643.482,715.66l-.581,11.007-3.7-.927-.779-4.577Z" transform="translate(-384.558 -431.073)" opacity="0.1"/>
    <path id="Path_303" data-name="Path 303" d="M716.48,660.776l5.647,1.169,4.187-3.7V647.824l.1-1.424v-.044h0v-.3l.779-11.584s5.651-19.282,6.529-22.984c.62-2.625.362-10.546.155-14.924-.083-1.793-.155-2.994-.155-2.994l-12.466-3.018-.262,9.583-.911,33.578a18.606,18.606,0,0,1-1.277,6.247l-.044.115a27.328,27.328,0,0,0-1.809,8.8l-.422,10.677v.294Z" transform="translate(-443.968 -363.722)" fill="#cc818c"/>
    <path id="Path_304" data-name="Path 304" d="M741.45,730.138v.294h0v-.3Z" transform="translate(-459.008 -447.798)" opacity="0.1"/>
    <path id="Path_305" data-name="Path 305" d="M716.48,761.976l5.647,1.169,4.187-3.7v-.887a1.193,1.193,0,0,1-.6.954l-.06.036a11.253,11.253,0,0,1-6.339,1.253l-2.2-.187a2.063,2.063,0,0,0-.585.143v.294Z" transform="translate(-443.968 -464.922)" opacity="0.1"/>
    <path id="Path_306" data-name="Path 306" d="M722.774,743.05l.06-.032a1.193,1.193,0,0,0,.608-1.034l.091-11.218s1.217-.871.923,3.074-.485,9.838-.485,9.838-.048,6.426-6.184,6.426c0,0-6.136,1.169-6.088-2.338s2.533-3.65,2.533-3.65l2.2.191A11.226,11.226,0,0,0,722.774,743.05Z" transform="translate(-441.088 -448.131)" fill="#b07473"/>
    <path id="Path_307" data-name="Path 307" d="M642.52,663.955c.143,2.533,7.6,1.07,7.6,1.07l5.014-9.735s4.187-3.217,2.092-6.04a4.5,4.5,0,0,1-.306-.481l-.02-.024h0c-.044-.072-.083-.147-.123-.227h0c-1.5-2.982-.764-7.874-.764-7.874s1.945-14.22,2.629-17.97c.481-2.648.282-11.337.123-16.2-.064-2.02-.123-3.376-.123-3.376l-12.371-3.312v3.69c-.028,3.05-.123,7.317-.437,10.092-.533,4.72,1.364,20.352,1.364,20.352l.656,14.224a13.174,13.174,0,0,1-1.591,6.923c-1.551,2.839-3.579,6.84-3.718,8.609A1.742,1.742,0,0,0,642.52,663.955Z" transform="translate(-399.418 -369.288)" fill="#cc818c"/>
    <path id="Path_308" data-name="Path 308" d="M642.515,738.146c.143,2.533,7.6,1.07,7.6,1.07l5.014-9.735s4.187-3.217,2.092-6.04a4.505,4.505,0,0,1-.306-.481c-.068,1.475-1.686,5.17-1.686,5.17s-4.14,8.283-5.456,10.18-7.034-.354-7.249-.433A1.731,1.731,0,0,0,642.515,738.146Z" transform="translate(-399.413 -443.479)" opacity="0.1"/>
    <path id="Path_309" data-name="Path 309" d="M651.17,722.28s2.45-.569,1.718,5.81h0a4.108,4.108,0,0,1-1.937,3.646,13.926,13.926,0,0,0-5.826,8.08h0a4.406,4.406,0,0,1-3.4,4.295c-2.211.517-4.967.97-6.561.525-2.97-.827-1.654-2.871-1.654-2.871l3.408-4.044s5.941,2.338,7.253.437,5.456-10.176,5.456-10.176S651.9,722.817,651.17,722.28Z" transform="translate(-393.816 -443.061)" fill="#b07473"/>
    <path id="Path_310" data-name="Path 310" d="M728.082,593.52l-.262,9.583c3.32-.322,5.7-.771,6.1-1.4.879-1.36,4.068-1.933,6.78-2.167-.083-1.793-.155-2.994-.155-2.994Z" transform="translate(-450.798 -365.511)" opacity="0.1"/>
    <path id="Path_311" data-name="Path 311" d="M651.94,606.41a4.549,4.549,0,0,1,1.364-1.646c1.312-.728,1.169,4.676,1.169,4.676s4.374.04,9.961-.032c-.064-2.02-.123-3.38-.123-3.38L651.94,602.72S651.964,604.255,651.94,606.41Z" transform="translate(-405.092 -371.053)" opacity="0.1"/>
    <path id="Path_312" data-name="Path 312" d="M646.438,478.457s1.463-3.977,2.784-4.684,1.169,4.672,1.169,4.672,32.138.294,33.745-2.191,10.955-2.338,10.955-2.338-.29-30.969-1.022-42.652-1.9-22.352-4.82-25.565c-1.889-2.08-4.577-8.808-6.239-13.294-.9-2.45-1.5-4.235-1.5-4.235l-30.675,1.75-.25,2.485-3.257,32.576s-.437,35.936-1.754,44.116S646.438,478.457,646.438,478.457Z" transform="translate(-401.002 -241.819)" fill="#444053"/>
    <g id="Group_81" data-name="Group 81" transform="translate(244.183 146.351)" opacity="0.1">
      <path id="Path_313" data-name="Path 313" d="M692.3,476.254c1.591-2.481,10.955-2.338,10.955-2.338s-.29-30.969-1.022-42.652-1.9-22.352-4.82-25.565c-1.9-2.088-4.577-8.808-6.239-13.294-.76-2.06-1.3-3.646-1.455-4.1l2.386-.135s.6,1.785,1.507,4.235c1.662,4.486,4.346,11.214,6.235,13.294,2.923,3.213,4.092,13.878,4.82,25.565s1.026,42.652,1.026,42.652-9.349-.143-10.959,2.338c-1.372,2.12-25.02,2.219-31.884,2.2C671.658,478.433,691.06,478.171,692.3,476.254Z" transform="translate(-655.847 -388.17)"/>
      <path id="Path_314" data-name="Path 314" d="M646.779,603.337c.592-.33.887.584,1.034,1.694a22.926,22.926,0,0,0-1.38,2.99s-.847-.457-1.193-2.784A5.411,5.411,0,0,1,646.779,603.337Z" transform="translate(-645.24 -517.734)"/>
    </g>
    <path id="Path_315" data-name="Path 315" d="M662.964,193.084c-2.123,2.895.024,7.011-2.255,9.826-.752.931-1.909,1.591-2.692,2.505a5.95,5.95,0,0,0-.684,5.985c.712,1.988,1.988,3.8,2.895,5.742a3.072,3.072,0,0,1,.294,2.617,7.412,7.412,0,0,1-1.3,1.523,5.493,5.493,0,0,0-.716,5.83,18.867,18.867,0,0,0,3.774,5.209,2.576,2.576,0,0,0,3.742.855,14.713,14.713,0,0,0,6.7-19.2c-1.233-2.955-3.289-5.786-3.308-8.907,0-2.477,1.273-4.843,1.5-7.309.274-3-1.5-7.758-5.118-9.067C666.026,190.615,664.041,191.6,662.964,193.084Z" transform="translate(-408.047 -121.663)" fill="#585268"/>
    <path id="Path_316" data-name="Path 316" d="M662.964,193.084c-2.123,2.895.024,7.011-2.255,9.826-.752.931-1.909,1.591-2.692,2.505a5.95,5.95,0,0,0-.684,5.985c.712,1.988,1.988,3.8,2.895,5.742a3.072,3.072,0,0,1,.294,2.617,7.412,7.412,0,0,1-1.3,1.523,5.493,5.493,0,0,0-.716,5.83,18.867,18.867,0,0,0,3.774,5.209,2.576,2.576,0,0,0,3.742.855,14.713,14.713,0,0,0,6.7-19.2c-1.233-2.955-3.289-5.786-3.308-8.907,0-2.477,1.273-4.843,1.5-7.309.274-3-1.5-7.758-5.118-9.067C666.026,190.615,664.041,191.6,662.964,193.084Z" transform="translate(-408.047 -121.663)" opacity="0.1"/>
    <path id="Path_317" data-name="Path 317" d="M696.152,464.55c-4.251.223-8.251,2.052-11.973,4.12s-7.325,4.41-11.329,5.877" transform="translate(-417.687 -287.826)" opacity="0.1"/>
    <path id="Path_318" data-name="Path 318" d="M694.584,489.74a17.525,17.525,0,0,0-11.035,5.368c-1.034,1.094-1.925,2.318-3,3.368a13.337,13.337,0,0,1-5.917,3.352" transform="translate(-418.76 -302.999)" opacity="0.1"/>
    <path id="Path_319" data-name="Path 319" d="M690.552,508.91a19.294,19.294,0,0,0-8.876,5.352c-.652.7-1.245,1.455-1.9,2.159-3.519,3.778-8.49,5.782-13.29,7.679" transform="translate(-413.856 -314.546)" opacity="0.1"/>
    <path id="Path_320" data-name="Path 320" d="M700.532,242.749a87.258,87.258,0,0,0,.875,10.148c.4,2.386.954,4.533,1.754,5.484,2.338,2.784-11.393,6.5-11.393,6.5L683.66,258.6s6.426-5.917,3.432-11.687S700.532,242.749,700.532,242.749Z" transform="translate(-424.199 -154.101)" fill="#cc818c"/>
    <path id="Path_321" data-name="Path 321" d="M658.79,392.405h32.429c-.9-2.45-1.5-4.235-1.5-4.235l-30.675,1.75Z" transform="translate(-409.218 -241.819)" opacity="0.1"/>
    <path id="Path_322" data-name="Path 322" d="M643.951,321.99h34.671a12.03,12.03,0,0,1,1.388-9.194,20.318,20.318,0,0,1,3.631-4.708l.239-.219,12.1-2.68.652-.143s.1-22.01-7.695-25.032a45.568,45.568,0,0,1-12.466-7.106l-10.709,3.309-7.889-3.977c-2.533,2.724-9.253,1.654-9.253,1.654-11,1.265-11,9.544-11,9.544s6.426,15,6.915,15S643.951,321.99,643.951,321.99Z" transform="translate(-396.467 -171.989)" fill="#46a16e"/>
    <path id="Path_323" data-name="Path 323" d="M669.286,355.637s-7.07-1.567-9.476-4.307" transform="translate(-409.833 -219.629)" opacity="0.1"/>
    <path id="Path_324" data-name="Path 324" d="M760.87,341.51l-8.2,6.72a13.957,13.957,0,0,0,.27,1.591l.239-.219,12.1-2.68Z" transform="translate(-465.767 -213.714)" opacity="0.1"/>
    <path id="Path_325" data-name="Path 325" d="M717.46,377.014s1.793,1.01,4.541,2.338h4.712a12.03,12.03,0,0,1,1.388-9.194l-8.307-2.688C722.622,370.1,717.46,377.014,717.46,377.014Z" transform="translate(-444.558 -229.351)" opacity="0.1"/>
    <path id="Path_326" data-name="Path 326" d="M627.729,293.76l-4.867,2.628-4.772,12.077s-4.967,13.242-4.482,16.749c0,0-1.75,8.279,1.364,9.739l8.112,3.674a.756.756,0,0,0,.974-1.042c-1.157-2.191-2.43-5.619-.4-7.5l-2.338-4.867,8.45-13.83,2.823-4.772Z" transform="translate(-381.708 -184.952)" fill="#46a16e"/>
    <path id="Path_327" data-name="Path 327" d="M676.994,350.128c.422,1.718,1.845,4.374,6.557,5.364l5.169,4.235,5.5,2.493,2.243,1.014.95-6.867-2.159-1.193-2.517-1.376s-5.679-10.287-14.669-5.965a1.988,1.988,0,0,0-1.074,2.294Z" transform="translate(-420.145 -216.884)" opacity="0.1"/>
    <path id="Path_328" data-name="Path 328" d="M677.746,348.693c.422,1.722,1.841,4.374,6.553,5.364l5.17,4.235,5.5,2.493,2.239,1.014.95-6.867L696,353.739l-2.5-1.364s-5.682-10.287-14.673-5.945a1.988,1.988,0,0,0-1.086,2.263Z" transform="translate(-420.604 -216.033)" fill="#cc818c"/>
    <circle id="Ellipse_60" data-name="Ellipse 60" cx="12.562" cy="12.562" r="12.562" transform="translate(254.713 72.431)" opacity="0.1"/>
    <circle id="Ellipse_61" data-name="Ellipse 61" cx="12.562" cy="12.562" r="12.562" transform="translate(254.713 72.141)" fill="#cc818c"/>
    <path id="Path_329" data-name="Path 329" d="M717.158,281.2l-3.778-7.341s5.527-2.235,5.929-4.824,5.3,3.034,4.239,4.9S717.158,281.2,717.158,281.2Z" transform="translate(-442.1 -169.656)" opacity="0.1"/>
    <path id="Path_330" data-name="Path 330" d="M717.158,279.73l-3.778-7.341s5.527-2.235,5.929-4.824,5.3,3.038,4.239,4.9S717.158,279.73,717.158,279.73Z" transform="translate(-442.1 -168.771)" fill="#46a16e"/>
    <path id="Path_331" data-name="Path 331" d="M622.313,342.728l20.873,28.062s-7.695,4.187-18.292-3.309l-4.577-5.456L607.25,340Z" transform="translate(-378.173 -212.804)" fill="#f6f8fb"/>
    <path id="Path_332" data-name="Path 332" d="M634.059,374.279l1.9-.052s11.612-11.27,14.463-5.567-7.233,11.031-7.233,11.031l-3.066,1.654-4,1.193-2.557-3.432Z" transform="translate(-394.027 -229.097)" fill="#cc818c"/>
    <path id="Path_333" data-name="Path 333" d="M632.88,389.508a2.837,2.837,0,0,1,.048,1.964.8.8,0,0,1-.346.378.886.886,0,0,1-.4.056,4,4,0,0,1-2.621-1.3,11.966,11.966,0,0,1-1.7-2.458,4.533,4.533,0,0,1-.871-2.927,4.268,4.268,0,0,1,2.159-2.521c1.925-1.273,1.988.211,2.41,1.849S632.438,387.853,632.88,389.508Z" transform="translate(-390.044 -238.238)" opacity="0.1"/>
    <path id="Path_334" data-name="Path 334" d="M632.148,389.508a2.86,2.86,0,0,1,.048,1.964.8.8,0,0,1-.346.378.9.9,0,0,1-.4.056,3.976,3.976,0,0,1-2.621-1.3,11.832,11.832,0,0,1-1.7-2.457,4.507,4.507,0,0,1-.867-2.927,4.262,4.262,0,0,1,2.155-2.521c1.929-1.273,1.988.211,2.414,1.849S631.7,387.853,632.148,389.508Z" transform="translate(-389.603 -238.238)" fill="#46a16e"/>
    <path id="Path_335" data-name="Path 335" d="M623.85,315.452l.97-1.642-.847,3.05Z" transform="translate(-375.781 -189.02)" opacity="0.1"/>
    <path id="Path_336" data-name="Path 336" d="M721.19,373.476l2.239,1.014.95-6.867-2.159-1.193C723.711,368.14,722.407,371.3,721.19,373.476Z" transform="translate(-446.805 -228.724)" opacity="0.1"/>
    <path id="Path_337" data-name="Path 337" d="M728.189,361.781s-7.229.441-10.3-1.531" transform="translate(-444.817 -225.002)" opacity="0.1"/>
    <g id="Group_82" data-name="Group 82" transform="translate(251.695 100.823)" opacity="0.1">
      <path id="Path_338" data-name="Path 338" d="M736.651,315.279a20.352,20.352,0,0,1,3.631-4.712,9.688,9.688,0,0,1,1.07-.581l11.27-2.314.652-.143s.1-22.01-7.691-25.032a46.81,46.81,0,0,1-12.152-6.844l.855-.262a45.445,45.445,0,0,0,12.466,7.106c7.794,3.018,7.691,25.032,7.691,25.032h-1.169l-11.532,2.207s-.5.481-.648.62a22.347,22.347,0,0,0-3.686,4.875,12.224,12.224,0,0,0-.966,9.241h-1.193A12.155,12.155,0,0,1,736.651,315.279Z" transform="translate(-705.873 -274.71)"/>
      <path id="Path_339" data-name="Path 339" d="M664.13,277.886c.187-.028.366-.056.561-.076a20.162,20.162,0,0,0,2.386.195A21.69,21.69,0,0,1,664.13,277.886Z" transform="translate(-664.13 -276.168)"/>
      <path id="Path_340" data-name="Path 340" d="M694.894,277.668l-7.134-3.611a3.776,3.776,0,0,0,.4-.378l7.444,3.766Z" transform="translate(-678.363 -273.68)"/>
    </g>
    <path id="Path_341" data-name="Path 341" d="M740.383,340l4.772,5.846.974,15.874s1.265,8.08-7.985,6.132-19.954-7.969-19.954-7.969,5.169-6.915,2.338-9.544l13.246,4.287s2.239-.489.485-2.434-2.064-5.456-2.064-5.456Z" transform="translate(-444.998 -212.804)" fill="#46a16e"/>
    <path id="Path_342" data-name="Path 342" d="M779.42,382.17l2.629,3.018A3.789,3.789,0,0,1,779.42,382.17Z" transform="translate(-481.879 -238.205)" opacity="0.1"/>
    <path id="Path_343" data-name="Path 343" d="M736.99,360.8l4.092,5.257-2.044.489Z" transform="translate(-443.931 -217.324)" opacity="0.1"/>
    <path id="Path_344" data-name="Path 344" d="M665.267,192.374a4.2,4.2,0,0,1,.437-3.424,27.029,27.029,0,0,0,1.69-3.137c.6-1.662.418-3.543,1.074-5.169,1.157-2.883,4.446-4.171,7.392-5.17a4.97,4.97,0,0,1,2.688-.366c1.193.282,1.968,1.364,2.943,2.092,4,2.982,10.506-.3,14.375,2.855a7.524,7.524,0,0,1,2.422,5.042,44.519,44.519,0,0,1-.024,5.734c-.064,3.348.565,7.011,3.07,9.23.756.668,1.646,1.169,2.386,1.861a3.258,3.258,0,0,1,1.193,2.66,9.231,9.231,0,0,1-.4,1.352c-.5,1.746.247,3.579,1.153,5.169,2.7,4.68,7.472,8.538,12.876,8.645-.362,2.728-3.181,4.311-5.706,5.428-3.181,1.428-6.569,2.827-10.073,2.648s-7.158-2.422-7.77-5.873c-.211-1.193-.183-2.628-1.193-3.249-.62-.378-1.424-.282-2.092-.565a3.685,3.685,0,0,1-1.762-2.481,22.335,22.335,0,0,1-1.038-6.362c-.044-2.561.294-5.356-1.157-7.464-1.344-1.952-3.73-2.943-5.281-4.736-1.432-1.662-2.986-3.666-5.333-3.977C673.9,192.66,667.184,197.07,665.267,192.374Z" transform="translate(-412.995 -113.437)" opacity="0.1"/>
    <path id="Path_345" data-name="Path 345" d="M665.267,190.9a4.2,4.2,0,0,1,.437-3.424,27.029,27.029,0,0,0,1.69-3.137c.6-1.662.418-3.543,1.074-5.169,1.157-2.887,4.446-4.175,7.392-5.17a4.97,4.97,0,0,1,2.688-.366c1.193.282,1.968,1.364,2.943,2.092,4,2.982,10.506-.3,14.375,2.855a7.525,7.525,0,0,1,2.422,5.046,44.454,44.454,0,0,1-.024,5.73c-.064,3.348.565,7.011,3.07,9.23.756.668,1.646,1.169,2.386,1.861a3.258,3.258,0,0,1,1.193,2.66,9.23,9.23,0,0,1-.4,1.352c-.5,1.746.247,3.579,1.153,5.17,2.712,4.664,7.46,8.534,12.864,8.641-.362,2.728-3.181,4.311-5.706,5.432-3.181,1.424-6.569,2.823-10.073,2.644s-7.158-2.422-7.77-5.873c-.211-1.193-.183-2.628-1.193-3.249-.62-.378-1.424-.282-2.092-.565a3.685,3.685,0,0,1-1.762-2.481,22.309,22.309,0,0,1-1.038-6.362c-.044-2.561.294-5.356-1.157-7.464-1.344-1.952-3.73-2.943-5.281-4.736-1.432-1.662-2.986-3.666-5.333-3.977C673.9,191.19,667.184,195.608,665.267,190.9Z" transform="translate(-412.995 -112.551)" fill="#585268"/>
    <path id="Path_346" data-name="Path 346" d="M684.246,280.841l7.2-5.846s-4.931-2.672-5.519-4.951-4.533,1.082-4.132,3.126S684.246,280.841,684.246,280.841Z" transform="translate(-423.059 -170.208)" opacity="0.1"/>
    <path id="Path_347" data-name="Path 347" d="M684.993,278.637l7.2-5.842s-4.931-2.672-5.5-4.951-4.533,1.082-4.132,3.126S684.993,278.637,684.993,278.637Z" transform="translate(-423.523 -168.883)" fill="#46a16e"/>
    <circle id="Ellipse_62" data-name="Ellipse 62" cx="0.573" cy="0.573" r="0.573" transform="translate(268.381 108.232)" opacity="0.1"/>
    <circle id="Ellipse_63" data-name="Ellipse 63" cx="0.573" cy="0.573" r="0.573" transform="translate(268.381 111.413)" opacity="0.1"/>
    <circle id="Ellipse_64" data-name="Ellipse 64" cx="0.573" cy="0.573" r="0.573" transform="translate(268.381 114.59)" opacity="0.1"/>
    <g id="Group_83" data-name="Group 83" transform="translate(252.155 65.341)" opacity="0.1">
      <path id="Path_348" data-name="Path 348" d="M671.758,189.341c.569-1.563.445-3.316.978-4.891a5.345,5.345,0,0,0-.608,1.121c-.66,1.642-.473,3.523-1.078,5.169l-.04.1A9.083,9.083,0,0,0,671.758,189.341Z" transform="translate(-668.735 -184.45)"/>
      <path id="Path_349" data-name="Path 349" d="M713.743,241.962c-3.181,1.424-6.569,2.823-10.073,2.644s-7.158-2.422-7.77-5.869c-.211-1.193-.183-2.632-1.193-3.253-.62-.378-1.424-.282-2.092-.565a3.685,3.685,0,0,1-1.762-2.481,22.313,22.313,0,0,1-1.038-6.362c-.044-2.557.3-5.352-1.153-7.464-1.348-1.952-3.734-2.939-5.285-4.736-1.432-1.658-2.986-3.666-5.333-3.977-3.217-.437-9.941,3.977-11.842-.724a3.7,3.7,0,0,1,.123-2.716c-.139.235-.274.469-.4.708a4.212,4.212,0,0,0-.433,3.428c1.913,4.692,8.625.282,11.842.724,2.346.318,3.9,2.326,5.333,3.977,1.551,1.8,3.937,2.784,5.281,4.74,1.455,2.108,1.113,4.9,1.157,7.46a22.307,22.307,0,0,0,1.038,6.362,3.694,3.694,0,0,0,1.762,2.481c.668.282,1.471.191,2.092.565,1.026.62,1,2.072,1.193,3.253.62,3.448,4.271,5.69,7.77,5.869s6.871-1.217,10.073-2.644c2.306-1.026,4.875-2.446,5.567-4.772A12.046,12.046,0,0,1,713.743,241.962Z" transform="translate(-665.288 -197.708)"/>
    </g>
    <path id="Path_350" data-name="Path 350" d="M848.426,284.511c-8.418-4.843-11.6-6.036-11.615-6.036l-.175-.123a7,7,0,0,1-2.119-2.68,5.556,5.556,0,0,1,0-.577.243.243,0,0,0,0,.056c.131-2.565,1.956-4.9,3.686-6.935l4.426-5.205a5.13,5.13,0,0,0,1.141-1.805,4.167,4.167,0,0,0,.119-1.109q0-.227,0-.453c-.024-1.292-.06-2.589-.107-3.881-.04-1.129-.33-2.553-1.459-2.784-.589-.119-1.368.091-1.678-.4a.966.966,0,0,1-.076-.672.23.23,0,0,0,0,.056V251.9a14.98,14.98,0,0,0,.418-2.66,3.627,3.627,0,0,0-.183-1.348c-.652-1.873-2.907-2.644-4.9-3s-4.227-.656-5.476-2.215a16.2,16.2,0,0,0-1.09-1.5,4.3,4.3,0,0,0-2.036-1.006,11.532,11.532,0,0,0-7.408.644,6.649,6.649,0,0,1-2.986.946c-1.058-.064-2.036-.827-3.118-1.01-1.75-.3-3.424.986-4.287,2.509a6.137,6.137,0,0,0-.8,2.959v.175h0a4.327,4.327,0,0,0,1.137,3.022c.756.8,1.877,1.32,2.191,2.35.127.418.1.871.211,1.3a1.157,1.157,0,0,0,.048.155l-.056.076a13.123,13.123,0,0,0-2.784,8.088,13.425,13.425,0,0,0,9.432,12.725v.4a5.721,5.721,0,0,1-1.829,4.454l-11.926,4.764s-7.19-.855-9.782,9.651a17.915,17.915,0,0,0-.445,5.329,15.447,15.447,0,0,1-1.988,7.981c-2.947,5.774-2.275,19.028,3.754,20.34,5.69,1.241,7.917.724,8.152.664v.231c-.1,2.489-1,23.939-4.279,26.531-.907.72-.74,1.193,0,1.531,0,0,0,.139-.02.4-.1,1.591-.6,7.555-2.784,10.943-2.549,3.937-2.283,26.643-2.283,26.643l-1.738,13.385s1.07,8.267,0,9.711c-.958,1.284-2.231,31.868-2.5,38.5h-.111a3.229,3.229,0,0,0-2.577,1.591c-1.408,2.286-6.339,6.514-6.339,6.514-1.07,1.519-5.026,2.974-7.118,3.658a4.427,4.427,0,0,0-.8.35,4.243,4.243,0,0,0-1.8,1.893,2.032,2.032,0,0,0-.191,1.591c.533,1.308,11.655,2.231,14.471.915,2.211-1.03,10.975-2.386,14.614-2.919a3,3,0,0,0,2.6-2.6,1.714,1.714,0,0,0-.334-1.3h0c-.7-.863-1.05-3.221-1.193-4.772a3.225,3.225,0,0,0,.819-.485,34.934,34.934,0,0,1,1.988-14.041c2.68-7.086,3.483-20.209,2.815-28.738,0,0,8.172-35.169,14.606-38.449h0c.1.127,3.221,4.132,3.619,16.534.4,12.6,4.955,20.865,4.955,20.865s-2.012,21.39,0,29.395l-2.628,12.625c-.195-.163-.318-.29-.318-.29s.079.35.187.911l-.056.27.115.024a24.852,24.852,0,0,1,.557,5.965c-.1.919-.362,2.179-.537,3.416-.278,1.945-.354,3.829.668,4.243,1.678.676,11.532,1.591,13.2-.573a3.1,3.1,0,0,0,.485-3.241,3.284,3.284,0,0,0-.485-.827s-2.617-4.275-1.877-7.289a2.219,2.219,0,0,0-.314-1.73,88.9,88.9,0,0,1,2.255-14.141c1.678-6.315,5.213-20.161,2.613-29.263h0q-.147-.537-.334-1.05a39.3,39.3,0,0,1-1.475-15.353,31.293,31.293,0,0,1,0-13.385c1.61-7.349,2.736-14.566,2.736-14.566s.887-9.711.111-15.664a3.913,3.913,0,0,0-.052-.4l.422-.1s-2.279-10.1-3.082-16.534c-.191-1.519-.437-3.44-.708-5.492a14.019,14.019,0,0,0,2.183-.545c7.233-2.493,9.512-25.052,9.512-25.052V300.37S856.868,289.367,848.426,284.511ZM794.52,458.779c-.223-.111-.354-.187-.354-.187h0Z" transform="translate(-477.538 -152.472)" fill="url(#linear-gradient-3)"/>
    <path id="Path_351" data-name="Path 351" d="M873.627,582.569c3.138,9.023-.525,23.668-2.227,30.222a91.365,91.365,0,0,0-2.223,14.387,30.3,30.3,0,0,1-11.508-.262l2.748-13.469c-1.964-7.977,0-29.3,0-29.3s-4.446-8.239-4.839-20.793c-.4-12.355-3.432-16.352-3.527-16.475h0C845.776,550.152,837.8,585.2,837.8,585.2c.652,8.5-.135,21.577-2.748,28.631a35.391,35.391,0,0,0-1.96,13.99,4.254,4.254,0,0,1-3.579.684c-3.734-.6-8.212-3.821-8.212-3.821s1.435-38.175,2.485-39.622,0-9.679,0-9.679l1.7-13.337s-.262-22.627,2.223-26.547c2.147-3.388,2.64-9.345,2.736-10.908v-.4l3.786-4.533s36.616-2.748,39.368,0c.672.672,1.09,2.207,1.336,4.136.756,5.933-.111,15.608-.111,15.608s-1.1,7.194-2.668,14.514a31.86,31.86,0,0,0,0,13.341A39.937,39.937,0,0,0,873.627,582.569Z" transform="translate(-507.106 -320.286)" fill="#65617d"/>
    <path id="Path_352" data-name="Path 352" d="M926.217,799.415c-1.634,2.159-11.246,1.245-12.884.573-1-.4-.923-2.294-.652-4.231.171-1.229.422-2.485.525-3.4.258-2.354-.8-7.13-.8-7.13s2.155,2.29,2.676,0a2.494,2.494,0,0,1,1.869-1.774,4.883,4.883,0,0,1,3.4.211c1.7.74,4.529,2.31,4.024,4.434-.72,3,1.829,7.265,1.829,7.265a3.309,3.309,0,0,1,.477.819A3.138,3.138,0,0,1,926.217,799.415Z" transform="translate(-561.985 -479.79)" fill="#a27772"/>
    <path id="Path_353" data-name="Path 353" d="M926.36,818.368c-1.634,2.159-11.246,1.245-12.884.573-1-.4-.923-2.294-.652-4.231a11.094,11.094,0,0,0,5.714.616,16.12,16.12,0,0,1,2.056-.064,47.833,47.833,0,0,0,6.243-.127A3.138,3.138,0,0,1,926.36,818.368Z" transform="translate(-562.129 -498.744)" opacity="0.1"/>
    <path id="Path_354" data-name="Path 354" d="M850.227,624.423c.652,8.5-.135,21.577-2.748,28.631a35.392,35.392,0,0,0-1.96,13.989,4.254,4.254,0,0,1-3.579.684c.8-5.515,4.151-29.279,6.3-48.056a78.637,78.637,0,0,1,13.918-36.091l2.286,2.517C858.2,589.374,850.227,624.423,850.227,624.423Z" transform="translate(-519.538 -359.524)" opacity="0.1"/>
    <path id="Path_355" data-name="Path 355" d="M896.89,316.881l-1.591,7.846-7.822,13.142-9.643-4.12s-13.123-13.731-4.871-15.691a7.3,7.3,0,0,0,2.736-1.217,5.658,5.658,0,0,0,2.135-4.732,14.507,14.507,0,0,0-1.328-5.623l16.869-5.3a27.076,27.076,0,0,0-1.193,6.832c-.131,4.6,1.591,6.86,2.978,7.953A5.067,5.067,0,0,0,896.89,316.881Z" transform="translate(-536.584 -189.427)" fill="#fbbebe"/>
    <path id="Path_356" data-name="Path 356" d="M902.853,301.19a27.076,27.076,0,0,0-1.193,6.832,12.82,12.82,0,0,1-.982,1.046,13.345,13.345,0,0,1-13.337,3.042,14.506,14.506,0,0,0-1.34-5.623Z" transform="translate(-546.077 -189.427)" opacity="0.1"/>
    <path id="Path_357" data-name="Path 357" d="M892.833,275.557a13.278,13.278,0,1,1-3.89-9.449,13.341,13.341,0,0,1,3.89,9.449Z" transform="translate(-534.121 -165.953)" fill="#fbbebe"/>
    <path id="Path_358" data-name="Path 358" d="M896.89,339.259,895.3,347.1l-7.822,13.142-9.643-4.12s-13.123-13.731-4.871-15.691a7.3,7.3,0,0,0,2.736-1.217c-1.487,4.088,4.653,12.594,4.653,12.594.716,1.054,2.354.4,2.354.4,3.957-.6,11.238-11.977,12.427-13.87A5.065,5.065,0,0,0,896.89,339.259Z" transform="translate(-536.584 -211.804)" opacity="0.1"/>
    <path id="Path_359" data-name="Path 359" d="M888.835,523.792c-2.322.529-15.17,3.372-20.042,2.66-5.36-.8-15.783-1.3-15.783-1.3s-6.637.358-8.681-.577v-.4l3.786-4.533s36.616-2.748,39.368,0C888.171,520.328,888.589,521.863,888.835,523.792Z" transform="translate(-520.978 -320.274)" opacity="0.1"/>
    <path id="Path_360" data-name="Path 360" d="M850.963,352.393s-6.9-9.544-4.3-13.282l-11.655,4.772s-7.015-.851-9.544,9.619a18.218,18.218,0,0,0-.433,5.313,15.718,15.718,0,0,1-1.921,7.953c-2.875,5.754-2.223,18.964,3.662,20.28s7.973.652,7.973.652-.8,23.931-4.183,26.679,8.669,2.092,8.669,2.092,10.423.525,15.787,1.308,20.4-2.748,20.4-2.748-2.223-10.069-3.01-16.475-2.621-20.054-2.621-20.054l13.337-18.069s2.354-10.92-5.885-15.759S865.9,338.65,865.9,338.65s-8.279,13.48-12.594,14.133C853.317,352.783,851.678,353.443,850.963,352.393Z" transform="translate(-507.199 -211.991)" fill="#46a16e"/>
    <path id="Path_361" data-name="Path 361" d="M853.813,382.74s-.127,4.319.656,6.017,3.662,11.134,3.662,11.134H851.59s3.531-3.794,3.273-5.627S853.813,382.74,853.813,382.74Z" transform="translate(-525.351 -238.548)" opacity="0.1"/>
    <path id="Path_362" data-name="Path 362" d="M874.291,436.868s-14.443-3.531-15.787-6.537-5.054-9.739-5.054-9.739l1.523-2.052L862,424.051s8.351,6.669,12.3,7.325S874.291,436.868,874.291,436.868Z" transform="translate(-526.471 -260.112)" fill="#fbbebe"/>
    <path id="Path_363" data-name="Path 363" d="M874.291,436.868s-14.443-3.531-15.787-6.537-5.054-9.739-5.054-9.739l1.523-2.052L862,424.051s8.351,6.669,12.3,7.325S874.291,436.868,874.291,436.868Z" transform="translate(-526.471 -260.112)" opacity="0.05"/>
    <path id="Path_364" data-name="Path 364" d="M897.74,421.748v7.834h-1.257a36.619,36.619,0,0,0-17.789,4.608l-2.356,1.3-.632.354L871.65,426.7l3.794-3.4h.195c.927.091,4.939.426,6.641-.147,1.614-.549,3.619-2.286,8.375-1.074,2.342.6,4.346,3.225,6.617,2.406Z" transform="translate(-537.434 -261.992)" fill="#fbbebe"/>
    <path id="Path_365" data-name="Path 365" d="M925.866,372.535l2.613,2.943v7.13s-2.223,22.491-9.281,24.977-19.668-1.439-19.668-1.439-3.257-8.629-1.734-9.146,13.461-3.674,13.461-3.674-.167-13.194,2.446-17.119c0,0-1.7-12.291,4.187-12.554S925.866,372.535,925.866,372.535Z" transform="translate(-552.938 -227.047)" opacity="0.1"/>
    <path id="Path_366" data-name="Path 366" d="M926.869,372.535l2.617,2.943v7.13s-2.223,22.491-9.285,24.977-19.668-1.439-19.668-1.439-3.257-8.629-1.73-9.146,13.461-3.674,13.461-3.674-.171-13.194,2.446-17.119c0,0-1.7-12.291,4.183-12.554S926.869,372.535,926.869,372.535Z" transform="translate(-553.544 -227.047)" fill="#46a16e"/>
    <path id="Path_367" data-name="Path 367" d="M893.306,281.148a5.258,5.258,0,0,0-.3-2.549,1.941,1.941,0,0,0-2.076-1.193c-1.117.262-1.591,1.718-2.7,2.068a2.155,2.155,0,0,1-2.386-1.225,6.1,6.1,0,0,1-.453-2.847v-3.277a5.423,5.423,0,0,0-.771-3.408c-.911-1.161-3.054-1.67-4.486-1.622a3.805,3.805,0,0,0-2.561,1.03,3.3,3.3,0,0,1-2.692.958,2.318,2.318,0,0,1-1.877-1.622v-.04a13.337,13.337,0,1,1,19.827,17.7,35.974,35.974,0,0,0,.469-3.977Z" transform="translate(-538.253 -165.881)" opacity="0.1"/>
    <path id="Path_368" data-name="Path 368" d="M869.649,256.439a2.338,2.338,0,0,1-1.881-1.626c-.107-.422-.08-.871-.2-1.288-.306-1.03-1.4-1.563-2.139-2.346-1.471-1.563-1.376-4.132-.334-6.013.843-1.515,2.473-2.784,4.183-2.5,1.058.183,1.988.934,3.046,1.006a6.146,6.146,0,0,0,2.915-.942,10.983,10.983,0,0,1,7.245-.644,4.175,4.175,0,0,1,1.988,1.006,17.389,17.389,0,0,1,1.062,1.491c1.217,1.551,3.4,1.857,5.344,2.207s4.143,1.121,4.772,2.99c.425,1.241,0,2.585-.231,3.873a1.169,1.169,0,0,0,.052.8c.306.5,1.066.29,1.638.4,1.1.235,1.384,1.654,1.428,2.784q.068,1.933.1,3.869a4.93,4.93,0,0,1-.115,1.432,5.054,5.054,0,0,1-1.109,1.8l-4.318,5.189c-1.917,2.3-3.949,4.979-3.579,7.953a1.852,1.852,0,0,1-2.283-1.328,5.941,5.941,0,0,1,.143-2.947,36.111,36.111,0,0,0,.692-5.11,5.24,5.24,0,0,0-.3-2.545,1.941,1.941,0,0,0-2.076-1.193c-1.121.262-1.591,1.718-2.7,2.068a2.155,2.155,0,0,1-2.386-1.225,6.084,6.084,0,0,1-.453-2.843v-3.281a5.423,5.423,0,0,0-.771-3.408c-.911-1.161-3.054-1.67-4.486-1.622a3.806,3.806,0,0,0-2.557,1.03A3.3,3.3,0,0,1,869.649,256.439Z" transform="translate(-533.015 -153.623)" fill="#7c5c5c"/>
    <path id="Path_369" data-name="Path 369" d="M885.3,381.92l4.1,16.825S892.625,398.725,885.3,381.92Z" transform="translate(-545.656 -238.055)" opacity="0.1"/>
    <path id="Path_370" data-name="Path 370" d="M914.805,374.85s-5.36,8.78-3.269,17.863l1,.072S910.753,388.581,914.805,374.85Z" transform="translate(-561.167 -233.796)" opacity="0.1"/>
    <path id="Path_371" data-name="Path 371" d="M929,499.112s6.585-2.179,7.062,2.875C936.078,501.987,934.838,498.524,929,499.112Z" transform="translate(-571.978 -308.363)" opacity="0.1"/>
    <path id="Path_372" data-name="Path 372" d="M864.138,426.81s-1.308,9.146,1.046,12.816a28.681,28.681,0,0,1-11.508,1.571l-.8-14.387Z" transform="translate(-526.128 -265.094)" opacity="0.1"/>
    <path id="Path_373" data-name="Path 373" d="M876.338,437.982l-.632.354-4.056-9.146,3.794-3.4h.195C875.579,426.243,874.521,434.1,876.338,437.982Z" transform="translate(-537.434 -264.479)" opacity="0.1"/>
    <path id="Path_374" data-name="Path 374" d="M858.409,425.83s-1.308,9.146,1.046,12.812a28.6,28.6,0,0,1-11.508,1.571L843.37,425.83Z" transform="translate(-520.399 -264.504)" fill="#46a16e"/>
    <path id="Path_375" data-name="Path 375" d="M805.778,793.341a2.962,2.962,0,0,1-2.541,2.593c-3.551.529-12.1,1.881-14.264,2.911-2.748,1.308-13.6.4-14.125-.915a2.076,2.076,0,0,1,.187-1.591,4.192,4.192,0,0,1,1.754-1.885,4.654,4.654,0,0,1,.8-.35c2.044-.68,5.905-2.127,6.947-3.646,0,0,4.816-4.211,6.188-6.486a3.142,3.142,0,0,1,2.513-1.567c1.145-.052,2.422.525,2.947,3.034,0,0,6.271,3.579,7.953.441,0,0,.262,4.82,1.3,6.14h0A1.749,1.749,0,0,1,805.778,793.341Z" transform="translate(-479.077 -479.283)" fill="#a27772"/>
    <path id="Path_376" data-name="Path 376" d="M805.778,807.91a2.963,2.963,0,0,1-2.541,2.593c-3.551.529-12.1,1.881-14.264,2.911-2.748,1.308-13.6.4-14.125-.915a2.076,2.076,0,0,1,.187-1.591,4.191,4.191,0,0,1,1.754-1.885c1.77,1.193,5.7,2.322,14.339.974,8.243-1.288,12.327-2.549,14.316-3.408h0a1.75,1.75,0,0,1,.334,1.32Z" transform="translate(-479.077 -493.853)" opacity="0.1"/>
    <g id="Group_84" data-name="Group 84" transform="translate(331.287 94.31)" opacity="0.1">
      <path id="Path_377" data-name="Path 377" d="M942.424,267.554v-.064a11.712,11.712,0,0,0,.4-2.97,19.608,19.608,0,0,1-.4,2.386A1.448,1.448,0,0,0,942.424,267.554Z" transform="translate(-911.33 -261.649)"/>
      <path id="Path_378" data-name="Path 378" d="M887.749,275.445a3.781,3.781,0,0,1,.322,1.5,4.508,4.508,0,0,0-.322-2.084,1.933,1.933,0,0,0-2.072-1.193c-1.121.262-1.591,1.718-2.7,2.068a2.159,2.159,0,0,1-2.386-1.225,6.05,6.05,0,0,1-.453-2.847v-3.277a5.423,5.423,0,0,0-.771-3.408c-.915-1.165-3.054-1.67-4.486-1.626a3.81,3.81,0,0,0-2.561,1.034,3.3,3.3,0,0,1-2.7.958,2.33,2.33,0,0,1-1.877-1.622c-.107-.422-.079-.875-.2-1.292-.306-1.026-1.4-1.563-2.139-2.342a4.283,4.283,0,0,1-1.1-2.784,4.458,4.458,0,0,0,1.1,3.352c.736.8,1.833,1.316,2.139,2.342.123.4.1.871.2,1.292a2.33,2.33,0,0,0,1.877,1.622,3.3,3.3,0,0,0,2.7-.958,3.809,3.809,0,0,1,2.561-1.034c1.432-.044,3.579.461,4.486,1.626a5.455,5.455,0,0,1,.771,3.408v3.277a6.018,6.018,0,0,0,.453,2.843,2.165,2.165,0,0,0,2.386,1.229c1.1-.35,1.591-1.805,2.7-2.068A2.008,2.008,0,0,1,887.749,275.445Z" transform="translate(-864.285 -257.3)"/>
      <path id="Path_379" data-name="Path 379" d="M936.657,292.6a5.026,5.026,0,0,1-1.113,1.8l-4.319,5.189c-1.817,2.183-3.738,4.712-3.579,7.5.131-2.557,1.913-4.883,3.579-6.911l4.319-5.189a5.026,5.026,0,0,0,1.113-1.8,4.965,4.965,0,0,0,.115-1.436A3.785,3.785,0,0,1,936.657,292.6Z" transform="translate(-902.445 -278.051)"/>
      <path id="Path_380" data-name="Path 380" d="M921.783,327.05a3.055,3.055,0,0,1-.131-.7,3.525,3.525,0,0,0,.131,1.288,1.845,1.845,0,0,0,2.283,1.324,5.566,5.566,0,0,1-.048-.573A1.848,1.848,0,0,1,921.783,327.05Z" transform="translate(-898.832 -298.892)"/>
    </g>
    <path id="Path_381" data-name="Path 381" d="M812.69,789.36s1.368,2.386,6.323.286" transform="translate(-501.919 -483.474)" opacity="0.1"/>
    <path id="Path_382" data-name="Path 382" d="M918,790.82s4.271,5.03,9.655,1.65" transform="translate(-565.353 -484.354)" opacity="0.1"/>
    <path id="Path_383" data-name="Path 383" d="M944.538,641.23s-3.018,1.885-3.114,2.963,1.559-.8,1.559-.8Z" transform="translate(-579.46 -394.249)" opacity="0.1"/>
    <path id="Path_384" data-name="Path 384" d="M944.052,677.59a6.31,6.31,0,0,1-3.718,1.451c-2.259.1-2.068,3.042-.593,2.159A37.011,37.011,0,0,0,944.052,677.59Z" transform="translate(-577.781 -416.15)" opacity="0.1"/>
    <path id="Path_385" data-name="Path 385" d="M949.725,682.34s-1.447,7.114-2.625,5.742" transform="translate(-582.881 -419.011)" opacity="0.1"/>
    <path id="Path_386" data-name="Path 386" d="M243.881,463.129s9.086,2.493,13.461-.823,6.271-2.251,6.271-2.251,10.43-.577,11.289-3.042-4-11.421-4-11.421c-.346-.8-.851-1.805-1.078-1.805l.048-3.778h0l1.511-15.807c3.487-8.943.064-20.5.064-20.5l-.624-2.867a7.253,7.253,0,0,1,.592-4.772l6.335-12.725a19.039,19.039,0,0,1,1.193-2.442c.4-.728.927-1.626,1.591-2.7.195-.31.4-.632.62-.97.767-1.193,1.7-2.545,2.823-4.1a33.581,33.581,0,0,0,5.042-12.327l.338,1.121h.076l.091.02h.151l.163.028h.06l1.949,24.8c.119,9.671,3.67,15.023,3.67,15.023l-.489,21.35c.668,5.142-.8,12-1.467,14.733l-1.535,3.464a4.163,4.163,0,0,0-2.263,3.149c-.3,2.557-2.994,8.068-2.994,8.068-1.042,1.32-3.3,4.887-3.3,4.887s-1.066,3.444-.406,4.732,6.18,1.157,6.18,1.157c6.3,1.4,11.134-1.988,10.828-4.319s.982-2.923.982-2.923c2.505-.8,2.263-2.493,2.263-2.493a15.6,15.6,0,0,0-1.9-10.156l-.4.919a13.985,13.985,0,0,1,.756-5.42l-.231.159-.072.044h-.024c.4-3.487,4.06-9.941,4.06-9.941,6.728-11.8,4.283-27.8,4.283-27.8l-1.042-4.987-.06-1.881a62.777,62.777,0,0,1,1.014-13.4c.362-1.956.736-4.318,1.022-6.923a61.192,61.192,0,0,1,3.452-13.588l.266-.048h.032c.366-.064.736-.127,1.109-.2h.072s.215-1.161.4-3.138c.107-1.261.195-2.859.195-4.7a52.837,52.837,0,0,0-2.509-16.348l.2-.29s.481-.652,1.36-1.781h0c1.614-2.052,4.128-5.169,7.225-8.685,5.547-6.327,3.917-12.725,3.917-12.725s-4.016-14.717-5.806-23.553a26.784,26.784,0,0,0-4.406-10.478,20.852,20.852,0,0,0,.557-4.247,15.515,15.515,0,0,0-1.149-7.695c-1.177-2.35-3.682-4.207-6.3-3.893a2.41,2.41,0,0,1-1.129,0,1.718,1.718,0,0,1-.744-.648c-1.531-2.112-1.63-4.951-1.153-7.512s1.455-5.01,1.893-7.579.239-5.42-1.4-7.456c-1.921-2.386-5.269-3.058-7.766-4.851-1.754-1.261-3.07-3.07-4.919-4.187s-3.579-.692-5.587-.27c-3.376.712-6.585,1.038-9.778,2.489a26.042,26.042,0,0,0-8.522,6.2,8.089,8.089,0,0,0-1.9,3c-.8,2.628.76,5.428.433,8.148-.231,1.929-1.368,3.607-2.271,5.329s-1.591,3.766-.883,5.567c1.113,2.815,4.744,3.412,7.384,4.911a2.254,2.254,0,0,1,.875.76c.652,1.137-.68,2.318-1.519,3.328a5.014,5.014,0,0,0-.994,2.02,7.205,7.205,0,0,0-4.323,5.217c-.895,4,.481,9.059,1.694,12.4-1.324,7.44.4,10.375,1.666,11.5a6.382,6.382,0,0,1,2.211,4.35v.139c.083,1.352.227,2.7.418,4.044h0c-.044-.314-.087-.648-.111-.8-1.038,1.921-3.014,6.828-4.128,15.083a45.336,45.336,0,0,1-1.006,5.253,28.726,28.726,0,0,0-.843,9.393l.2,2.676a.843.843,0,0,1-.541-.179l1.4,2.557v4.315a15.906,15.906,0,0,1-1.058,5.69c-.1.262-.207.525-.322.8a4.628,4.628,0,0,0-.469,2.342c-3,4.6-9.886,30.385-9.886,30.385-3.734,8.454.306,13.918.306,13.918s1.956,23.537,2.322,24.754,1.177,15.564,1.177,15.564h0v1.141a2.676,2.676,0,0,0-.68-.195c-3.273-.183-4.159,4.987-4.159,4.987l-6.7,6.394s-3.058-.517-7.555,2.859S243.881,463.129,243.881,463.129ZM310.747,327.1l-.02-.072-.183.107h0l-.076.044-.036.024h0l-3.086-10.892a18.085,18.085,0,0,1-.227-8.959l2.386-10.45h0v-2.513l7.583,20.209C317.574,317.317,313.069,323.914,310.747,327.1Z" transform="translate(-156.676 -146.483)" fill="url(#linear-gradient-4)"/>
    <path id="Path_387" data-name="Path 387" d="M390.046,557a62.627,62.627,0,0,0-3.841,14.594c-.282,2.577-.648,4.907-1.006,6.84a62.5,62.5,0,0,0-.978,13.23l.06,1.857.994,4.919s2.386,15.8-4.2,27.438c0,0-3.9,6.971-4.024,10.271l-2.644,1.022-5.344-1.5s2.581-9.253,1.742-15.739l.481-21.076s-3.471-5.273-3.591-14.817l-2.04-26.19Z" transform="translate(-232.647 -343.513)" fill="#fdc2cc"/>
    <path id="Path_388" data-name="Path 388" d="M313.427,547.62s-.656,10.212-5.706,17.25-6.124,10.092-6.124,10.092l-6.219,12.574a7.2,7.2,0,0,0-.585,4.7l.612,2.831s3.364,11.413-.06,20.245l-1.622,17.059h-9.488s-.8-14.176-1.141-15.377-2.283-24.448-2.283-24.448-3.977-5.408-.3-13.755c0,0,8.291-31.236,10.51-30.695S313.427,547.62,313.427,547.62Z" transform="translate(-180.424 -337.863)" fill="#fdc2cc"/>
    <g id="Group_85" data-name="Group 85" transform="translate(112.337 209.757)" opacity="0.1">
      <path id="Path_389" data-name="Path 389" d="M315.362,595.092l-.608-2.831a7.158,7.158,0,0,1,.581-4.724l6.219-12.586s1.078-3.062,6.124-10.092c4.847-6.76,5.647-16.447,5.7-17.191l.966-.048s-.656,10.212-5.706,17.25-6.124,10.092-6.124,10.092L316.3,587.536a7.2,7.2,0,0,0-.585,4.7l.612,2.831s3.364,11.413-.06,20.245l-1.622,17.059h-.962l1.622-17.059C318.726,606.485,315.362,595.092,315.362,595.092Z" transform="translate(-313.68 -547.62)"/>
    </g>
    <path id="Path_390" data-name="Path 390" d="M388.515,636.161c.119-3.3,4.024-10.271,4.024-10.271,6.609-11.651,4.2-27.438,4.2-27.438l-1.018-4.923-.06-1.857a62.5,62.5,0,0,1,.978-13.23c.354-1.933.72-4.263,1-6.84a62.615,62.615,0,0,1,3.829-14.562l.986-.04a62.627,62.627,0,0,0-3.841,14.594c-.282,2.577-.648,4.907-1.006,6.84a62.5,62.5,0,0,0-.978,13.23l.06,1.857.994,4.919s2.386,15.8-4.2,27.438c0,0-3.9,6.971-4.024,10.271l-2.644,1.022-.557-.155Z" transform="translate(-245.061 -343.513)" opacity="0.1"/>
    <path id="Path_391" data-name="Path 391" d="M375.026,753.427a4.6,4.6,0,0,0,4.374-.541,14.117,14.117,0,0,0-.358,7.929c1.082,4.326-10.092-3.483-10.092-3.483l2.386-5.452S372.262,753.606,375.026,753.427Z" transform="translate(-234.634 -460.899)" fill="#d39999"/>
    <path id="Path_392" data-name="Path 392" d="M375.869,753.651a4.466,4.466,0,0,0,3.551-.8,14.117,14.117,0,0,0-.358,7.929c1.082,4.326-10.092-3.483-10.092-3.483l2.386-5.452a3.409,3.409,0,0,0,2.724,1.535C374.7,753.457,375.285,753.54,375.869,753.651Z" transform="translate(-234.646 -460.88)" opacity="0.1"/>
    <path id="Path_393" data-name="Path 393" d="M289.32,440.426h4.668V413.938l-3.5-.628Z" transform="translate(-174.279 -248.953)" fill="#fdc2cc"/>
    <path id="Path_394" data-name="Path 394" d="M289.32,440.426h4.668V413.938l-3.5-.628Z" transform="translate(-174.279 -248.953)" opacity="0.05"/>
    <path id="Path_395" data-name="Path 395" d="M360.042,760.19a4.654,4.654,0,0,1,4.263,2.461l1.622,1.261.8-1.861a15.509,15.509,0,0,1,1.837,10.033s.239,1.678-2.223,2.461c0,0-1.261.6-.962,2.883s-4.442,5.647-10.629,4.263c0,0-5.408.123-6.068-1.141s.422-4.625.422-4.625,2.223-3.523,3.241-4.823c0,0,2.644-5.448,2.947-7.953S358.479,758.806,360.042,760.19Z" transform="translate(-222.294 -465.618)" fill="#7e5659"/>
    <path id="Path_396" data-name="Path 396" d="M301.176,760.537l.048-3.734s-5.372,1.547-9.723-.2c0,0,.366,3.754-.239,4.267s2.012,5.344,2.012,5.344l2.923,3.062,5.026-1.829,1.364-4.295S301.534,760.537,301.176,760.537Z" transform="translate(-187.785 -463.742)" fill="#d39999"/>
    <path id="Path_397" data-name="Path 397" d="M301.176,760.537l.048-3.734s-5.372,1.547-9.723-.2c0,0,.366,3.754-.239,4.267s2.012,5.344,2.012,5.344l2.923,3.062,5.026-1.829,1.364-4.295S301.534,760.537,301.176,760.537Z" transform="translate(-187.785 -463.742)" opacity="0.1"/>
    <path id="Path_398" data-name="Path 398" d="M261.03,763.093s2.855.33,2.493,3.977.151,0,.151,0,3.034,1.229,4.116,2.943,3.034-1.531,3.181-2.461,1.364-1.316,1.364-1.316,4.772,8.848,3.929,11.281-11.087,2.994-11.087,2.994-1.865-1.05-6.16,2.223-13.214.8-13.214.8-7.269-3.034-2.851-6.362,7.416-2.823,7.416-2.823L256.946,768S257.817,762.91,261.03,763.093Z" transform="translate(-157.882 -467.65)" fill="#7e5659"/>
    <path id="Path_399" data-name="Path 399" d="M333.493,236.007c1.817,1.1,3.11,2.891,4.831,4.136,2.45,1.77,5.738,2.43,7.623,4.792,1.591,2.012,1.8,4.824,1.368,7.361s-1.392,4.959-1.857,7.488-.37,5.333,1.133,7.416a1.682,1.682,0,0,0,.728.64,2.386,2.386,0,0,0,1.109,0c2.569-.31,5.034,1.527,6.188,3.845a15.4,15.4,0,0,1,1.125,7.6,15.706,15.706,0,0,1-1.269,6.191c-1.591,3.245-4.9,5.249-8.164,6.784a63.246,63.246,0,0,1-6.518,2.632,9.808,9.808,0,0,1-4.724.712c-2.716-.469-4.641-2.939-7.217-3.9-2.112-.8-4.454-.509-6.7-.31-1.917.167-4.108.163-5.428-1.237-1.694-1.8-.93-4.7-.064-7.011a4.991,4.991,0,0,1-3.531-8.16c.819-1,2.127-2.163,1.487-3.289a2.179,2.179,0,0,0-.859-.748c-2.589-1.479-6.156-2.072-7.245-4.847-.7-1.785-.024-3.806.863-5.5s1.988-3.36,2.231-5.261c.318-2.688-1.193-5.452-.425-8.045a8.064,8.064,0,0,1,1.865-2.966,25.593,25.593,0,0,1,8.351-6.12c3.137-1.436,6.283-1.758,9.6-2.458C329.982,235.323,331.628,234.878,333.493,236.007Z" transform="translate(-196.247 -149.734)" fill="#865a61"/>
    <path id="Path_400" data-name="Path 400" d="M318.081,337.753s-7.607-.4-9.047,6.088,3.122,15.775,3.122,15.775Z" transform="translate(-198.375 -211.448)" fill="#fdc2cc"/>
    <path id="Path_401" data-name="Path 401" d="M318.081,337.753s-7.607-.4-9.047,6.088,3.122,15.775,3.122,15.775Z" transform="translate(-198.375 -211.448)" opacity="0.05"/>
    <path id="Path_402" data-name="Path 402" d="M320,333.236l2.883,2.283,13.453.6,8.4-5.766,8.542-14.657a10.56,10.56,0,0,1-8.12-8.311,18.2,18.2,0,0,1-.167-6.943s-13.7-7.09-12.013,3.977a15.033,15.033,0,0,1,.127,4.112c-.8,6.482-7.086,5.261-7.086,5.261l-2.414,3.722-2.764,9.146Z" transform="translate(-205.149 -187.629)" fill="#fdc2cc"/>
    <path id="Path_403" data-name="Path 403" d="M352.443,304.4a15.033,15.033,0,0,1,.127,4.112,12.14,12.14,0,0,0,12.053-1.129,18.2,18.2,0,0,1-.167-6.943S350.761,293.348,352.443,304.4Z" transform="translate(-224.605 -187.625)" opacity="0.1"/>
    <circle id="Ellipse_65" data-name="Ellipse 65" cx="12.132" cy="12.132" r="12.132" transform="translate(120.879 97.237)" fill="#fdc2cc"/>
    <path id="Path_404" data-name="Path 404" d="M325.066,354.194c.294,0,.585.044.875.072,1.591.159,8.235.517,12.021-4,4.235-5.058,9.874-11.305,10.1-11.56l5.738,1.734s-4.541-1.614-7.555,6.832a8.748,8.748,0,0,0,2.955,10.065,9.091,9.091,0,0,0,3.754,1.591.02.02,0,0,1,0,.02v3.706h0l-2.346,10.339a17.922,17.922,0,0,0,.223,8.848l3.579,12.649c-.541.374-22.746,15.477-37.578,5.046h0c.056-.453,1.889-15.3.616-22.563a50.171,50.171,0,0,1-.664-5.615c0-.048,0-.091,0-.139a6.331,6.331,0,0,0-2.175-4.295c-1.336-1.193-3.145-4.374-1.356-12.781a30.883,30.883,0,0,1,1.988-6.056l4.975-11.242h0l4.585.091v.032c-.4.493-5.714,7.134-6.291,11.413C317.948,352.444,317.252,353.693,325.066,354.194Z" transform="translate(-200.636 -210.901)" fill="#46a16e"/>
    <path id="Path_405" data-name="Path 405" d="M392.351,347.576s4.486,3.845,6.247,12.574,5.686,23.227,5.686,23.227,1.591,6.327-3.845,12.574-9.051,11.134-9.051,11.134l-3.579,5.273a4.489,4.489,0,0,1-2.577,1.821,8.7,8.7,0,0,1-6.307-.449,3.674,3.674,0,0,1-1.591-4.641l.8-1.841s-7.368,4.645-8.009,2.08,8.569-5.126,8.569-5.126,7.607-1.28,9.146-4.883c0,0,8.168-10.494,7.528-14.1l-7.889-21.143s-9.866-1.3-6.5-12.387S392.351,347.576,392.351,347.576Z" transform="translate(-235.321 -216.066)" fill="#fdc2cc"/>
    <path id="Path_406" data-name="Path 406" d="M307.337,506.322s18.022,3.6,22.269,3.122l.457,1.523s6.84,1.531,22.3-.923q1.515-.239,3.145-.537l.362-.064s.211-1.145.378-3.1a53.721,53.721,0,0,0-2.621-21.807l-2.6-8.009s-16.073,9.635-26.714,8.748c-.95-.08-1.893-.155-2.843-.187-2.183-.083-5.567,0-7.766-1.762l-4.613.8v13.123a15.723,15.723,0,0,1-1.042,5.615c-.1.262-.2.521-.318.8A4.176,4.176,0,0,0,307.337,506.322Z" transform="translate(-197.482 -295.043)" fill="#65617d"/>
    <path id="Path_407" data-name="Path 407" d="M364.58,552.047v4.084s7.874,1.762,25.812-1.523c0,0,.211-1.145.378-3.1C385.266,552.393,370.087,554.516,364.58,552.047Z" transform="translate(-232.002 -340.206)" opacity="0.1"/>
    <path id="Path_408" data-name="Path 408" d="M307.341,546.234s18.022,3.6,22.269,3.122l.457,1.523v-4.084c-2.052.851-16.7-2.68-22.01-4-.1.262-.2.521-.318.8a4.176,4.176,0,0,0-.4,2.648Z" transform="translate(-197.485 -334.954)" opacity="0.1"/>
    <path id="Path_409" data-name="Path 409" d="M417.31,536.121l1.336,8.287q1.515-.238,3.145-.537c-.418-2.422-1.328-7.953-1.078-8.872l-1.682-1.44Z" transform="translate(-263.764 -329.394)" fill="#65617d"/>
    <path id="Path_410" data-name="Path 410" d="M417.78,535.671l1.336,8.291q1.515-.243,3.145-.537c-.418-2.422-1.328-7.953-1.078-8.872L419.5,533.11Z" transform="translate(-264.047 -329.123)" opacity="0.1"/>
    <g id="Group_86" data-name="Group 86" transform="translate(115.451 181.476)" opacity="0.05">
      <path id="Path_411" data-name="Path 411" d="M331.929,495.568c-.946-.08-1.893-.155-2.843-.187-2.123-.08-5.364,0-7.575-1.626l.771-.135c2.211,1.754,5.567,1.678,7.766,1.762.95.032,1.893.107,2.843.187.31.028.628.044.95.052a17.835,17.835,0,0,1-1.913-.052Z" transform="translate(-321.51 -486.812)"/>
      <path id="Path_412" data-name="Path 412" d="M395.138,510.026q1.515-.239,3.145-.533l.366-.068s.211-1.145.374-3.1a53.58,53.58,0,0,0-2.621-21.807l-2.45-7.555c.521-.294.8-.465.8-.465l2.6,8.009a53.721,53.721,0,0,1,2.621,21.807c-.167,1.952-.378,3.1-.378,3.1l-.362.068q-1.626.294-3.145.533a99.059,99.059,0,0,1-16.2,1.392A102.2,102.2,0,0,0,395.138,510.026Z" transform="translate(-356.669 -476.5)"/>
      <path id="Path_413" data-name="Path 413" d="M360.217,559.3v.044H359.7Q359.994,559.324,360.217,559.3Z" transform="translate(-344.514 -526.374)"/>
    </g>
    <ellipse id="Ellipse_66" data-name="Ellipse 66" cx="0.68" cy="1.4" rx="0.68" ry="1.4" transform="translate(155.105 205.474)" fill="#d39999"/>
    <path id="Path_414" data-name="Path 414" d="M310.932,446.532c1.1-8.152,3.034-13,4.056-14.892.04.258.143,1.1.191,1.356a39.383,39.383,0,0,1,.087,4.211l-1.018,18.435,1.364,5.766c1.28,4.565-3.464.958-3.464.958a2.823,2.823,0,0,1-2.784,1.925l-.247-3.308a28.576,28.576,0,0,1,.827-9.277,44.2,44.2,0,0,0,.986-5.173Z" transform="translate(-198.547 -268.003)" fill="#fdc2cc"/>
    <path id="Path_415" data-name="Path 415" d="M310.932,446.532c1.1-8.152,3.034-13,4.056-14.892.04.258.143,1.1.191,1.356a39.383,39.383,0,0,1,.087,4.211l-1.018,18.435,1.364,5.766c1.28,4.565-3.464.958-3.464.958a2.823,2.823,0,0,1-2.784,1.925l-.247-3.308a28.576,28.576,0,0,1,.827-9.277,44.2,44.2,0,0,0,.986-5.173Z" transform="translate(-198.547 -268.003)" opacity="0.05"/>
    <path id="Path_416" data-name="Path 416" d="M394.294,481.728c-.863,1.117-1.336,1.758-1.336,1.758l-3.579,5.269a4.47,4.47,0,0,1-2.577,1.821,8.683,8.683,0,0,1-6.307-.449,3.666,3.666,0,0,1-1.591-4.637l.8-1.845s-7.369,4.645-8.009,2.084,8.569-5.126,8.569-5.126,7.607-1.28,9.146-4.887c0,0,.664-.851,1.591-2.155" transform="translate(-236.267 -293.253)" fill="#fdc2cc"/>
    <path id="Path_417" data-name="Path 417" d="M398.017,507.48s-8.713-.847-11.472-5.83l-1.265,4.116s9.146,6.315,11.234,5.5Z" transform="translate(-244.471 -310.173)" fill="#65617d"/>
    <path id="Path_418" data-name="Path 418" d="M397.243,507.374s-8.709-.847-11.472-5.834l-1.261,4.1s9.146,6.315,11.23,5.5Z" transform="translate(-244.007 -310.107)" opacity="0.1"/>
    <path id="Path_419" data-name="Path 419" d="M312.05,510.46s-3.05,1.082-3.65.481l1.372,2.525,2.593-1.988Z" transform="translate(-198.162 -315.48)" fill="#65617d"/>
    <path id="Path_420" data-name="Path 420" d="M312.05,510.46s-3.05,1.082-3.65.481l1.372,2.525,2.593-1.988Z" transform="translate(-198.162 -315.48)" opacity="0.1"/>
    <path id="Path_421" data-name="Path 421" d="M331.523,524.739V519.47l-1.253,5.4Z" transform="translate(-198.945 -312.898)" opacity="0.1"/>
    <path id="Path_422" data-name="Path 422" d="M353.96,261.777a4.68,4.68,0,0,1-3.269,1.722,25.757,25.757,0,0,1-3.8,0,9.525,9.525,0,0,0-5.73,1.443,14.57,14.57,0,0,0-2.628,2.784c-2.458,3-5.869,5.814-9.743,5.5a2.525,2.525,0,0,1-1.809-.764,2.9,2.9,0,0,1-.461-1.646,37.635,37.635,0,0,1,.235-7.42,15.643,15.643,0,0,1,1.121-4.426,15.11,15.11,0,0,1,2.7-3.849,16.49,16.49,0,0,1,4.7-3.77,8.438,8.438,0,0,1,5.885-.76c2.318.632,4.124,2.446,6.335,3.38C350.023,255.032,356.727,257.868,353.96,261.777Z" transform="translate(-209.027 -158.814)" opacity="0.1"/>
    <path id="Path_423" data-name="Path 423" d="M353.959,260.561a4.679,4.679,0,0,1-3.269,1.722,25.753,25.753,0,0,1-3.8,0,9.494,9.494,0,0,0-5.73,1.44,14.569,14.569,0,0,0-2.628,2.784c-2.457,3-5.869,5.814-9.743,5.5a2.509,2.509,0,0,1-1.809-.763,2.891,2.891,0,0,1-.461-1.646,37.632,37.632,0,0,1,.235-7.42,15.644,15.644,0,0,1,1.121-4.426,15.008,15.008,0,0,1,2.7-3.845,16.435,16.435,0,0,1,4.7-3.774,8.438,8.438,0,0,1,5.885-.76c2.318.632,4.124,2.446,6.335,3.38C350.023,253.816,356.727,256.644,353.959,260.561Z" transform="translate(-209.026 -158.079)" fill="#865a61"/>
    <path id="Path_424" data-name="Path 424" d="M291.758,473.47l-.032,1.451-.326-1.388Z" transform="translate(-175.531 -285.191)" fill="#fdc2cc"/>
    <path id="Path_425" data-name="Path 425" d="M291.758,473.47l-.032,1.451-.326-1.388Z" transform="translate(-175.531 -285.191)" opacity="0.05"/>
    <g id="Group_87" data-name="Group 87" transform="translate(144.748 129.689)" opacity="0.05">
      <path id="Path_426" data-name="Path 426" d="M397.33,351.447c-3.368,11.083,6.45,12.383,6.45,12.383l7.889,21.143c.64,3.6-7.532,14.1-7.532,14.1a6.989,6.989,0,0,1-3.539,3.122,5.543,5.543,0,0,0,2.1-2.306s8.168-10.49,7.528-14.093l-7.889-21.147s-9.814-1.3-6.45-12.383c1.125-3.7,2.784-5.388,4.462-5.993A10.209,10.209,0,0,0,397.33,351.447Z" transform="translate(-395.184 -346.27)"/>
    </g>
    <g id="Group_88" data-name="Group 88" transform="translate(111.899 125.935)" opacity="0.1">
      <path id="Path_427" data-name="Path 427" d="M401,384.61a8.286,8.286,0,0,0,1.591,1.507,9.039,9.039,0,0,0,3.754,1.591v.418a9.01,9.01,0,0,1-3.4-1.507A8.25,8.25,0,0,1,401,384.61Z" transform="translate(-365.838 -365.61)"/>
      <path id="Path_428" data-name="Path 428" d="M322.13,419.2v.139a51.353,51.353,0,0,0,.684,5.635c1.193,6.856-.37,20.467-.593,22.348-.127-.084-.254-.163-.4-.255.06-.453,1.893-15.3.62-22.559a50.39,50.39,0,0,1-.664-5.615v-.139a6.136,6.136,0,0,0-1.07-3.042,6.184,6.184,0,0,1,1.42,3.487Z" transform="translate(-317.476 -384.343)"/>
      <path id="Path_429" data-name="Path 429" d="M324.552,337.375l-3.889-.076a.02.02,0,0,0-.02,0l-4.971,11.238a30.983,30.983,0,0,0-1.988,6.056c-1.448,6.8-.537,10.188.569,11.862-1.245-1.467-2.529-4.812-.927-12.327a30.654,30.654,0,0,1,1.968-6.06L320.3,336.83h0l4.585.091v.028C324.85,337,324.727,337.148,324.552,337.375Z" transform="translate(-312.577 -336.83)"/>
      <path id="Path_430" data-name="Path 430" d="M416.39,345.87l.068.02Z" transform="translate(-375.109 -342.275)"/>
      <path id="Path_431" data-name="Path 431" d="M361.992,343.2l-3.9-1.173h-.02c-.231.255-5.865,6.5-10.1,11.56-3.786,4.521-10.422,4.167-12.021,4.008-.29-.032-.585-.056-.875-.076-4.346-.278-6.056-.8-6.629-1.893.815.8,2.609,1.193,6.267,1.416.294,0,.585.044.875.072,1.591.159,8.235.513,12.021-4,4.235-5.062,9.874-11.309,10.1-11.564h0l5.671,1.718a3.543,3.543,0,0,0-1.4-.064Z" transform="translate(-322.138 -339.673)"/>
    </g>
    <path id="Path_432" data-name="Path 432" d="M286.849,776.335s-5.488,1.5-6.549-.855" transform="translate(-181.236 -475.114)" opacity="0.1"/>
    <path id="Path_433" data-name="Path 433" d="M372.514,773.439s-6.362,1.642-7.834-.9" transform="translate(-232.062 -473.343)" opacity="0.1"/>
    <path id="Path_434" data-name="Path 434" d="M549.95,748.949c.091-.8.223-1.591.366-2.386a16.631,16.631,0,0,0-.8-8.064h0c-.147-.417-.255-.652-.255-.652-2.533-.692-12.518,7.054-16.157,9.973-1.261,0-2.628.056-4.124.155-.652.048-1.3.064-1.956.052h-2.386c-3.376-2.72-13.826-10.9-16.427-10.192,0,0-.107.235-.254.652h0a16.339,16.339,0,0,0-.815,8.064c.143.8.274,1.591.366,2.386a11.417,11.417,0,0,0,3.579,7.361,48.241,48.241,0,0,0,4.334,12.872,9.217,9.217,0,0,0,.557,1.817c-.676,2.609-1.455,6.012-1.233,7.158,0,0-3.531-.855-3.889,3.4v.131c-1.276.585-2.871,1.925-1.078,4.732a1.841,1.841,0,0,0,.923.752c.318.111.628.111.6-.334l2.207,2.485s4,.461,4.048-1.861l.235.036c.537.08,1.1.147,1.674.207l.278.919s-3-.064-2.183,1.786c0,0,.755.7,1.014.445,0,0-.4,1.213,1.169,1.213,0,0,1.682.891,2.338.255s2.016-1.591,2.143-1.988c.036-.107.052-1.05.06-2.354h.258c3.352.08,6.911-.028,10.148-.2h.262c0,1.412.02,2.454.056,2.565.131.4,1.5,1.34,2.147,1.988s2.334-.255,2.334-.255c1.559,0,1.169-1.213,1.169-1.213.262.254,1.018-.445,1.018-.445.819-1.849-2.187-1.785-2.187-1.785l.358-1.193,1.658-.139.262-.024c-.159,2.525,4.044,2.04,4.044,2.04l2.211-2.485c-.036.445.274.445.593.334a1.826,1.826,0,0,0,.895-.76c2.708-4.235-2.294-5.134-2.294-5.134a2.453,2.453,0,0,0-.473-.076.815.815,0,0,1,.02-.219h0a8.73,8.73,0,0,0,.032-1.678,3.691,3.691,0,0,0-2.978-2.167c-1.018-.127-1.038-4.8-.935-8.044a9.248,9.248,0,0,0,.159-1.845,9.732,9.732,0,0,0-.4-2.955,37.892,37.892,0,0,0,3.758-7.953A11.57,11.57,0,0,0,549.95,748.949Z" transform="translate(-317.752 -452.412)" fill="url(#linear-gradient-5)"/>
    <path id="Path_435" data-name="Path 435" d="M552.932,824.8h0c-.159,2.2-.585,5.738-.585,5.738s-1.77.215-4.505.461l-1.857.159c-1.424.115-3.022.227-4.712.322-3.122.171-6.549.278-9.782.2-1.615-.036-3.181-.119-4.633-.262-.648-.064-1.276-.139-1.873-.227-3.706-.553-6.362-1.61-6.589-3.468a10.738,10.738,0,0,1-.084-2.386c.346-4.175,3.746-3.332,3.746-3.332-.219-1.153.6-4.736,1.273-7.329.422-1.634.8-2.875.8-2.875l23.907-1.591h.079a1.169,1.169,0,0,1,1.169,1.229c-.143,2.867-.346,9.432.827,9.579a3.6,3.6,0,0,1,2.875,2.127A8.919,8.919,0,0,1,552.932,824.8Z" transform="translate(-324.583 -496.033)" fill="#46a16e"/>
    <path id="Path_436" data-name="Path 436" d="M526.95,751.257s-9.015,10.852-13.357,7.846c-.1-.072-.2-.143-.3-.219-2.919-2.211-3.686-5.774-3.889-7.583-.087-.8-.215-1.563-.354-2.338a16.237,16.237,0,0,1,.8-7.917h0c.143-.4.243-.64.243-.64C513.092,739.57,526.95,751.257,526.95,751.257Z" transform="translate(-318.905 -453.961)" fill="#46a16e"/>
    <path id="Path_437" data-name="Path 437" d="M522.076,753.294s-2.839,1.988-6.844,5.257a14.457,14.457,0,0,1-1.988,1.368c-2.919-2.211-3.686-5.774-3.889-7.583-.087-.8-.215-1.563-.354-2.338a16.236,16.236,0,0,1,.8-7.917h0C515.412,742.47,522.076,753.294,522.076,753.294Z" transform="translate(-318.875 -454.996)" fill="#46a16e"/>
    <path id="Path_438" data-name="Path 438" d="M522.076,753.294s-2.839,1.988-6.844,5.257a14.457,14.457,0,0,1-1.988,1.368c-2.919-2.211-3.686-5.774-3.889-7.583-.087-.8-.215-1.563-.354-2.338a16.236,16.236,0,0,1,.8-7.917h0C515.412,742.47,522.076,753.294,522.076,753.294Z" transform="translate(-318.875 -454.996)" fill="#fff" opacity="0.5"/>
    <path id="Path_439" data-name="Path 439" d="M523.723,758.525s-1.515,1.07-3.654,2.807a7.712,7.712,0,0,1-1.05.728,5.854,5.854,0,0,1-2.076-4.044c-.044-.422-.111-.835-.187-1.253a8.693,8.693,0,0,1,.441-4.223h0C520.168,752.747,523.723,758.525,523.723,758.525Z" transform="translate(-323.612 -461.296)" opacity="0.1"/>
    <path id="Path_440" data-name="Path 440" d="M569.05,751.257s9.015,10.852,13.357,7.846c.1-.072.2-.143.3-.219,2.919-2.211,3.686-5.774,3.889-7.583.087-.8.215-1.563.35-2.338a16.188,16.188,0,0,0-.8-7.917h0c-.143-.4-.247-.64-.247-.64C582.908,739.57,569.05,751.257,569.05,751.257Z" transform="translate(-355.164 -453.961)" fill="#46a16e"/>
    <path id="Path_441" data-name="Path 441" d="M581.22,753.294s2.843,1.988,6.848,5.257a14.453,14.453,0,0,0,1.968,1.368c2.919-2.211,3.686-5.774,3.889-7.583.087-.8.215-1.563.35-2.338a16.188,16.188,0,0,0-.8-7.917h0C587.893,742.47,581.22,753.294,581.22,753.294Z" transform="translate(-362.494 -454.996)" fill="#46a16e"/>
    <path id="Path_442" data-name="Path 442" d="M581.22,753.294s2.843,1.988,6.848,5.257a14.453,14.453,0,0,0,1.968,1.368c2.919-2.211,3.686-5.774,3.889-7.583.087-.8.215-1.563.35-2.338a16.188,16.188,0,0,0-.8-7.917h0C587.893,742.47,581.22,753.294,581.22,753.294Z" transform="translate(-362.494 -454.996)" fill="#fff" opacity="0.5"/>
    <path id="Path_443" data-name="Path 443" d="M589.05,758.547s1.507,1.066,3.631,2.784a7.289,7.289,0,0,0,1.046.724,5.873,5.873,0,0,0,2.064-4.02c.044-.4.111-.831.187-1.245a8.708,8.708,0,0,0-.418-4.2h0C592.585,752.8,589.05,758.547,589.05,758.547Z" transform="translate(-367.211 -461.326)" opacity="0.1"/>
    <path id="Path_444" data-name="Path 444" d="M555.678,810.23a21.6,21.6,0,0,1-3.452,4.4c-3.579,3.181-19.032,1.917-20.034,1.754-.211-.036-.648-.66-1.193-1.674.422-1.634.8-2.875.8-2.875Z" transform="translate(-332.245 -496.045)" opacity="0.1"/>
    <path id="Path_445" data-name="Path 445" d="M535.961,765.233c-.628.044-1.257.06-1.889.048-3.225-.056-14.089.087-15.294,4.474-1.42,5.169,4.927,19.012,5.925,19.179s16.447,1.42,20.038-1.754,8.263-13.123,8.013-14.025C552.753,773.154,557.207,763.762,535.961,765.233Z" transform="translate(-324.759 -468.847)" fill="#46a16e"/>
    <path id="Path_446" data-name="Path 446" d="M542.261,786.445a11.407,11.407,0,0,0-11.683,6.6,9.544,9.544,0,0,0,.7,9.619c1.241,1.746,3.062,3.046,5.595,1.988C542.508,802.335,542.261,786.445,542.261,786.445Z" transform="translate(-331.401 -481.676)" opacity="0.1"/>
    <path id="Path_447" data-name="Path 447" d="M541.631,785.185a11.407,11.407,0,0,0-11.683,6.6,9.544,9.544,0,0,0,.7,9.619c1.241,1.746,3.062,3.046,5.595,1.988C541.878,801.075,541.631,785.185,541.631,785.185Z" transform="translate(-331.022 -480.917)" opacity="0.1"/>
    <path id="Path_448" data-name="Path 448" d="M541.631,785.815a11.407,11.407,0,0,0-11.683,6.6,9.544,9.544,0,0,0,.7,9.619c1.241,1.746,3.062,3.046,5.595,1.988C541.878,801.7,541.631,785.815,541.631,785.815Z" transform="translate(-331.022 -481.297)" fill="#46a16e"/>
    <path id="Path_449" data-name="Path 449" d="M541.631,785.815a11.407,11.407,0,0,0-11.683,6.6,9.544,9.544,0,0,0,.7,9.619c1.241,1.746,3.062,3.046,5.595,1.988C541.878,801.7,541.631,785.815,541.631,785.815Z" transform="translate(-331.022 -481.297)" fill="#fff" opacity="0.5"/>
    <path id="Path_450" data-name="Path 450" d="M538.083,803.13s-1.086,1-.668,1.253S538.083,803.13,538.083,803.13Z" transform="translate(-336.051 -491.769)" fill="#3f2b3b"/>
    <path id="Path_451" data-name="Path 451" d="M541.692,806.35s-.593,1.308-.171,1.451.672-.938.672-.938Z" transform="translate(-338.49 -493.708)" fill="#3f2b3b"/>
    <path id="Path_452" data-name="Path 452" d="M535.2,811.32s-.581,1.543,0,1.543S535.2,811.32,535.2,811.32Z" transform="translate(-334.618 -496.702)" fill="#3f2b3b"/>
    <path id="Path_453" data-name="Path 453" d="M533.78,821.71s1.161,2.966,4.183,2.756" transform="translate(-333.919 -502.96)" fill="none" stroke="#3f2b3b" stroke-miterlimit="10" stroke-width="1"/>
    <path id="Path_454" data-name="Path 454" d="M540.61,823.91a2.093,2.093,0,0,0,2.5.334" transform="translate(-338.033 -504.286)" fill="none" stroke="#3f2b3b" stroke-miterlimit="10" stroke-width="1"/>
    <path id="Path_455" data-name="Path 455" d="M564,786.445a11.407,11.407,0,0,1,11.683,6.6,9.544,9.544,0,0,1-.7,9.619c-1.237,1.746-3.062,3.046-5.6,1.988C563.735,802.335,564,786.445,564,786.445Z" transform="translate(-352.119 -481.676)" opacity="0.1"/>
    <path id="Path_456" data-name="Path 456" d="M564.588,785.185a11.407,11.407,0,0,1,11.683,6.6,9.544,9.544,0,0,1-.7,9.619c-1.237,1.746-3.062,3.046-5.595,1.988C564.353,801.075,564.588,785.185,564.588,785.185Z" transform="translate(-352.475 -480.917)" opacity="0.1"/>
    <path id="Path_457" data-name="Path 457" d="M564.588,785.815a11.407,11.407,0,0,1,11.683,6.6,9.544,9.544,0,0,1-.7,9.619c-1.237,1.746-3.062,3.046-5.595,1.988C564.353,801.7,564.588,785.815,564.588,785.815Z" transform="translate(-352.475 -481.297)" fill="#46a16e"/>
    <path id="Path_458" data-name="Path 458" d="M564.588,785.815a11.407,11.407,0,0,1,11.683,6.6,9.544,9.544,0,0,1-.7,9.619c-1.237,1.746-3.062,3.046-5.595,1.988C564.353,801.7,564.588,785.815,564.588,785.815Z" transform="translate(-352.475 -481.297)" fill="#fff" opacity="0.5"/>
    <path id="Path_459" data-name="Path 459" d="M586.16,803.13s1.086,1,.668,1.253S586.16,803.13,586.16,803.13Z" transform="translate(-365.47 -491.769)" fill="#3f2b3b"/>
    <path id="Path_460" data-name="Path 460" d="M582.461,806.35s.593,1.308.171,1.451-.672-.938-.672-.938Z" transform="translate(-362.94 -493.708)" fill="#3f2b3b"/>
    <path id="Path_461" data-name="Path 461" d="M589.432,811.32s.577,1.543,0,1.543S589.432,811.32,589.432,811.32Z" transform="translate(-367.286 -496.702)" fill="#3f2b3b"/>
    <path id="Path_462" data-name="Path 462" d="M585.283,821.71s-1.161,2.966-4.183,2.756" transform="translate(-362.422 -502.96)" fill="none" stroke="#3f2b3b" stroke-miterlimit="10" stroke-width="1"/>
    <path id="Path_463" data-name="Path 463" d="M581.005,823.91a2.1,2.1,0,0,1-2.505.334" transform="translate(-360.856 -504.286)" fill="none" stroke="#3f2b3b" stroke-miterlimit="10" stroke-width="1"/>
    <path id="Path_464" data-name="Path 464" d="M553.2,841.716a11.548,11.548,0,0,1,8.263,0Z" transform="translate(-345.617 -514.536)" fill="#3f2b3b"/>
    <path id="Path_465" data-name="Path 465" d="M524.985,853.226c-3.706-.553-6.362-1.611-6.589-3.468a10.739,10.739,0,0,1-.084-2.386,5.355,5.355,0,0,1,1.416-.517c.672-.187,1.5-.06,3.257.441s1.626,2.565,1.988,5.257a2.225,2.225,0,0,1,.012.672Z" transform="translate(-324.583 -518.058)" opacity="0.1"/>
    <path id="Path_466" data-name="Path 466" d="M516.768,847.51s-4.82.883-2.211,5.042a1.777,1.777,0,0,0,.891.736c.306.107.6.107.569-.33l2.131,2.442s4.255.5,3.881-2.191-.251-4.772-1.988-5.257S517.448,847.323,516.768,847.51Z" transform="translate(-321.874 -518.453)" fill="#46a16e"/>
    <path id="Path_467" data-name="Path 467" d="M524.18,854.67s1.022,2.334,2.442.374" transform="translate(-328.137 -522.814)" fill="none" stroke="#3f2b3b" stroke-miterlimit="10" stroke-width="1"/>
    <path id="Path_468" data-name="Path 468" d="M518.28,857s.529,2.211,2.533.565" transform="translate(-324.583 -524.217)" fill="none" stroke="#3f2b3b" stroke-miterlimit="10" stroke-width="1"/>
    <path id="Path_469" data-name="Path 469" d="M597.692,846.84h0c-.159,2.2-.585,5.738-.585,5.738s-1.77.215-4.505.461a2.312,2.312,0,0,1,0-.461c.374-2.692.251-4.772,1.988-5.257A7.648,7.648,0,0,1,597.692,846.84Z" transform="translate(-369.344 -518.073)" opacity="0.1"/>
    <path id="Path_470" data-name="Path 470" d="M598.521,847.51s4.824.883,2.215,5.042a1.793,1.793,0,0,1-.891.736c-.306.107-.6.107-.573-.33l-2.127,2.442s-4.259.5-3.881-2.191.251-4.772,1.988-5.257S597.853,847.323,598.521,847.51Z" transform="translate(-369.735 -518.453)" fill="#46a16e"/>
    <path id="Path_471" data-name="Path 471" d="M599.942,854.67s-1.026,2.334-2.442.374" transform="translate(-372.301 -522.814)" fill="none" stroke="#3f2b3b" stroke-miterlimit="10" stroke-width="1"/>
    <path id="Path_472" data-name="Path 472" d="M605.7,857s-.533,2.211-2.537.565" transform="translate(-375.71 -524.217)" fill="none" stroke="#3f2b3b" stroke-miterlimit="10" stroke-width="1"/>
    <path id="Path_473" data-name="Path 473" d="M542.1,850.564c-1.614-.036-3.181-.119-4.633-.262l-1.443-4.859a3.153,3.153,0,0,1-.131-.887,3.094,3.094,0,0,1,6.184-.02C542.089,846.429,542.105,848.827,542.1,850.564Z" transform="translate(-335.19 -514.918)" opacity="0.1"/>
    <path id="Path_474" data-name="Path 474" d="M534.774,845.284l1.7,5.734s-2.895-.064-2.1,1.754c0,0,.728.688.978.437,0,0-.378,1.193,1.125,1.193,0,0,1.622.879,2.251.25s1.945-1.567,2.072-1.941c.08-.246.056-5.042.028-8.351a3.086,3.086,0,0,0-3.09-3.062h0a3.09,3.09,0,0,0-2.963,3.984Z" transform="translate(-334.193 -514.76)" fill="#46a16e"/>
    <path id="Path_475" data-name="Path 475" d="M540.171,869.47s-1.265,1.193-.6,1.9" transform="translate(-337.292 -531.728)" fill="none" stroke="#3f2b3b" stroke-miterlimit="10" stroke-width="1"/>
    <path id="Path_476" data-name="Path 476" d="M538.229,867.56a1.717,1.717,0,0,0-1.169,1.467" transform="translate(-335.895 -530.578)" fill="none" stroke="#3f2b3b" stroke-miterlimit="10" stroke-width="1"/>
    <path id="Path_477" data-name="Path 477" d="M582.338,844.395a3.146,3.146,0,0,1-.127.887l-1.348,4.6c-1.424.115-3.022.227-4.712.322,0-1.718,0-4,.028-5.83a3.09,3.09,0,1,1,6.18.02Z" transform="translate(-359.441 -514.757)" opacity="0.1"/>
    <path id="Path_478" data-name="Path 478" d="M582.8,845.284l-1.7,5.734s2.9-.064,2.108,1.754c0,0-.728.688-.978.437,0,0,.374,1.193-1.129,1.193,0,0-1.622.879-2.251.25s-1.941-1.567-2.068-1.941c-.08-.246-.056-5.042-.028-8.351a3.086,3.086,0,0,1,3.09-3.062h0a3.09,3.09,0,0,1,2.959,3.984Z" transform="translate(-359.786 -514.76)" fill="#46a16e"/>
    <path id="Path_479" data-name="Path 479" d="M586.23,869.47s1.265,1.193.6,1.9" transform="translate(-365.512 -531.728)" fill="none" stroke="#3f2b3b" stroke-miterlimit="10" stroke-width="1"/>
    <path id="Path_480" data-name="Path 480" d="M587.63,867.56a1.717,1.717,0,0,1,1.169,1.467" transform="translate(-366.355 -530.578)" fill="none" stroke="#3f2b3b" stroke-miterlimit="10" stroke-width="1"/>
    <path id="Path_481" data-name="Path 481" d="M551.612,782.768s-5.889-.187-6.076,4.374,9.2,2.628,9.2,2.628,3.945-.529,3.257-3.3S555.871,783.019,551.612,782.768Z" transform="translate(-340.999 -479.503)" opacity="0.1"/>
    <path id="Path_482" data-name="Path 482" d="M551.612,781.508s-5.889-.187-6.076,4.374,9.2,2.629,9.2,2.629,3.945-.529,3.257-3.3S555.871,781.759,551.612,781.508Z" transform="translate(-340.999 -478.744)" opacity="0.1"/>
    <path id="Path_483" data-name="Path 483" d="M551.612,782.138s-5.889-.187-6.076,4.374,9.2,2.629,9.2,2.629,3.945-.529,3.257-3.3S555.871,782.389,551.612,782.138Z" transform="translate(-340.999 -479.124)" fill="#3f2b3b"/>
    <path id="Path_484" data-name="Path 484" d="M527.78,839.92s1.988.708,2.386,2.064" transform="translate(-330.305 -513.929)" opacity="0.1"/>
    <path id="Path_485" data-name="Path 485" d="M596.285,837.4s-1.412.593-1.312,3.066" transform="translate(-370.775 -512.411)" opacity="0.1"/>
    <ellipse id="Ellipse_67" data-name="Ellipse 67" cx="0.922" cy="1.528" rx="0.922" ry="1.528" transform="translate(196.751 335.463) rotate(-29.887)" fill="#46a16e"/>
    <ellipse id="Ellipse_68" data-name="Ellipse 68" cx="1.523" cy="0.919" rx="1.523" ry="0.919" transform="translate(224.739 335.822) rotate(-60)" fill="#46a16e"/>
    <ellipse id="Ellipse_69" data-name="Ellipse 69" cx="0.922" cy="1.528" rx="0.922" ry="1.528" transform="translate(196.751 335.463) rotate(-29.887)" fill="#fff" opacity="0.5"/>
    <ellipse id="Ellipse_70" data-name="Ellipse 70" cx="1.523" cy="0.919" rx="1.523" ry="0.919" transform="translate(224.739 335.822) rotate(-60)" fill="#fff" opacity="0.5"/>
    <ellipse id="Ellipse_71" data-name="Ellipse 71" cx="10.709" cy="1.809" rx="10.709" ry="1.809" transform="translate(65.871 282.937)" fill="#46a16e" opacity="0.1"/>
    <ellipse id="Ellipse_72" data-name="Ellipse 72" cx="10.709" cy="1.809" rx="10.709" ry="1.809" transform="translate(23.684 308.598)" fill="#46a16e" opacity="0.1"/>
    <ellipse id="Ellipse_73" data-name="Ellipse 73" cx="15.99" cy="2.704" rx="15.99" ry="2.704" transform="translate(7.253 284.746)" fill="#46a16e"/>
    <path id="Path_486" data-name="Path 486" d="M70.612,720.718a4.625,4.625,0,0,1-1.527-2.3,2.05,2.05,0,0,1,1.066-2.342c.978-.374,2.024.3,2.815.986s1.7,1.467,2.74,1.324a4.171,4.171,0,0,1-1.288-3.9,1.591,1.591,0,0,1,.358-.8c.541-.581,1.527-.33,2.179.127,2.064,1.455,2.644,4.263,2.652,6.792a12.526,12.526,0,0,0,.04-2.784,2.863,2.863,0,0,1,1.05-2.473,3.181,3.181,0,0,1,1.591-.4,3.326,3.326,0,0,1,2.6.74,2.558,2.558,0,0,1-.1,3.181,10.4,10.4,0,0,1-2.688,2.155,5.933,5.933,0,0,0-1.925,1.833,1.874,1.874,0,0,0-.143.326h-5.81a16.081,16.081,0,0,1-3.607-2.469Z" transform="translate(-53.982 -437.69)" fill="#46a16e"/>
    <ellipse id="Ellipse_74" data-name="Ellipse 74" cx="10.709" cy="1.809" rx="10.709" ry="1.809" transform="translate(398.799 298.072)" fill="#46a16e" opacity="0.1"/>
    <path id="Path_487" data-name="Path 487" d="M1042.91,748.111s6.108-.187,7.953-1.5,9.393-2.875,9.85-.771,9.182,10.454,2.283,10.51-16.021-1.074-17.859-2.2S1042.91,748.111,1042.91,748.111Z" transform="translate(-640.592 -456.641)" fill="#a8a8a8"/>
    <path id="Path_488" data-name="Path 488" d="M1063.115,760.616c-6.9.056-16.021-1.074-17.859-2.2-1.4-.851-1.956-3.909-2.143-5.321h-.2s.4,4.927,2.223,6.044,10.963,2.251,17.859,2.2c1.988,0,2.68-.724,2.64-1.774C1065.358,760.218,1064.6,760.616,1063.115,760.616Z" transform="translate(-640.592 -461.633)" opacity="0.2"/>
  </g>
</svg>
